<?xml version='1.0' encoding='UTF-8' standalone='no'?>
<svg
  xmlns="http://www.w3.org/2000/svg"
  xmlns:xlink="http://www.w3.org/1999/xlink"
  version="1.2"
  baseProfile="tiny"
  x="0"
  y="0"
  width="9.27in"
  height="9.11in"
  viewBox="0 0 83.4 82"
  xml:space="preserve">
  <!-- viewBox="0 0 81 81" -->
  <!-- viewBox="0 0 73 73" -->
  <!-- viewBox="2.5 16 7 7" -->
  <rect x="0" y="0" width="85" height="85" stroke="none" fill="white"/>
  <g
    fill="none"
    stroke-width="0.7"
    stroke-linecap="round"
    stroke-linejoin="round"
    font-family="'Droid Sans'"
    font-size="3.123"
    text-anchor="middle"
    transform="translate(9,7.5)">
    <!-- start of block for internal component symbols and wiring graphics -->
    <g
      stroke="black" stroke-width="0.4" fill="none">
      <!-- internal row and column diode connection grid lines on 0.1 inch spacing -->
      <path
        d="M0,9 h67
          M0,18 h67
          M0,27 h67
          M0,36 h67
          M0,45 h67
          M0,54 h67
          M0,63 h67
          M0,72 h67
          M 9,0 v67
          M18,0 v67
          M27,0 v67
          M36,0 v67
          M45,0 v67
          M54,0 v67
          M63,0 v67
          M72,0 v67"
      />
      <!-- internal diode to row and column connection line dots -->
      <g stroke="none" fill="black">
        <!-- internal row line to diode anode connection dots -->
        <g
          transform="translate(4,9)">
          <circle
            cx="0"
            cy="0"
            r="0.6"
          />
          <circle
            cx="9"
            cy="0"
            r="0.6"
          />
          <circle
            cx="18"
            cy="0"
            r="0.6"
          />
          <circle
            cx="27"
            cy="0"
            r="0.6"
          />
          <circle
            cx="36"
            cy="0"
            r="0.6"
          />
          <circle
            cx="45"
            cy="0"
            r="0.6"
          />
          <circle
            cx="54"
            cy="0"
            r="0.6"
          />
          <g
            transform="translate(0,9)">
            <circle
              cx="0"
              cy="0"
              r="0.6"
            />
            <circle
              cx="9"
              cy="0"
              r="0.6"
            />
            <circle
              cx="18"
              cy="0"
              r="0.6"
            />
            <circle
              cx="27"
              cy="0"
              r="0.6"
            />
            <circle
              cx="36"
              cy="0"
              r="0.6"
            />
            <circle
              cx="45"
              cy="0"
              r="0.6"
            />
            <circle
              cx="54"
              cy="0"
              r="0.6"
            />
          </g>
          <g
            transform="translate(0,18)">
            <circle
              cx="0"
              cy="0"
              r="0.6"
            />
            <circle
              cx="9"
              cy="0"
              r="0.6"
            />
            <circle
              cx="18"
              cy="0"
              r="0.6"
            />
            <circle
              cx="27"
              cy="0"
              r="0.6"
            />
            <circle
              cx="36"
              cy="0"
              r="0.6"
            />
            <circle
              cx="45"
              cy="0"
              r="0.6"
            />
            <circle
              cx="54"
              cy="0"
              r="0.6"
            />
          </g>
          <g
            transform="translate(0,27)">
            <circle
              cx="0"
              cy="0"
              r="0.6"
            />
            <circle
              cx="9"
              cy="0"
              r="0.6"
            />
            <circle
              cx="18"
              cy="0"
              r="0.6"
            />
            <circle
              cx="27"
              cy="0"
              r="0.6"
            />
            <circle
              cx="36"
              cy="0"
              r="0.6"
            />
            <circle
              cx="45"
              cy="0"
              r="0.6"
            />
            <circle
              cx="54"
              cy="0"
              r="0.6"
            />
          </g>
          <g
            transform="translate(0,36)">
            <circle
              cx="0"
              cy="0"
              r="0.6"
            />
            <circle
              cx="9"
              cy="0"
              r="0.6"
            />
            <circle
              cx="18"
              cy="0"
              r="0.6"
            />
            <circle
              cx="27"
              cy="0"
              r="0.6"
            />
            <circle
              cx="36"
              cy="0"
              r="0.6"
            />
            <circle
              cx="45"
              cy="0"
              r="0.6"
            />
            <circle
              cx="54"
              cy="0"
              r="0.6"
            />
          </g>
          <g
            transform="translate(0,45)">
            <circle
              cx="0"
              cy="0"
              r="0.6"
            />
            <circle
              cx="9"
              cy="0"
              r="0.6"
            />
            <circle
              cx="18"
              cy="0"
              r="0.6"
            />
            <circle
              cx="27"
              cy="0"
              r="0.6"
            />
            <circle
              cx="36"
              cy="0"
              r="0.6"
            />
            <circle
              cx="45"
              cy="0"
              r="0.6"
            />
            <circle
              cx="54"
              cy="0"
              r="0.6"
            />
          </g>
          <g
            transform="translate(0,54)">
            <circle
              cx="0"
              cy="0"
              r="0.6"
            />
            <circle
              cx="9"
              cy="0"
              r="0.6"
            />
            <circle
              cx="18"
              cy="0"
              r="0.6"
            />
            <circle
              cx="27"
              cy="0"
              r="0.6"
            />
            <circle
              cx="36"
              cy="0"
              r="0.6"
            />
            <circle
              cx="45"
              cy="0"
              r="0.6"
            />
            <circle
              cx="54"
              cy="0"
              r="0.6"
            />
          </g>
          <g
            transform="translate(0,63)">
            <circle
              cx="0"
              cy="0"
              r="0.6"
            />
            <circle
              cx="9"
              cy="0"
              r="0.6"
            />
            <circle
              cx="18"
              cy="0"
              r="0.6"
            />
            <circle
              cx="27"
              cy="0"
              r="0.6"
            />
            <circle
              cx="36"
              cy="0"
              r="0.6"
            />
            <circle
              cx="45"
              cy="0"
              r="0.6"
            />
            <circle
              cx="54"
              cy="0"
              r="0.6"
            />
          </g>
        </g>
        <!-- internal column line to diode cathode connection dots -->
        <g
          transform="translate(9,4)">
          <circle
            cx="0"
            cy="0"
            r="0.6"
          />
          <circle
            cx="9"
            cy="0"
            r="0.6"
          />
          <circle
            cx="18"
            cy="0"
            r="0.6"
          />
          <circle
            cx="27"
            cy="0"
            r="0.6"
          />
          <circle
            cx="36"
            cy="0"
            r="0.6"
          />
          <circle
            cx="45"
            cy="0"
            r="0.6"
          />
          <circle
            cx="54"
            cy="0"
            r="0.6"
          />
          <circle
            cx="63"
            cy="0"
            r="0.6"
          />
          <g
            transform="translate(0,9)">
            <circle
              cx="0"
              cy="0"
              r="0.6"
            />
            <circle
              cx="9"
              cy="0"
              r="0.6"
            />
            <circle
              cx="18"
              cy="0"
              r="0.6"
            />
            <circle
              cx="27"
              cy="0"
              r="0.6"
            />
            <circle
              cx="36"
              cy="0"
              r="0.6"
            />
            <circle
              cx="45"
              cy="0"
              r="0.6"
            />
            <circle
              cx="54"
              cy="0"
              r="0.6"
            />
            <circle
              cx="63"
              cy="0"
              r="0.6"
            />
          </g>
          <g
            transform="translate(0,18)">
            <circle
              cx="0"
              cy="0"
              r="0.6"
            />
            <circle
              cx="9"
              cy="0"
              r="0.6"
            />
            <circle
              cx="18"
              cy="0"
              r="0.6"
            />
            <circle
              cx="27"
              cy="0"
              r="0.6"
            />
            <circle
              cx="36"
              cy="0"
              r="0.6"
            />
            <circle
              cx="45"
              cy="0"
              r="0.6"
            />
            <circle
              cx="54"
              cy="0"
              r="0.6"
            />
            <circle
              cx="63"
              cy="0"
              r="0.6"
            />
          </g>
          <g
            transform="translate(0,27)">
            <circle
              cx="0"
              cy="0"
              r="0.6"
            />
            <circle
              cx="9"
              cy="0"
              r="0.6"
            />
            <circle
              cx="18"
              cy="0"
              r="0.6"
            />
            <circle
              cx="27"
              cy="0"
              r="0.6"
            />
            <circle
              cx="36"
              cy="0"
              r="0.6"
            />
            <circle
              cx="45"
              cy="0"
              r="0.6"
            />
            <circle
              cx="54"
              cy="0"
              r="0.6"
            />
            <circle
              cx="63"
              cy="0"
              r="0.6"
            />
          </g>
          <g
            transform="translate(0,36)">
            <circle
              cx="0"
              cy="0"
              r="0.6"
            />
            <circle
              cx="9"
              cy="0"
              r="0.6"
            />
            <circle
              cx="18"
              cy="0"
              r="0.6"
            />
            <circle
              cx="27"
              cy="0"
              r="0.6"
            />
            <circle
              cx="36"
              cy="0"
              r="0.6"
            />
            <circle
              cx="45"
              cy="0"
              r="0.6"
            />
            <circle
              cx="54"
              cy="0"
              r="0.6"
            />
            <circle
              cx="63"
              cy="0"
              r="0.6"
            />
          </g>
          <g
            transform="translate(0,45)">
            <circle
              cx="0"
              cy="0"
              r="0.6"
            />
            <circle
              cx="9"
              cy="0"
              r="0.6"
            />
            <circle
              cx="18"
              cy="0"
              r="0.6"
            />
            <circle
              cx="27"
              cy="0"
              r="0.6"
            />
            <circle
              cx="36"
              cy="0"
              r="0.6"
            />
            <circle
              cx="45"
              cy="0"
              r="0.6"
            />
            <circle
              cx="54"
              cy="0"
              r="0.6"
            />
            <circle
              cx="63"
              cy="0"
              r="0.6"
            />
          </g>
          <g
            transform="translate(0,54)">
            <circle
              cx="0"
              cy="0"
              r="0.6"
            />
            <circle
              cx="9"
              cy="0"
              r="0.6"
            />
            <circle
              cx="18"
              cy="0"
              r="0.6"
            />
            <circle
              cx="27"
              cy="0"
              r="0.6"
            />
            <circle
              cx="36"
              cy="0"
              r="0.6"
            />
            <circle
              cx="45"
              cy="0"
              r="0.6"
            />
            <circle
              cx="54"
              cy="0"
              r="0.6"
            />
            <circle
              cx="63"
              cy="0"
              r="0.6"
            />
          </g>
        </g>
      </g>
      <!-- start of diode symbols on 0.1 inch grid -->
      <g
        transform="translate(4,9)">
        <path d="M0,0  l2-2m1,1 -2-2h2v2m1-1 -2-2m1,1 2-2" />
        <path d="M0,9  l2-2m1,1 -2-2h2v2m1-1 -2-2m1,1 2-2" />
        <path d="M0,18 l2-2m1,1 -2-2h2v2m1-1 -2-2m1,1 2-2" />
        <path d="M0,27 l2-2m1,1 -2-2h2v2m1-1 -2-2m1,1 2-2" />
        <path d="M0,36 l2-2m1,1 -2-2h2v2m1-1 -2-2m1,1 2-2" />
        <path d="M0,45 l2-2m1,1 -2-2h2v2m1-1 -2-2m1,1 2-2" />
        <path d="M0,54 l2-2m1,1 -2-2h2v2m1-1 -2-2m1,1 2-2" />
        <path d="M0,63 l2-2m1,1 -2-2h2v2m1-1 -2-2m1,1 2-2" />
        <g
          transform="translate(9,0)">
          <path d="M0,0  l2-2m1,1 -2-2h2v2m1-1 -2-2m1,1 2-2" />
          <path d="M0,9  l2-2m1,1 -2-2h2v2m1-1 -2-2m1,1 2-2" />
          <path d="M0,18 l2-2m1,1 -2-2h2v2m1-1 -2-2m1,1 2-2" />
          <path d="M0,27 l2-2m1,1 -2-2h2v2m1-1 -2-2m1,1 2-2" />
          <path d="M0,36 l2-2m1,1 -2-2h2v2m1-1 -2-2m1,1 2-2" />
          <path d="M0,45 l2-2m1,1 -2-2h2v2m1-1 -2-2m1,1 2-2" />
          <path d="M0,54 l2-2m1,1 -2-2h2v2m1-1 -2-2m1,1 2-2" />
          <path d="M0,63 l2-2m1,1 -2-2h2v2m1-1 -2-2m1,1 2-2" />
        </g>
        <g
          transform="translate(18,0)">
          <path d="M0,0  l2-2m1,1 -2-2h2v2m1-1 -2-2m1,1 2-2" />
          <path d="M0,9  l2-2m1,1 -2-2h2v2m1-1 -2-2m1,1 2-2" />
          <path d="M0,18 l2-2m1,1 -2-2h2v2m1-1 -2-2m1,1 2-2" />
          <path d="M0,27 l2-2m1,1 -2-2h2v2m1-1 -2-2m1,1 2-2" />
          <path d="M0,36 l2-2m1,1 -2-2h2v2m1-1 -2-2m1,1 2-2" />
          <path d="M0,45 l2-2m1,1 -2-2h2v2m1-1 -2-2m1,1 2-2" />
          <path d="M0,54 l2-2m1,1 -2-2h2v2m1-1 -2-2m1,1 2-2" />
          <path d="M0,63 l2-2m1,1 -2-2h2v2m1-1 -2-2m1,1 2-2" />
        </g>
        <g
          transform="translate(27,0)">
          <path d="M0,0  l2-2m1,1 -2-2h2v2m1-1 -2-2m1,1 2-2" />
          <path d="M0,9  l2-2m1,1 -2-2h2v2m1-1 -2-2m1,1 2-2" />
          <path d="M0,18 l2-2m1,1 -2-2h2v2m1-1 -2-2m1,1 2-2" />
          <path d="M0,27 l2-2m1,1 -2-2h2v2m1-1 -2-2m1,1 2-2" />
          <path d="M0,36 l2-2m1,1 -2-2h2v2m1-1 -2-2m1,1 2-2" />
          <path d="M0,45 l2-2m1,1 -2-2h2v2m1-1 -2-2m1,1 2-2" />
          <path d="M0,54 l2-2m1,1 -2-2h2v2m1-1 -2-2m1,1 2-2" />
          <path d="M0,63 l2-2m1,1 -2-2h2v2m1-1 -2-2m1,1 2-2" />
        </g>
        <g
          transform="translate(36,0)">
          <path d="M0,0  l2-2m1,1 -2-2h2v2m1-1 -2-2m1,1 2-2" />
          <path d="M0,9  l2-2m1,1 -2-2h2v2m1-1 -2-2m1,1 2-2" />
          <path d="M0,18 l2-2m1,1 -2-2h2v2m1-1 -2-2m1,1 2-2" />
          <path d="M0,27 l2-2m1,1 -2-2h2v2m1-1 -2-2m1,1 2-2" />
          <path d="M0,36 l2-2m1,1 -2-2h2v2m1-1 -2-2m1,1 2-2" />
          <path d="M0,45 l2-2m1,1 -2-2h2v2m1-1 -2-2m1,1 2-2" />
          <path d="M0,54 l2-2m1,1 -2-2h2v2m1-1 -2-2m1,1 2-2" />
          <path d="M0,63 l2-2m1,1 -2-2h2v2m1-1 -2-2m1,1 2-2" />
        </g>
        <g
          transform="translate(45,0)">
          <path d="M0,0  l2-2m1,1 -2-2h2v2m1-1 -2-2m1,1 2-2" />
          <path d="M0,9  l2-2m1,1 -2-2h2v2m1-1 -2-2m1,1 2-2" />
          <path d="M0,18 l2-2m1,1 -2-2h2v2m1-1 -2-2m1,1 2-2" />
          <path d="M0,27 l2-2m1,1 -2-2h2v2m1-1 -2-2m1,1 2-2" />
          <path d="M0,36 l2-2m1,1 -2-2h2v2m1-1 -2-2m1,1 2-2" />
          <path d="M0,45 l2-2m1,1 -2-2h2v2m1-1 -2-2m1,1 2-2" />
          <path d="M0,54 l2-2m1,1 -2-2h2v2m1-1 -2-2m1,1 2-2" />
          <path d="M0,63 l2-2m1,1 -2-2h2v2m1-1 -2-2m1,1 2-2" />
        </g>
        <g
          transform="translate(54,0)">
          <path d="M0,0  l2-2m1,1 -2-2h2v2m1-1 -2-2m1,1 2-2" />
          <path d="M0,9  l2-2m1,1 -2-2h2v2m1-1 -2-2m1,1 2-2" />
          <path d="M0,18 l2-2m1,1 -2-2h2v2m1-1 -2-2m1,1 2-2" />
          <path d="M0,27 l2-2m1,1 -2-2h2v2m1-1 -2-2m1,1 2-2" />
          <path d="M0,36 l2-2m1,1 -2-2h2v2m1-1 -2-2m1,1 2-2" />
          <path d="M0,45 l2-2m1,1 -2-2h2v2m1-1 -2-2m1,1 2-2" />
          <path d="M0,54 l2-2m1,1 -2-2h2v2m1-1 -2-2m1,1 2-2" />
          <path d="M0,63 l2-2m1,1 -2-2h2v2m1-1 -2-2m1,1 2-2" />
        </g>
        <g
          transform="translate(63,0)">
          <path d="M0,0  l2-2m1,1 -2-2h2v2m1-1 -2-2m1,1 2-2" />
          <path d="M0,9  l2-2m1,1 -2-2h2v2m1-1 -2-2m1,1 2-2" />
          <path d="M0,18 l2-2m1,1 -2-2h2v2m1-1 -2-2m1,1 2-2" />
          <path d="M0,27 l2-2m1,1 -2-2h2v2m1-1 -2-2m1,1 2-2" />
          <path d="M0,36 l2-2m1,1 -2-2h2v2m1-1 -2-2m1,1 2-2" />
          <path d="M0,45 l2-2m1,1 -2-2h2v2m1-1 -2-2m1,1 2-2" />
          <path d="M0,54 l2-2m1,1 -2-2h2v2m1-1 -2-2m1,1 2-2" />
          <path d="M0,63 l2-2m1,1 -2-2h2v2m1-1 -2-2m1,1 2-2" />
        </g>
        <!-- end of connected diode symbols on 0.1 inch grid -->
      </g>
    </g>
    <!-- pin number labels -->
    <g
      font-size="2.5"
      stroke-width="0.2">
      <!-- left side pin number labels -->
      <g
        transform="translate(-1.6,9)">
        <!-- pin number label circles -->
        <g
          fill="none"
          stroke="#555555"
          >
          <line x1="0" x2="0" y1="-1" y2="1" stroke-width="0.01" stroke="red"/>
          <line x1="-10" x2="2" y1="0" y2="0" stroke-width="0.01" stroke="red"/>
          <circle cx="0" cy="0" r="1.5"/>
          <circle cx="0" cy="9" r="1.5"/>
          <circle cx="0" cy="18" r="1.5"/>
          <circle cx="0" cy="27" r="1.5"/>
          <circle cx="0" cy="36" r="1.5"/>
          <circle cx="0" cy="45" r="1.5"/>
          <circle cx="0" cy="54" r="1.5"/>
          <circle cx="0" cy="63" r="1.5"/>
        </g>
        <!-- left edge pin number labels -->
        <g
          stroke="none"
          fill="#555555"
          transform="translate(-0.18,0.94)">
          <text y="-7" x="-2.2" text-anchor="start">PIN</text>
          <text y="-5" x="5.5" text-anchor="end">NO</text>
          <text y="0">9</text>
          <text y="9">14</text>
          <text y="18">8</text>
          <text y="27">12</text>
          <text y="36">1</text>
          <text y="45">7</text>
          <text y="54">2</text>
          <text y="63">5</text>
          <!-- row number labels -->
          <g
            fill="black"
            transform="translate(-4.4,0)">
            <!-- left edge pin number labels -->
            <text x="-2.5" y="-3" text-anchor="start" font-size="3">ROW</text>
            <text y="0">1</text>
            <text y="9">2</text>
            <text y="18">3</text>
            <text y="27">4</text>
            <text y="36">5</text>
            <text y="45">6</text>
            <text y="54">7</text>
            <text y="63">8</text>
          </g>
        </g>
      </g>
      <!-- top pin number labels -->
      <g
        transform="translate(9,-1.6)">
        <!-- pin number label circles -->
        <g
          fill="none"
          stroke="#555555"
          >
          <circle cx="0" cy="0" r="1.5"/>
          <circle cx="9" cy="0" r="1.5"/>
          <circle cx="18" cy="0" r="1.5"/>
          <circle cx="27" cy="0" r="1.5"/>
          <circle cx="36" cy="0" r="1.5"/>
          <circle cx="45" cy="0" r="1.5"/>
          <circle cx="54" cy="0" r="1.5"/>
          <circle cx="63" cy="0" r="1.5"/>
        </g>
        <!-- top edge pin number labels -->
        <g
          stroke="none"
          fill="#555555"
          transform="translate(-0.18,0.94)">
          <text y="0" x="-11" text-anchor="start">PIN NO</text>
          <text x="0">13</text>
          <text x="9">3</text>
          <text x="18">4</text>
          <text x="27">10</text>
          <text x="36">6</text>
          <text x="45">11</text>
          <text x="54">15</text>
          <text x="63">16</text>
          <!-- col number labels -->
          <g
            fill="black"
            transform="translate(0,-4.5)">
            <text x="-7" y="0.4" text-anchor="start" font-size="3">COL</text>
            <text x="0">1</text>
            <text x="9">2</text>
            <text x="18">3</text>
            <text x="27">4</text>
            <text x="36">5</text>
            <text x="45">6</text>
            <text x="54">7</text>
            <text x="63">8</text>
          </g>
        </g>
      </g>
    </g>
  </g>
</svg>
