<?xml version='1.0' encoding='UTF-8' standalone='no'?>
<!-- Created with Fritzing (http://www.fritzing.org/) -->
<svg xmlns:svg='http://www.w3.org/2000/svg' xmlns='http://www.w3.org/2000/svg' version='1.2' baseProfile='tiny' x='0in' y='0in' width='2.95069in' height='2.85681in' viewBox='0 0 212.449 205.69' >
<path stroke='#8c8c8c' stroke-width='2.0952' stroke-linecap='round' stroke-linejoin='round' fill='none' d='M32.4,95.1376L32.4,94.09' />
<path stroke='#8c8c8c' stroke-width='2.0952' stroke-linecap='round' stroke-linejoin='round' fill='none' d='M32.4,121.847L32.4,122.895' />
<g partID='857163160'><g transform='translate(28.7676,123.943)' ><g transform='matrix(0,-1,1,0,0,0)'  ><g xmlns="http://www.w3.org/2000/svg" id="breadboard">
 <rect xmlns="http://www.w3.org/2000/svg" y="2.5848" x="0.36" fill="none" id="connector0pin" width="0.72" height="0.72"/>
 <rect xmlns="http://www.w3.org/2000/svg" y="2.5848" x="29.8202" fill="none" id="connector1pin" width="0.72" height="0.72"/>
 <line xmlns="http://www.w3.org/2000/svg" fill="none" y1="3.6324" id="connector0leg" y2="3.6324" stroke-width="2.0952" stroke-linecap="round" x1="1.0476" stroke="#8C8C8C" x2="2.0952"/>
 <line xmlns="http://www.w3.org/2000/svg" fill="none" y1="3.6324" id="connector1leg" y2="3.6324" stroke-width="2.0952" stroke-linecap="round" x1="29.8526" stroke="#8C8C8C" x2="28.805"/>
 <path xmlns="http://www.w3.org/2000/svg" d="M1.0476,3.6324l28.3666,0" fill="none" stroke-width="2.0952" stroke="#8C8C8C"/>
 <path xmlns="http://www.w3.org/2000/svg" d="M10.2478,0.49536c-0.36,-0.1656,-0.9792,-0.2952,-1.3752,-0.2952l-1.9872,0c-0.396,0,-0.72,0.324,-0.72,0.72l0,5.35608c0,0.39672,0.324,0.72,0.72,0.72l1.9872,0c0.396,0,1.0152,-0.13608,1.3752,-0.2952l0.072,-0.03528c0.36,-0.1656,0.9792,-0.2952,1.3752,-0.2952l7.1856,0c0.39672,0,1.01448,0.13608,1.37448,0.2952l0.07272,0.03528c0.36,0.1656,0.97776,0.2952,1.3752,0.2952l1.9872,0c0.39744,0,0.72,-0.32328,0.72,-0.72L24.4102,0.92016c0,-0.396,-0.32256,-0.72,-0.72,-0.72l-1.9872,0c-0.39744,0,-1.0152,0.1368,-1.3752,0.2952l-0.07272,0.036c-0.36,0.1656,-0.97776,0.2952,-1.37448,0.2952l-7.1856,0c-0.396,0,-1.0152,-0.1368,-1.3752,-0.2952L10.2478,0.49536z" fill="#D9B477" id="body"/>
 <rect xmlns="http://www.w3.org/2000/svg" y="0.19368" x="22.019" fill="#ad9f4e" id="gold_band" width="0.70272" height="6.79536"/>
 <rect xmlns="http://www.w3.org/2000/svg" y="0.82656" x="16.1726" fill="#ff4d00" id="band_rd_multiplier" width="1.8504" height="5.5368"/>
 <rect xmlns="http://www.w3.org/2000/svg" y="0.82656" x="12.4726" fill="#000000" id="band_2_nd" width="1.8504" height="5.5368"/>
 <path xmlns="http://www.w3.org/2000/svg" d="M10.6286,0.63936c-0.1152,-0.036,-0.2232,-0.072,-0.3096,-0.1152l-0.072,-0.036c-0.36,-0.16488,-0.9792,-0.2952,-1.3752,-0.2952l-0.0864,0l0,6.79608l0.0864,0c0.396,0,1.0152,-0.13608,1.3752,-0.2952l0.072,-0.03528c0.0864,-0.04464,0.1944,-0.07992,0.3096,-0.1152L10.6286,0.63936z" fill="#8a3d06" id="band_1_st"/>
 <path xmlns="http://www.w3.org/2000/svg" opacity="0.3" d="M23.711,4.0896L23.711,4.0896c0,0.37944,-0.13032,0.69912,-0.2952,0.69912l-1.9224,0c-0.38016,0,-0.97776,-0.05616,-1.33272,-0.1224L20.088,4.65048c-0.34488,-0.0648,-0.94896,-0.1224,-1.33344,-0.1224L11.808,4.52808c-0.3816,0,-0.9792,0.0576,-1.332,0.1224l-0.072,0.01512c-0.3456,0.06552,-0.9432,0.1224,-1.332,0.1224l-0.3168,0l-1.0008,0l-0.3096,0c-0.3816,0,-0.6984,0.29376,-0.6984,0.64512l0,0.24696L6.7464,5.8392l0,0.1728c0,0.36,0.3168,0.64512,0.6984,0.64512l1.62,0c0.3816,0,0.9792,-0.1224,1.332,-0.26712l0.072,-0.02808c0.3456,-0.14112,0.9504,-0.26496,1.332,-0.26496l6.94656,0c0.37944,0,0.97704,0.12384,1.33416,0.26568l0.07416,0.02808c0.34488,0.14472,0.94464,0.26712,1.33344,0.26712l2.2248,0c0.38088,0,0.69912,-0.2952,0.69912,-0.64512L24.413,5.472L24.413,4.49928L24.413,2.65536C24.1358,2.76336,23.711,3.06576,23.711,4.0896z" id="Shadow"/>
 <rect xmlns="http://www.w3.org/2000/svg" y="3.48336" opacity="0.4" x="22.019" id="ShadowExtra" width="0.70272" height="3.15288"/>
 <path xmlns="http://www.w3.org/2000/svg" opacity="0.25" d="M19.751,1.08576c0.22968,0,0.49104,-0.1008,0.6624,-0.1728c0.2016,-0.0792,0.57672,-0.144,0.96624,-0.144l1.46088,0c0.22464,0,0.22464,0.2448,0.22464,0.3744c0,0.1296,-0.01512,0.3816,-0.22464,0.3816l-3.06,0c-0.10728,0,-0.2304,-0.1152,-0.2304,-0.22392C19.5566,1.21536,19.6286,1.08576,19.751,1.08576z" fill="#FFFFFF" id="ReflexRight"/>
 <circle xmlns="http://www.w3.org/2000/svg" opacity="0.35" fill="#FFFFFF" cy="1.13616" id="ReflexLeft" cx="6.99984" r="0.432"/>
 <rect xmlns="http://www.w3.org/2000/svg" y="0.42336" opacity="0.5" x="22.019" fill="#FFFF33" id="Reflex_gold" width="0.70272" height="1.62"/>
 <rect xmlns="http://www.w3.org/2000/svg" y="0.78336" opacity="0.5" x="22.019" fill="#FFFFFF" id="Reflex_extra" width="0.70272" height="0.7488"/>
</g>
</g></g></g><path stroke='#8c8c8c' stroke-width='2.0952' stroke-linecap='round' stroke-linejoin='round' fill='none' d='M104.4,96.6424L104.4,97.69' />
<path stroke='#8c8c8c' stroke-width='2.0952' stroke-linecap='round' stroke-linejoin='round' fill='none' d='M104.4,69.9326L104.4,68.885' />
<g partID='857163190'><g transform='translate(108.032,67.8374)' ><g transform='matrix(0,1,-1,0,0,0)'  ><g xmlns="http://www.w3.org/2000/svg" id="breadboard">
 <rect xmlns="http://www.w3.org/2000/svg" y="2.5848" x="0.36" fill="none" id="connector0pin" width="0.72" height="0.72"/>
 <rect xmlns="http://www.w3.org/2000/svg" y="2.5848" x="29.8202" fill="none" id="connector1pin" width="0.72" height="0.72"/>
 <line xmlns="http://www.w3.org/2000/svg" fill="none" y1="3.6324" id="connector0leg" y2="3.6324" stroke-width="2.0952" stroke-linecap="round" x1="1.0476" stroke="#8C8C8C" x2="2.0952"/>
 <line xmlns="http://www.w3.org/2000/svg" fill="none" y1="3.6324" id="connector1leg" y2="3.6324" stroke-width="2.0952" stroke-linecap="round" x1="29.8526" stroke="#8C8C8C" x2="28.805"/>
 <path xmlns="http://www.w3.org/2000/svg" d="M1.0476,3.6324l28.3666,0" fill="none" stroke-width="2.0952" stroke="#8C8C8C"/>
 <path xmlns="http://www.w3.org/2000/svg" d="M10.2478,0.49536c-0.36,-0.1656,-0.9792,-0.2952,-1.3752,-0.2952l-1.9872,0c-0.396,0,-0.72,0.324,-0.72,0.72l0,5.35608c0,0.39672,0.324,0.72,0.72,0.72l1.9872,0c0.396,0,1.0152,-0.13608,1.3752,-0.2952l0.072,-0.03528c0.36,-0.1656,0.9792,-0.2952,1.3752,-0.2952l7.1856,0c0.39672,0,1.01448,0.13608,1.37448,0.2952l0.07272,0.03528c0.36,0.1656,0.97776,0.2952,1.3752,0.2952l1.9872,0c0.39744,0,0.72,-0.32328,0.72,-0.72L24.4102,0.92016c0,-0.396,-0.32256,-0.72,-0.72,-0.72l-1.9872,0c-0.39744,0,-1.0152,0.1368,-1.3752,0.2952l-0.07272,0.036c-0.36,0.1656,-0.97776,0.2952,-1.37448,0.2952l-7.1856,0c-0.396,0,-1.0152,-0.1368,-1.3752,-0.2952L10.2478,0.49536z" fill="#D9B477" id="body"/>
 <rect xmlns="http://www.w3.org/2000/svg" y="0.19368" x="22.019" fill="#ad9f4e" id="gold_band" width="0.70272" height="6.79536"/>
 <rect xmlns="http://www.w3.org/2000/svg" y="0.82656" x="16.1726" fill="#ff4d00" id="band_rd_multiplier" width="1.8504" height="5.5368"/>
 <rect xmlns="http://www.w3.org/2000/svg" y="0.82656" x="12.4726" fill="#ff4d00" id="band_2_nd" width="1.8504" height="5.5368"/>
 <path xmlns="http://www.w3.org/2000/svg" d="M10.6286,0.63936c-0.1152,-0.036,-0.2232,-0.072,-0.3096,-0.1152l-0.072,-0.036c-0.36,-0.16488,-0.9792,-0.2952,-1.3752,-0.2952l-0.0864,0l0,6.79608l0.0864,0c0.396,0,1.0152,-0.13608,1.3752,-0.2952l0.072,-0.03528c0.0864,-0.04464,0.1944,-0.07992,0.3096,-0.1152L10.6286,0.63936z" fill="#ff4d00" id="band_1_st"/>
 <path xmlns="http://www.w3.org/2000/svg" opacity="0.3" d="M23.711,4.0896L23.711,4.0896c0,0.37944,-0.13032,0.69912,-0.2952,0.69912l-1.9224,0c-0.38016,0,-0.97776,-0.05616,-1.33272,-0.1224L20.088,4.65048c-0.34488,-0.0648,-0.94896,-0.1224,-1.33344,-0.1224L11.808,4.52808c-0.3816,0,-0.9792,0.0576,-1.332,0.1224l-0.072,0.01512c-0.3456,0.06552,-0.9432,0.1224,-1.332,0.1224l-0.3168,0l-1.0008,0l-0.3096,0c-0.3816,0,-0.6984,0.29376,-0.6984,0.64512l0,0.24696L6.7464,5.8392l0,0.1728c0,0.36,0.3168,0.64512,0.6984,0.64512l1.62,0c0.3816,0,0.9792,-0.1224,1.332,-0.26712l0.072,-0.02808c0.3456,-0.14112,0.9504,-0.26496,1.332,-0.26496l6.94656,0c0.37944,0,0.97704,0.12384,1.33416,0.26568l0.07416,0.02808c0.34488,0.14472,0.94464,0.26712,1.33344,0.26712l2.2248,0c0.38088,0,0.69912,-0.2952,0.69912,-0.64512L24.413,5.472L24.413,4.49928L24.413,2.65536C24.1358,2.76336,23.711,3.06576,23.711,4.0896z" id="Shadow"/>
 <rect xmlns="http://www.w3.org/2000/svg" y="3.48336" opacity="0.4" x="22.019" id="ShadowExtra" width="0.70272" height="3.15288"/>
 <path xmlns="http://www.w3.org/2000/svg" opacity="0.25" d="M19.751,1.08576c0.22968,0,0.49104,-0.1008,0.6624,-0.1728c0.2016,-0.0792,0.57672,-0.144,0.96624,-0.144l1.46088,0c0.22464,0,0.22464,0.2448,0.22464,0.3744c0,0.1296,-0.01512,0.3816,-0.22464,0.3816l-3.06,0c-0.10728,0,-0.2304,-0.1152,-0.2304,-0.22392C19.5566,1.21536,19.6286,1.08576,19.751,1.08576z" fill="#FFFFFF" id="ReflexRight"/>
 <circle xmlns="http://www.w3.org/2000/svg" opacity="0.35" fill="#FFFFFF" cy="1.13616" id="ReflexLeft" cx="6.99984" r="0.432"/>
 <rect xmlns="http://www.w3.org/2000/svg" y="0.42336" opacity="0.5" x="22.019" fill="#FFFF33" id="Reflex_gold" width="0.70272" height="1.62"/>
 <rect xmlns="http://www.w3.org/2000/svg" y="0.78336" opacity="0.5" x="22.019" fill="#FFFFFF" id="Reflex_extra" width="0.70272" height="0.7488"/>
</g>
</g></g></g><path stroke='#8c8c8c' stroke-width='2.0952' stroke-linecap='round' stroke-linejoin='round' fill='none' d='M208.8,96.6424L208.8,97.69' />
<path stroke='#8c8c8c' stroke-width='2.0952' stroke-linecap='round' stroke-linejoin='round' fill='none' d='M208.8,69.9326L208.8,68.885' />
<g partID='857163220'><g transform='translate(212.432,67.8374)' ><g transform='matrix(0,1,-1,0,0,0)'  ><g xmlns="http://www.w3.org/2000/svg" id="breadboard">
 <rect xmlns="http://www.w3.org/2000/svg" y="2.5848" x="0.36" fill="none" id="connector0pin" width="0.72" height="0.72"/>
 <rect xmlns="http://www.w3.org/2000/svg" y="2.5848" x="29.8202" fill="none" id="connector1pin" width="0.72" height="0.72"/>
 <line xmlns="http://www.w3.org/2000/svg" fill="none" y1="3.6324" id="connector0leg" y2="3.6324" stroke-width="2.0952" stroke-linecap="round" x1="1.0476" stroke="#8C8C8C" x2="2.0952"/>
 <line xmlns="http://www.w3.org/2000/svg" fill="none" y1="3.6324" id="connector1leg" y2="3.6324" stroke-width="2.0952" stroke-linecap="round" x1="29.8526" stroke="#8C8C8C" x2="28.805"/>
 <path xmlns="http://www.w3.org/2000/svg" d="M1.0476,3.6324l28.3666,0" fill="none" stroke-width="2.0952" stroke="#8C8C8C"/>
 <path xmlns="http://www.w3.org/2000/svg" d="M10.2478,0.49536c-0.36,-0.1656,-0.9792,-0.2952,-1.3752,-0.2952l-1.9872,0c-0.396,0,-0.72,0.324,-0.72,0.72l0,5.35608c0,0.39672,0.324,0.72,0.72,0.72l1.9872,0c0.396,0,1.0152,-0.13608,1.3752,-0.2952l0.072,-0.03528c0.36,-0.1656,0.9792,-0.2952,1.3752,-0.2952l7.1856,0c0.39672,0,1.01448,0.13608,1.37448,0.2952l0.07272,0.03528c0.36,0.1656,0.97776,0.2952,1.3752,0.2952l1.9872,0c0.39744,0,0.72,-0.32328,0.72,-0.72L24.4102,0.92016c0,-0.396,-0.32256,-0.72,-0.72,-0.72l-1.9872,0c-0.39744,0,-1.0152,0.1368,-1.3752,0.2952l-0.07272,0.036c-0.36,0.1656,-0.97776,0.2952,-1.37448,0.2952l-7.1856,0c-0.396,0,-1.0152,-0.1368,-1.3752,-0.2952L10.2478,0.49536z" fill="#D9B477" id="body"/>
 <rect xmlns="http://www.w3.org/2000/svg" y="0.19368" x="22.019" fill="#ad9f4e" id="gold_band" width="0.70272" height="6.79536"/>
 <rect xmlns="http://www.w3.org/2000/svg" y="0.82656" x="16.1726" fill="#ff4d00" id="band_rd_multiplier" width="1.8504" height="5.5368"/>
 <rect xmlns="http://www.w3.org/2000/svg" y="0.82656" x="12.4726" fill="#ff4d00" id="band_2_nd" width="1.8504" height="5.5368"/>
 <path xmlns="http://www.w3.org/2000/svg" d="M10.6286,0.63936c-0.1152,-0.036,-0.2232,-0.072,-0.3096,-0.1152l-0.072,-0.036c-0.36,-0.16488,-0.9792,-0.2952,-1.3752,-0.2952l-0.0864,0l0,6.79608l0.0864,0c0.396,0,1.0152,-0.13608,1.3752,-0.2952l0.072,-0.03528c0.0864,-0.04464,0.1944,-0.07992,0.3096,-0.1152L10.6286,0.63936z" fill="#ff4d00" id="band_1_st"/>
 <path xmlns="http://www.w3.org/2000/svg" opacity="0.3" d="M23.711,4.0896L23.711,4.0896c0,0.37944,-0.13032,0.69912,-0.2952,0.69912l-1.9224,0c-0.38016,0,-0.97776,-0.05616,-1.33272,-0.1224L20.088,4.65048c-0.34488,-0.0648,-0.94896,-0.1224,-1.33344,-0.1224L11.808,4.52808c-0.3816,0,-0.9792,0.0576,-1.332,0.1224l-0.072,0.01512c-0.3456,0.06552,-0.9432,0.1224,-1.332,0.1224l-0.3168,0l-1.0008,0l-0.3096,0c-0.3816,0,-0.6984,0.29376,-0.6984,0.64512l0,0.24696L6.7464,5.8392l0,0.1728c0,0.36,0.3168,0.64512,0.6984,0.64512l1.62,0c0.3816,0,0.9792,-0.1224,1.332,-0.26712l0.072,-0.02808c0.3456,-0.14112,0.9504,-0.26496,1.332,-0.26496l6.94656,0c0.37944,0,0.97704,0.12384,1.33416,0.26568l0.07416,0.02808c0.34488,0.14472,0.94464,0.26712,1.33344,0.26712l2.2248,0c0.38088,0,0.69912,-0.2952,0.69912,-0.64512L24.413,5.472L24.413,4.49928L24.413,2.65536C24.1358,2.76336,23.711,3.06576,23.711,4.0896z" id="Shadow"/>
 <rect xmlns="http://www.w3.org/2000/svg" y="3.48336" opacity="0.4" x="22.019" id="ShadowExtra" width="0.70272" height="3.15288"/>
 <path xmlns="http://www.w3.org/2000/svg" opacity="0.25" d="M19.751,1.08576c0.22968,0,0.49104,-0.1008,0.6624,-0.1728c0.2016,-0.0792,0.57672,-0.144,0.96624,-0.144l1.46088,0c0.22464,0,0.22464,0.2448,0.22464,0.3744c0,0.1296,-0.01512,0.3816,-0.22464,0.3816l-3.06,0c-0.10728,0,-0.2304,-0.1152,-0.2304,-0.22392C19.5566,1.21536,19.6286,1.08576,19.751,1.08576z" fill="#FFFFFF" id="ReflexRight"/>
 <circle xmlns="http://www.w3.org/2000/svg" opacity="0.35" fill="#FFFFFF" cy="1.13616" id="ReflexLeft" cx="6.99984" r="0.432"/>
 <rect xmlns="http://www.w3.org/2000/svg" y="0.42336" opacity="0.5" x="22.019" fill="#FFFF33" id="Reflex_gold" width="0.70272" height="1.62"/>
 <rect xmlns="http://www.w3.org/2000/svg" y="0.78336" opacity="0.5" x="22.019" fill="#FFFFFF" id="Reflex_extra" width="0.70272" height="0.7488"/>
</g>
</g></g></g><path stroke='#8c8c8c' stroke-width='2.16' stroke-linecap='round' stroke-linejoin='round' fill='none' d='M165.6,18.49L165.6,32.89' />
<path stroke='#8c8c8c' stroke-width='2.16' stroke-linecap='round' stroke-linejoin='round' fill='none' d='M158.383,18.49L158.383,32.89' />
<g partID='857163250'><g transform='translate(155.208,0.614563)' ><g xmlns="http://www.w3.org/2000/svg" id="breadboard">
 <rect xmlns="http://www.w3.org/2000/svg" y="10.6747" x="2.10168" fill="none" id="connector0pin" width="2.16" height="0.72"/>
 <rect xmlns="http://www.w3.org/2000/svg" y="10.6747" x="9.30168" fill="none" id="connector1pin" width="2.16" height="0.72"/>
 <g xmlns="http://www.w3.org/2000/svg" fill="none" y1="24.827" id="connector0leg" y2="44.827" stroke-width="2.16" stroke-linecap="round" x1="4.41" stroke="#8C8C8C" x2="4.41"/>
 <g xmlns="http://www.w3.org/2000/svg" fill="none" y1="24.827" id="connector1leg" y2="44.827" stroke-width="2.16" stroke-linecap="round" x1="14.433" stroke="#8C8C8C" x2="14.433"/>
 <g xmlns="http://www.w3.org/2000/svg">
  <path xmlns="http://www.w3.org/2000/svg" d="M2.8944,13.446C2.37024,12.9334,2.1492,12.3444,2.16,12.0456c0.01584,-0.954,0.144,-1.71432,0.97488,-2.56536c1.08,-1.08,2.06928,-2.07,2.06928,-2.07L3.67704,5.88312c-0.00288,0.00144,-0.99072,0.99,-2.07072,2.06928c-1.33128,1.30824,-1.62216,2.88864,-1.6056,4.09392c0.01296,1.08288,0.53784,2.09088,1.36584,2.92752c0.0792,0.05184,0.3528,0.558,0.49392,1.1448c0.15552,0.58968,0.24264,1.27728,0.2412,1.7568l0,0l2.16,0l0,0c-0.00144,-0.7092,-0.10872,-1.5228,-0.31248,-2.30472C3.7296,14.7881,3.47616,14.0544,2.8944,13.446z" fill="#8C8C8C"/>
  <path xmlns="http://www.w3.org/2000/svg" d="M11.9542,7.95096c-1.08072,-1.08,-2.06928,-2.07072,-2.06928,-2.07072l-1.52784,1.52856c0.00144,0.00144,0.99,0.99,2.06928,2.06928c0.82872,0.85248,0.95904,1.6128,0.97488,2.5668c0.01152,0.29952,-0.21024,0.88704,-0.7344,1.39968c-0.5832,0.60984,-0.8352,1.3428,-1.0548,2.124c-0.20304,0.78048,-0.31104,1.5948,-0.31392,2.30472l0.0036,0l0,0l2.16,0l0,0l-0.00072,0c-0.00144,-0.4788,0.0864,-1.16712,0.24192,-1.7568c0.1404,-0.58536,0.41184,-1.09224,0.4932,-1.14408c0.82872,-0.8388,1.35432,-1.84752,1.36512,-2.92752C13.5778,10.8403,13.2854,9.25992,11.9542,7.95096z" fill="#8C8C8C"/>
  <path xmlns="http://www.w3.org/2000/svg" d="M12.7663,8.62992c-0.50328,-0.61632,-1.18512,-1.47528,-1.18512,-2.82456L11.5812,1.71C11.5812,0.50976,10.9541,0,10.0663,0c-1.24488,0,-1.62,0.43488,-2.97,0.43488L6.46632,0.43488C5.11632,0.43488,4.7412,0,3.49632,0C2.60856,0,1.98144,0.50976,1.98144,1.71l0,4.09536c0,1.34928,-0.72072,2.11608,-1.18512,2.7648c-0.40464,0.56232,-0.72,1.3752,-0.72,1.78056c1.00512,-0.43488,1.8,-0.18,2.38464,0.40464c0.81,-1.21536,2.25,-2.32992,3.51,-2.32992l1.62,0c1.26,0,2.7,1.11528,3.51,2.32992c0.58464,-0.58464,1.3788,-0.83952,2.38464,-0.40464C13.4863,9.94536,13.3294,9.31968,12.7663,8.62992z" fill="#165696"/>
  <path xmlns="http://www.w3.org/2000/svg" opacity="0.16" d="M13.4863,10.35c0,-0.40464,-0.15984,-1.03104,-0.72,-1.7208c-0.50328,-0.61632,-1.18512,-1.47528,-1.18512,-2.82456L11.5812,1.71c0,-0.62712,-0.17352,-1.06128,-0.4644,-1.33488c-0.00216,0.02016,-0.01512,0.04176,-0.01512,0.0648c0,0.20232,0.15912,0.38232,0.20232,0.60768c0.05328,0.26856,-0.06768,0.72,-0.27,1.10232c-0.20232,0.38232,-0.72,1.19232,-0.72,1.91232c0,0.83016,0.15768,1.59768,0.38232,2.13768c0.21384,0.51264,0.60768,1.17,1.14768,1.68768c0.54,0.51768,0.72,1.14768,0.76464,1.39536c0.04464,0.24768,-0.11016,0.42768,-0.42768,0.58464c-0.31536,0.15696,-0.8784,0.11232,-1.12464,0.02232c-0.24912,-0.09,-0.81,-0.58464,-1.05984,-0.9c-0.24768,-0.31536,-0.51768,-0.85536,-0.9,-1.30464c-0.36,-0.42336,-1.17,-1.01016,-2.25,-1.01016S4.7088,7.41528,4.1688,7.95528s-0.92232,1.23984,-1.12464,1.44c-0.20232,0.20232,-0.47232,0.42984,-0.74232,0.47232c-0.27,0.04464,-0.54,-0.09,-0.76464,-0.09c-0.18576,0,-0.3564,0.10296,-0.5508,0.36216c0.58752,-0.01656,1.08,0.22104,1.47456,0.6156c0.81,-1.21536,2.25,-2.32992,3.51,-2.32992l1.62,0c1.26,0,2.7,1.11528,3.51,2.32992C11.6863,10.17,12.4805,9.91584,13.4863,10.35z"/>
  <path xmlns="http://www.w3.org/2000/svg" opacity="0.3" d="M4.05216,1.44432c0,0.37008,-0.53136,0.75384,-0.75456,0.75384c-0.40464,0,-0.64656,-0.41256,-0.64656,-0.82152c0,-0.40464,0.3276,-0.73512,0.73512,-0.73512C3.7908,0.64224,4.05216,1.03896,4.05216,1.44432z" fill="#FFFFFF"/>
  <path xmlns="http://www.w3.org/2000/svg" opacity="0.2" d="M0.91728,9.31968c0,-0.19512,0.05976,-0.43488,0.19512,-0.61488c0.18576,-0.24768,0.5904,-0.64512,0.77976,-0.91512c0.21024,-0.29952,0.28512,-0.56952,0.33048,-0.82512C2.2608,6.7572,2.41128,6.51456,2.56752,6.51456s0.30024,0.24984,0.30024,0.49536c0,0.24552,-0.072,0.55512,-0.25488,0.85536c-0.19512,0.31536,-0.52488,0.59976,-0.76464,0.79488c-0.24336,0.19656,-0.40608,0.43416,-0.46584,0.58464c-0.03888,0.10008,-0.13536,0.23976,-0.28512,0.23976C0.93384,9.48456,0.91728,9.4068,0.91728,9.31968z" fill="#FFFFFF"/>
  <path xmlns="http://www.w3.org/2000/svg" opacity="0.2" d="M8.71704,0.90504c0,-0.31968,0.31536,-0.46512,0.56952,-0.49536c0.38952,-0.04464,0.69048,-0.09,0.96048,-0.09s0.47952,0.05256,0.47952,0.21024c0,0.15768,-0.25776,0.19512,-0.49536,0.19512s-0.62928,0.08208,-0.80928,0.14976c-0.18,0.06984,-0.25488,0.30024,-0.43488,0.30024C8.82216,1.17504,8.71704,1.0548,8.71704,0.90504z" fill="#FFFFFF"/>
 </g>
</g>
</g></g><g partID='857163690'><g transform='translate(0,205.69)' ><g transform='matrix(0,-1,1,0,0,0)'  ><g  id="breadboard">
 <g  id="icon">
  <path  d="M0,0l0,93.6l50.4,0L50.4,0L0,0M41.76,3.6c0,-0.795,0.646,-1.439,1.44,-1.439s1.44,0.645,1.44,1.439c0,0.796,-0.646,1.44,-1.44,1.44S41.76,4.396,41.76,3.6zM34.56,3.6c0,-0.795,0.645,-1.439,1.439,-1.439c0.796,0,1.44,0.645,1.44,1.439c0,0.796,-0.645,1.44,-1.44,1.44C35.205,5.04,34.56,4.396,34.56,3.6zM27.36,3.6c0,-0.795,0.645,-1.439,1.439,-1.439c0.796,0,1.44,0.645,1.44,1.439c0,0.796,-0.645,1.44,-1.44,1.44C28.005,5.04,27.36,4.396,27.36,3.6zM20.16,3.6c0,-0.795,0.645,-1.439,1.44,-1.439c0.795,0,1.439,0.645,1.439,1.439c0,0.796,-0.645,1.44,-1.439,1.44C20.804,5.04,20.16,4.396,20.16,3.6zM12.96,3.6c0,-0.795,0.645,-1.439,1.44,-1.439c0.795,0,1.439,0.645,1.439,1.439c0,0.796,-0.645,1.44,-1.439,1.44C13.604,5.04,12.96,4.396,12.96,3.6zM5.76,3.6c0,-0.795,0.646,-1.439,1.44,-1.439S8.64,2.805,8.64,3.6c0,0.796,-0.646,1.44,-1.44,1.44S5.76,4.396,5.76,3.6zM37.08,42.84c0,-0.795,0.645,-1.44,1.44,-1.44c0.795,0,1.439,0.646,1.439,1.44s-0.645,1.44,-1.439,1.44C37.724,44.281,37.08,43.635,37.08,42.84zM37.08,35.64c0,-0.795,0.645,-1.439,1.44,-1.439c0.795,0,1.439,0.645,1.439,1.439c0,0.796,-0.645,1.44,-1.439,1.44C37.724,37.08,37.08,36.436,37.08,35.64zM37.08,72.36c0,-0.795,0.645,-1.439,1.44,-1.439c0.795,0,1.439,0.645,1.439,1.439c0,0.796,-0.645,1.44,-1.439,1.44C37.724,73.8,37.08,73.156,37.08,72.36zM37.08,65.16c0,-0.796,0.645,-1.44,1.44,-1.44c0.795,0,1.439,0.645,1.439,1.44c0,0.795,-0.645,1.439,-1.439,1.439C37.724,66.6,37.08,65.955,37.08,65.16zM45.36,10.8c0,-0.795,0.645,-1.44,1.439,-1.44c0.796,0,1.44,0.646,1.44,1.44s-0.645,1.44,-1.44,1.44C46.005,12.24,45.36,11.595,45.36,10.8zM45.36,18c0,-0.796,0.645,-1.44,1.439,-1.44c0.796,0,1.44,0.645,1.44,1.44c0,0.795,-0.645,1.439,-1.44,1.439C46.005,19.44,45.36,18.795,45.36,18zM45.36,25.2c0,-0.796,0.645,-1.44,1.439,-1.44c0.796,0,1.44,0.645,1.44,1.44c0,0.795,-0.645,1.439,-1.44,1.439C46.005,26.64,45.36,25.995,45.36,25.2zM45.36,32.4c0,-0.795,0.645,-1.439,1.439,-1.439c0.796,0,1.44,0.645,1.44,1.439c0,0.796,-0.645,1.44,-1.44,1.44C46.005,33.84,45.36,33.196,45.36,32.4zM45.36,39.6c0,-0.795,0.645,-1.439,1.439,-1.439c0.796,0,1.44,0.645,1.44,1.439c0,0.796,-0.645,1.44,-1.44,1.44C46.005,41.04,45.36,40.396,45.36,39.6zM45.36,46.8c0,-0.795,0.645,-1.44,1.439,-1.44c0.796,0,1.44,0.646,1.44,1.44s-0.645,1.44,-1.44,1.44C46.005,48.24,45.36,47.595,45.36,46.8zM45.36,54c0,-0.796,0.645,-1.44,1.439,-1.44c0.796,0,1.44,0.645,1.44,1.44c0,0.795,-0.645,1.439,-1.44,1.439C46.005,55.44,45.36,54.795,45.36,54zM45.36,61.2c0,-0.796,0.645,-1.44,1.439,-1.44c0.796,0,1.44,0.645,1.44,1.44l0,0c0,0.795,-0.645,1.439,-1.44,1.439C46.005,62.64,45.36,61.995,45.36,61.2zM45.36,68.4c0,-0.795,0.645,-1.439,1.439,-1.439c0.796,0,1.44,0.645,1.44,1.439l0,0c0,0.796,-0.645,1.44,-1.44,1.44C46.005,69.84,45.36,69.196,45.36,68.4zM45.36,75.6c0,-0.795,0.645,-1.439,1.439,-1.439c0.796,0,1.44,0.645,1.44,1.439c0,0.796,-0.645,1.44,-1.44,1.44C46.005,77.04,45.36,76.396,45.36,75.6zM45.36,82.8c0,-0.795,0.645,-1.44,1.439,-1.44c0.796,0,1.44,0.646,1.44,1.44s-0.645,1.44,-1.44,1.44C46.005,84.24,45.36,83.595,45.36,82.8zM45.36,90c0,-0.796,0.645,-1.44,1.439,-1.44c0.796,0,1.44,0.645,1.44,1.44c0,0.795,-0.645,1.439,-1.44,1.439C46.005,91.44,45.36,90.795,45.36,90zM2.16,90c0,-0.796,0.645,-1.44,1.439,-1.44c0.796,-0.001,1.44,0.644,1.44,1.439c0,0,0,0,0,0.001c0,0.795,-0.645,1.439,-1.439,1.439C2.804,91.44,2.16,90.795,2.16,90zM2.16,82.8c0,-0.795,0.645,-1.44,1.439,-1.44c0.796,0,1.44,0.645,1.44,1.439L5.039,82.8c0,0.795,-0.645,1.44,-1.439,1.44C2.804,84.24,2.16,83.595,2.16,82.8zM2.16,75.6c0,-0.795,0.645,-1.44,1.439,-1.44c0.796,0,1.44,0.645,1.44,1.439c0,0.001,0,0.001,0,0.001c0,0.796,-0.645,1.44,-1.439,1.44C2.804,77.04,2.16,76.396,2.16,75.6zM2.16,68.4c0,-0.795,0.645,-1.439,1.439,-1.44c0.796,0,1.44,0.645,1.44,1.439c0,0.001,0,0.001,0,0.001c0,0.796,-0.645,1.44,-1.439,1.44C2.804,69.84,2.16,69.196,2.16,68.4zM2.16,61.2c0,-0.796,0.645,-1.44,1.439,-1.44c0.796,-0.001,1.44,0.644,1.44,1.439c0,0,0,0,0,0.001c0,0.795,-0.645,1.439,-1.439,1.439C2.804,62.64,2.16,61.995,2.16,61.2zM2.16,54c0,-0.796,0.645,-1.44,1.439,-1.44c0.796,-0.001,1.44,0.644,1.44,1.439c0,0,0,0,0,0.001c0,0.795,-0.645,1.439,-1.439,1.439C2.804,55.44,2.16,54.795,2.16,54zM2.16,46.8c0,-0.795,0.645,-1.44,1.439,-1.44c0.796,0,1.44,0.645,1.44,1.439L5.039,46.8c0,0.795,-0.645,1.44,-1.439,1.44C2.804,48.24,2.16,47.595,2.16,46.8zM2.16,39.6c0,-0.795,0.645,-1.44,1.439,-1.44c0.796,0,1.44,0.645,1.44,1.439c0,0.001,0,0.001,0,0.001c0,0.796,-0.645,1.44,-1.439,1.44C2.804,41.04,2.16,40.396,2.16,39.6zM2.16,32.4c0,-0.795,0.645,-1.439,1.439,-1.44c0.796,0,1.44,0.645,1.44,1.439c0,0.001,0,0.001,0,0.001c0,0.796,-0.645,1.44,-1.439,1.44C2.804,33.84,2.16,33.196,2.16,32.4zM2.16,25.2c0,-0.796,0.645,-1.44,1.439,-1.44c0.796,-0.001,1.44,0.644,1.44,1.439c0,0,0,0,0,0.001c0,0.795,-0.645,1.439,-1.439,1.439C2.804,26.64,2.16,25.995,2.16,25.2L2.16,25.2zM2.16,18c0,-0.796,0.645,-1.44,1.439,-1.44c0.796,-0.001,1.44,0.644,1.44,1.439c0,0,0,0,0,0.001c0,0.795,-0.645,1.439,-1.439,1.439C2.804,19.44,2.16,18.795,2.16,18zM2.16,10.8c0,-0.795,0.645,-1.44,1.439,-1.44c0.796,0,1.44,0.645,1.44,1.439L5.039,10.8c0,0.795,-0.645,1.44,-1.439,1.44C2.804,12.24,2.16,11.595,2.16,10.8z" fill="#0F7391"/>
  <g >
   <path  d="M15.075,46.233c0,0.312,-0.255,0.567,-0.567,0.567l-2.792,0c-0.312,0,-0.567,-0.255,-0.567,-0.567l0,-7.241c0,-0.312,0.255,-0.567,0.567,-0.567l2.792,0c0.312,0,0.567,0.255,0.567,0.567L15.075,46.233z" fill="#BFBFBF"/>
   <path  d="M14.731,45.386c0,0.374,-0.306,0.68,-0.68,0.68l-1.878,0c-0.374,0,-0.68,-0.306,-0.68,-0.68l0,-5.548c0,-0.374,0.306,-0.68,0.68,-0.68l1.878,0c0.374,0,0.68,0.306,0.68,0.68L14.731,45.386z" fill="#D6D6D6"/>
   <path  d="M11.149,39.138c0,-0.312,0.255,-0.567,0.567,-0.567l2.792,0c0.312,0,0.567,0.255,0.567,0.567l0,-0.146c0,-0.312,-0.255,-0.567,-0.567,-0.567l-2.792,0c-0.312,0,-0.567,0.255,-0.567,0.567L11.149,39.138z" fill="#CBCBCB"/>
   <path  d="M11.149,46.124c0,0.312,0.255,0.567,0.567,0.567l2.792,0c0.312,0,0.567,-0.255,0.567,-0.567l0,0.109c0,0.312,-0.255,0.567,-0.567,0.567l-2.792,0c-0.312,0,-0.567,-0.255,-0.567,-0.567L11.149,46.124z" fill="#ACACAC"/>
   <path  d="M11.493,39.839c0,-0.374,0.306,-0.68,0.68,-0.68l1.878,0c0.374,0,0.68,0.306,0.68,0.68l0,0.146c0,-0.374,-0.306,-0.68,-0.68,-0.68l-1.878,0c-0.374,0,-0.68,0.306,-0.68,0.68L11.493,39.839z" fill="#DDDDDD"/>
   <path  d="M14.731,45.277c0,0.374,-0.306,0.68,-0.68,0.68l-1.878,0c-0.374,0,-0.68,-0.306,-0.68,-0.68l0,0.109c0,0.374,0.306,0.68,0.68,0.68l1.878,0c0.374,0,0.68,-0.306,0.68,-0.68L14.731,45.277z" fill="#CCCCCC"/>
  </g>
  <g >
   <circle  fill="none" cy="68.4" cx="3.6" r="2.88" stroke-width="0.3" stroke="#FFFFFF"/>
   <circle  fill="none" cy="61.2" cx="3.6" r="2.88" stroke-width="0.3" stroke="#FFFFFF"/>
   <circle  fill="none" cy="46.8" cx="3.6" r="2.88" stroke-width="0.3" stroke="#FFFFFF"/>
   <circle  fill="none" cy="90" cx="3.6" r="2.88" stroke-width="0.3" stroke="#FFFFFF"/>
   <circle  fill="none" cy="90" cx="46.8" r="2.88" stroke-width="0.3" stroke="#FFFFFF"/>
   <circle  fill="none" cy="82.8" cx="46.8" r="2.88" stroke-width="0.3" stroke="#FFFFFF"/>
   <g transform="matrix(1, 0, 0, 1, 16.2292, 15.4822)">
    <text  fill="#FFFFFF" font-family="'OCRA'" font-size="3">Arduino Pro</text>
   </g>
   <g transform="matrix(1, 0, 0, 1, 22.0696, 12.2395)">
    <text  fill="#FFFFFF" font-family="'OCRA'" font-size="3">Mini</text>
   </g>
   <g transform="matrix(1, 0, 0, 1, 20.7917, 77.8323)">
    <text  fill="#FFFFFF" font-family="'OCRA'" font-size="2.5">Reset</text>
   </g>
   <g transform="matrix(-1.83697e-16, -1, 1, -1.83697e-16, 9.7195, 91.0803)">
    <text  fill="#FFFFFF" font-family="'OCRA'" font-size="2.5">9</text>
   </g>
   <g transform="matrix(-1.83697e-16, -1, 1, -1.83697e-16, 9.7195, 83.8792)">
    <text  fill="#FFFFFF" font-family="'OCRA'" font-size="2.5">8</text>
   </g>
   <g transform="matrix(-1.83697e-16, -1, 1, -1.83697e-16, 9.7195, 76.3196)">
    <text  fill="#FFFFFF" font-family="'OCRA'" font-size="2.5">7</text>
   </g>
   <g transform="matrix(-1.83697e-16, -1, 1, -1.83697e-16, 9.7195, 69.4797)">
    <text  fill="#FFFFFF" font-family="'OCRA'" font-size="2.5">6</text>
   </g>
   <g transform="matrix(-1.83697e-16, -1, 1, -1.83697e-16, 9.7195, 62.2795)">
    <text  fill="#FFFFFF" font-family="'OCRA'" font-size="2.5">5</text>
   </g>
   <g transform="matrix(-1.83697e-16, -1, 1, -1.83697e-16, 9.7195, 55.0803)">
    <text  fill="#FFFFFF" font-family="'OCRA'" font-size="2.5">4</text>
   </g>
   <g transform="matrix(-1.83697e-16, -1, 1, -1.83697e-16, 9.7195, 47.8792)">
    <text  fill="#FFFFFF" font-family="'OCRA'" font-size="2.5">3</text>
   </g>
   <g transform="matrix(-1.83697e-16, -1, 1, -1.83697e-16, 9.3591, 40.3196)">
    <text  fill="#FFFFFF" font-family="'OCRA'" font-size="2.5">2</text>
   </g>
   <g transform="matrix(-1.83697e-16, -1, 1, -1.83697e-16, 9.3591, 35.6399)">
    <text  fill="#FFFFFF" font-family="'OCRA'" font-size="2.5">GND</text>
   </g>
   <g transform="matrix(-1.83697e-16, -1, 1, -1.83697e-16, 9.3591, 28.0813)">
    <text  fill="#FFFFFF" font-family="'OCRA'" font-size="2.5">RST</text>
   </g>
   <g transform="matrix(-1.83697e-16, -1, 1, -1.83697e-16, 9.3591, 20.8792)">
    <text  fill="#FFFFFF" font-family="'OCRA'" font-size="2.5">RXI</text>
   </g>
   <g transform="matrix(-1.83697e-16, -1, 1, -1.83697e-16, 9.3591, 13.6799)">
    <text  fill="#FFFFFF" font-family="'OCRA'" font-size="2.5">TXO</text>
   </g>
   <g transform="matrix(1, 0, 0, 1, 33.1199, 8.7483)">
    <text  fill="#FFFFFF" font-family="'OCRA'" font-size="2.5">TXO</text>
   </g>
   <g transform="matrix(1, 0, 0, 1, 26.28, 8.7483)">
    <text  fill="#FFFFFF" font-family="'OCRA'" font-size="2.5">RXI</text>
   </g>
   <g transform="matrix(-1.83697e-16, -1, 1, -1.83697e-16, 43.5593, 13.6799)">
    <text  fill="#FFFFFF" font-family="'OCRA'" font-size="2.5">RAW</text>
   </g>
   <g transform="matrix(-1.83697e-16, -1, 1, -1.83697e-16, 43.5593, 20.8792)">
    <text  fill="#FFFFFF" font-family="'OCRA'" font-size="2.5">GND</text>
   </g>
   <g transform="matrix(-1.83697e-16, -1, 1, -1.83697e-16, 43.5593, 28.0813)">
    <text  fill="#FFFFFF" font-family="'OCRA'" font-size="2.5">RST</text>
   </g>
   <g transform="matrix(-1.83697e-16, -1, 1, -1.83697e-16, 43.5593, 35.2795)">
    <text  fill="#FFFFFF" font-family="'OCRA'" font-size="2.5">VCC</text>
   </g>
   <g transform="matrix(-1.83697e-16, -1, 1, -1.83697e-16, 43.5593, 41.3997)">
    <text  fill="#FFFFFF" font-family="'OCRA'" font-size="2.5">A3</text>
   </g>
   <g transform="matrix(-1.83697e-16, -1, 1, -1.83697e-16, 43.5593, 48.5999)">
    <text  fill="#FFFFFF" font-family="'OCRA'" font-size="2.5">A2</text>
   </g>
   <g transform="matrix(-1.83697e-16, -1, 1, -1.83697e-16, 43.5593, 56.1604)">
    <text  fill="#FFFFFF" font-family="'OCRA'" font-size="2.5">A1</text>
   </g>
   <g transform="matrix(-1.83697e-16, -1, 1, -1.83697e-16, 35.2263, 37.0081)">
    <text  fill="#FFFFFF" font-family="'OCRA'" font-size="2.5">A5</text>
   </g>
   <g transform="matrix(-1.83697e-16, -1, 1, -1.83697e-16, 35.2263, 44.5686)">
    <text  fill="#FFFFFF" font-family="'OCRA'" font-size="2.5">A4</text>
   </g>
   <g transform="matrix(-1.83697e-16, -1, 1, -1.83697e-16, 35.2263, 66.7795)">
    <text  fill="#FFFFFF" font-family="'OCRA'" font-size="2.5">A7</text>
   </g>
   <g transform="matrix(-1.83697e-16, -1, 1, -1.83697e-16, 35.2263, 74.3401)">
    <text  fill="#FFFFFF" font-family="'OCRA'" font-size="2.5">A6</text>
   </g>
   <g transform="matrix(-1.83697e-16, -1, 1, -1.83697e-16, 43.5593, 63.3596)">
    <text  fill="#FFFFFF" font-family="'OCRA'" font-size="2.5">A0</text>
   </g>
   <g transform="matrix(-1.83697e-16, -1, 1, -1.83697e-16, 43.5593, 70.5598)">
    <text  fill="#FFFFFF" font-family="'OCRA'" font-size="2.5">13</text>
   </g>
   <g transform="matrix(-1.83697e-16, -1, 1, -1.83697e-16, 43.5593, 77.76)">
    <text  fill="#FFFFFF" font-family="'OCRA'" font-size="2.5">12</text>
   </g>
   <g transform="matrix(-1.83697e-16, -1, 1, -1.83697e-16, 43.5593, 84.9592)">
    <text  fill="#FFFFFF" font-family="'OCRA'" font-size="2.5">11</text>
   </g>
   <g transform="matrix(-1.83697e-16, -1, 1, -1.83697e-16, 43.5593, 92.1604)">
    <text  fill="#FFFFFF" font-family="'OCRA'" font-size="2.5">10</text>
   </g>
   <g transform="matrix(1, 0, 0, 1, 18.7195, 8.7483)">
    <text  fill="#FFFFFF" font-family="'OCRA'" font-size="2.5">VCC</text>
   </g>
   <g transform="matrix(1, 0, 0, 1, 11.5198, 8.7483)">
    <text  fill="#FFFFFF" font-family="'OCRA'" font-size="2.5">GND</text>
   </g>
   <g transform="matrix(-1.83697e-16, -1, 1, -1.83697e-16, 3.5994, 6.4797)">
    <text  fill="#FFFFFF" font-family="'OCRA'" font-size="2.5">BLK</text>
   </g>
   <g transform="matrix(-1.83697e-16, -1, 1, -1.83697e-16, 48.9597, 6.4797)">
    <text  fill="#FFFFFF" font-family="'OCRA'" font-size="2.5">GRN</text>
   </g>
   <path  d="M13.068,68.421L12.931,68.4M12.931,68.4l-0.269,-0.021M12.665,68.379L12.398,68.4M12.398,68.4L12.2,68.452M12.2,68.452l-0.184,0.091M12.016,68.543l-0.161,0.126M11.855,68.669l-0.134,0.154M11.721,68.823l-0.113,0.208M11.608,69.031l-0.068,0.228M11.54,69.259l-0.02,0.235M11.52,69.494l0,4.299M11.52,73.793l1.382,-1.558M12.902,72.238l0.246,-0.226M13.148,72.012l0.287,-0.171M13.435,71.841l0.104,-0.038M13.541,71.803l0.11,-0.019M13.651,71.784L14.3,71.784M14.3,71.784l0.388,-0.035M14.685,71.749l0.374,-0.104M15.059,71.645l0.349,-0.17M15.408,71.475l0.328,-0.23M15.736,71.242l0.293,-0.275M16.029,70.967l0.25,-0.313M16.279,70.654l0.269,-0.477M16.548,70.177l0.18,-0.517M16.725,69.66l0.082,-0.541M16.807,69.119l-0.019,-0.549M16.791,68.573l-0.059,-0.295M16.732,68.279l-0.104,-0.281M16.631,67.995l-0.143,-0.267M16.488,67.731l-0.257,-0.32M16.231,67.408l-0.319,-0.264M15.912,67.147l0,0.252M15.912,67.399l-0.005,0.041M15.907,67.44l-0.017,0.039M15.89,67.479l-0.084,0.104M15.806,67.582l-0.11,0.076M15.696,67.658l-0.058,0.021M15.638,67.68l-0.162,0.019M15.476,67.698l-0.16,-0.028M15.316,67.668l-0.146,-0.075M15.171,67.593l-0.26,-0.188M14.911,67.406l-0.119,-0.104M14.792,67.303l-0.104,-0.12M14.688,67.183l-0.083,-0.135M14.605,67.048l-0.063,-0.146M14.545,66.903l-0.019,-0.093M14.526,66.81l0.004,-0.095M14.53,66.715l0.047,-0.156M14.577,66.559l0.086,-0.139M14.663,66.42l0.119,-0.11M14.782,66.31l0.144,-0.077M14.926,66.233l0.146,-0.041M15.071,66.192l0.149,-0.017M15.22,66.175l0.173,0M15.393,66.175L15.393,66.175M15.393,66.175l-0.007,-0.007M15.386,66.168l-0.123,-0.098M15.263,66.073l-0.146,-0.063M15.12,66.009l-0.101,-0.043M15.019,65.966l-0.064,-0.028M14.955,65.938l-0.249,-0.063M14.706,65.875l-0.255,-0.024M14.451,65.851l-0.247,0.021M14.204,65.869l-0.237,0.064M13.967,65.936l-0.222,0.109M13.745,66.045l-0.221,0.159M13.524,66.204l-0.197,0.187M13.327,66.391l-0.122,0.171M13.205,66.562l-0.075,0.196M13.13,66.758l-0.022,0.209M13.105,66.967l0.025,0.209M13.133,67.176l0.08,0.194M13.213,67.37l0.336,0.498M13.549,67.868l0.412,0.438M13.961,68.307l0.108,0.127M14.069,68.434l0.072,0.151M14.141,68.585l0.029,0.164M14.173,68.749l-0.014,0.167M14.159,68.916l-0.056,0.157M14.103,69.073l-0.097,0.139M14.009,69.212l-0.127,0.107M13.882,69.323l-0.158,0.087M13.721,69.406l-0.174,0.06M13.55,69.466l-0.179,0.028M13.371,69.494l-0.21,-0.013M13.161,69.484l-0.201,-0.061M12.96,69.423l-0.18,-0.108M12.78,69.315l-0.095,-0.101M12.685,69.214l-0.063,-0.123M12.622,69.091l-0.026,-0.126M12.594,68.965l0,-0.13M12.594,68.835l0.026,-0.126M12.622,68.709l0.025,-0.048M12.647,68.661l0.039,-0.038M12.686,68.623l0.236,-0.173M12.925,68.45l0.046,-0.023M12.969,68.427l0.05,-0.011M13.018,68.416l0.05,0.005M11.52,73.728l0.058,0M11.52,73.656l0.122,0M11.52,73.584l0.186,0M11.52,73.512l0.25,0M11.52,73.44l0.313,0M11.52,73.368l0.378,0M11.52,73.296l0.439,0M11.52,73.224l0.506,0M11.52,73.152l0.567,0M11.52,73.08l0.634,0M11.52,73.008l0.695,0M11.52,72.936l0.762,0M11.52,72.865l0.825,0M11.52,72.792l0.89,0M11.52,72.72l0.953,0M11.52,72.648l1.018,0M11.52,72.576l1.081,0M11.52,72.504l1.146,0M11.52,72.432l1.209,0M11.52,72.36l1.271,0M11.52,72.288l1.337,0M11.52,72.216l1.403,0M11.52,72.144l1.482,0M11.52,72.073l1.563,0M11.52,72l1.646,0M11.52,71.928l1.77,0M11.52,71.856l1.891,0M11.52,71.784L14.3,71.784M11.52,71.712l3.298,0M11.52,71.64l3.549,0M11.52,71.568l3.694,0M11.52,71.496l3.844,0M11.52,71.424l3.959,0M11.52,71.352l4.062,0M11.52,71.281l4.163,0M11.52,71.208l4.253,0M11.52,71.136l4.329,0M11.52,71.064l4.404,0M11.52,70.992l4.48,0M11.52,70.92l4.546,0M11.52,70.848l4.604,0M11.52,70.776l4.661,0M11.52,70.704l4.719,0M11.52,70.632l4.771,0M11.52,70.56l4.812,0M11.52,70.488l4.853,0M11.52,70.416l4.893,0M11.52,70.344l4.934,0M11.52,70.272l4.974,0M11.52,70.2l5.015,0M11.52,70.128l5.044,0M11.52,70.056l5.067,0M11.52,69.984l5.094,0M11.52,69.912l5.119,0M11.52,69.84l5.144,0M11.52,69.768l5.168,0M11.52,69.696l5.191,0M11.52,69.624l5.211,0M11.52,69.552l5.222,0M11.521,69.48l1.626,0M13.462,69.48l3.291,0M11.527,69.408l1.408,0M13.721,69.408l3.042,0M11.534,69.336l1.282,0M13.855,69.336l2.92,0M11.54,69.264l1.192,0M13.949,69.264l2.837,0M11.56,69.192l1.111,0M14.023,69.192l2.771,0M11.582,69.12l1.057,0M14.072,69.12l2.735,0M11.603,69.048l1.009,0M14.113,69.048l2.692,0M11.639,68.976l0.957,0M14.138,68.976l2.665,0M11.678,68.904l0.913,0M14.16,68.904l2.641,0M11.717,68.832l0.879,0M14.166,68.832l2.633,0M11.777,68.76l0.833,0M14.172,68.76l2.625,0M11.839,68.688l0.795,0M14.161,68.688l2.633,0M11.923,68.615l0.773,0M14.147,68.615l2.645,0M12.015,68.544l0.778,0M14.122,68.544l2.663,0M12.16,68.472l0.734,0M14.088,68.472l2.685,0M12.398,68.4l0.533,0M14.041,68.4l2.715,0M13.979,68.328l2.763,0M13.914,68.256l2.812,0M13.845,68.184l2.853,0M13.777,68.112l2.896,0M13.71,68.04l2.938,0M13.642,67.968l2.974,0M13.574,67.896l3.003,0M13.518,67.823l3.021,0M13.469,67.752l3.028,0M13.421,67.68l1.961,0M15.638,67.68l0.81,0M13.373,67.608l1.826,0M15.769,67.608l0.621,0M13.324,67.536l1.767,0M15.844,67.536l0.488,0M13.275,67.464l1.716,0M15.896,67.464l0.38,0M13.226,67.392l1.668,0M15.912,67.392l0.3,0M13.192,67.32l1.618,0M15.912,67.32l0.212,0M13.163,67.248l1.581,0M15.912,67.248l0.124,0M13.134,67.176l1.553,0M15.912,67.176l0.036,0M13.123,67.104l1.519,0M13.114,67.031l1.484,0M13.105,66.96l1.463,0M13.114,66.888l1.428,0M13.123,66.816l1.404,0M13.134,66.744l1.396,0M13.163,66.672l1.38,0M13.19,66.6l1.374,0M13.229,66.528l1.367,0M13.281,66.456l1.359,0M13.335,66.384l1.367,0M13.411,66.312l1.368,0M13.487,66.24l1.426,0M13.575,66.168l1.813,0M13.675,66.096l1.619,0M13.788,66.024l1.365,0M13.933,65.952l1.054,0M14.168,65.88l0.559,0" fill="none" stroke-width="0.072" stroke-linecap="round" stroke="#FFFFFF"/>
   <polygon  fill="#333333" points="39.251,54,25.2,68.051,11.149,54,24.488,40.66,25.912,40.66"/>
   <polygon  fill="#1F1F1F" points="39.251,54,25.2,68.051,11.149,54,11.149,54.344,25.2,68.395,39.251,54.344"/>
   <rect  y="12.603" x="10.397" fill="#333333" width="5.243" height="11.202"/>
   <path  d="M15.623,14.355l0,-1.752l-5.223,0l0,1.752L15.623,14.355z" fill="#CCCCCC"/>
   <path  d="M15.623,25.557l0,-1.752l-5.223,0l0,1.752L15.623,25.557z" fill="#CCCCCC"/>
   <path  d="M10.397,23.807l0,-1.753" fill="#D1C690"/>
   <line  fill="none" y1="13.675" y2="13.675" x1="10.401" x2="10.401"/>
   <rect  y="12.603" opacity="0.1" x="10.413" width="0.105" enable-background="new    " height="12.954"/>
   <rect  y="12.603" opacity="0.2" x="15.517" fill="#FFFFFF" width="0.105" enable-background="new    " height="12.954"/>
   <g transform="matrix(0.7071, 0.7071, -0.7071, 0.7071, 13.5364, 53.3733)">
    <text  fill="#CCCCCC" font-family="'OCRA'" font-size="2.6726">ATmega328</text>
   </g>
   <rect  y="76.367" x="11.863" fill="#534741" width="2.559" height="5.67"/>
   <rect  y="76.369" opacity="0.2" x="14.399" width="0.021" enable-background="new    " height="5.67"/>
   <rect  y="76.368" opacity="0.2" x="11.862" fill="#FFFFFF" width="0.031" enable-background="new    " height="5.671"/>
   <path  d="M11.862,77.189L11.862,77.189L11.862,77.189l0,0.065l0,0c0.171,0.06,0.813,0.1,1.002,0.1c0.199,0,1.379,-0.035,1.56,-0.1l0,-0.891l-2.562,0L11.862,77.189z" fill="#DCDCDC"/>
   <path  d="M11.933,81.151l-0.071,0l0,0.887l2.561,0l0,-0.887c-0.184,-0.063,-1.354,-0.139,-1.559,-0.139C12.63,81.013,12.138,81.067,11.933,81.151z" fill="#DCDCDC"/>
   <rect  y="81.151" opacity="0.15" x="14.39" width="0.029" enable-background="new    " height="0.887"/>
   <rect  y="81.151" opacity="0.5" x="11.863" fill="#FFFFFF" width="0.031" enable-background="new    " height="0.887"/>
   <path  d="M14.422,76.366l0,0.891" fill="#D1C690"/>
   <rect  y="76.367" opacity="0.15" x="14.39" width="0.029" enable-background="new    " height="0.888"/>
   <rect  y="76.366" opacity="0.5" x="11.863" fill="#FFFFFF" width="0.03" enable-background="new    " height="0.89"/>
   <line  fill="none" y1="81.495" y2="81.495" x1="14.421" x2="14.421"/>
   <rect  y="76.355" opacity="0.1" x="11.871" width="2.542" enable-background="new    " height="0.116"/>
   <rect  y="81.921" opacity="0.2" x="11.871" fill="#FFFFFF" width="2.542" enable-background="new    " height="0.116"/>
   <rect  y="35.043" x="18.257" fill="#534741" width="5.67" height="2.56"/>
   <rect  y="35.045" opacity="0.2" x="18.257" width="5.671" enable-background="new    " height="0.021"/>
   <rect  y="37.573" opacity="0.2" x="18.256" fill="#FFFFFF" width="5.67" enable-background="new    " height="0.03"/>
   <path  d="M19.078,37.603L19.078,37.603L19.078,37.603l0.063,0l0,0c0.063,-0.171,0.103,-0.812,0.103,-1.002c0,-0.199,-0.035,-1.379,-0.103,-1.557l-0.888,0l0,2.559L19.078,37.603z" fill="#DCDCDC"/>
   <path  d="M23.04,37.531l0,0.071l0.887,0l0,-2.558L23.04,35.044c-0.063,0.181,-0.142,1.354,-0.142,1.556C22.902,36.836,22.956,37.327,23.04,37.531z" fill="#DCDCDC"/>
   <rect  y="35.046" opacity="0.15" x="23.04" width="0.887" enable-background="new    " height="0.029"/>
   <rect  y="37.573" opacity="0.5" x="23.039" fill="#FFFFFF" width="0.888" enable-background="new    " height="0.03"/>
   <path  d="M18.256,35.044l0.888,0" fill="#D1C690"/>
   <rect  y="35.047" opacity="0.15" x="18.255" width="0.89" enable-background="new    " height="0.029"/>
   <rect  y="37.574" opacity="0.5" x="18.256" fill="#FFFFFF" width="0.888" enable-background="new    " height="0.03"/>
   <line  fill="none" y1="35.045" y2="35.045" x1="23.384" x2="23.384"/>
   <rect  y="35.051" opacity="0.1" x="18.244" width="0.116" enable-background="new    " height="2.542"/>
   <rect  y="35.051" opacity="0.2" x="23.813" fill="#FFFFFF" width="0.113" enable-background="new    " height="2.542"/>
   <rect  y="9.678" x="33.17" fill="#534741" width="5.67" height="2.56"/>
   <rect  y="9.68" opacity="0.2" x="33.17" width="5.672" enable-background="new    " height="0.021"/>
   <rect  y="12.207" opacity="0.2" x="33.17" fill="#FFFFFF" width="5.67" enable-background="new    " height="0.03"/>
   <path  d="M33.992,12.238L33.992,12.238L33.992,12.238l0.063,0l0,0c0.063,-0.171,0.102,-0.812,0.102,-1.002c0,-0.199,-0.035,-1.379,-0.102,-1.557l-0.889,0l0,2.559L33.992,12.238z" fill="#DCDCDC"/>
   <path  d="M37.953,12.165l0,0.071l0.887,0L38.84,9.679l-0.887,0c-0.063,0.181,-0.141,1.354,-0.141,1.556C37.814,11.471,37.869,11.962,37.953,12.165z" fill="#DCDCDC"/>
   <rect  y="9.681" opacity="0.15" x="37.953" width="0.887" enable-background="new    " height="0.029"/>
   <rect  y="12.207" opacity="0.5" x="37.953" fill="#FFFFFF" width="0.887" enable-background="new    " height="0.03"/>
   <path  d="M33.17,9.679l0.887,0" fill="#D1C690"/>
   <rect  y="9.682" opacity="0.15" x="33.168" width="0.891" enable-background="new    " height="0.029"/>
   <rect  y="12.209" opacity="0.5" x="33.17" fill="#FFFFFF" width="0.887" enable-background="new    " height="0.03"/>
   <line  fill="none" y1="9.68" y2="9.68" x1="38.297" x2="38.297"/>
   <rect  y="9.686" opacity="0.1" x="33.158" width="0.115" enable-background="new    " height="2.542"/>
   <rect  y="9.686" opacity="0.2" x="38.726" fill="#FFFFFF" width="0.113" enable-background="new    " height="2.542"/>
   <rect  y="82.791" x="37.122" fill="#DCDCDC" width="1.398" height="6.422"/>
   <line  fill="none" y1="82.792" y2="89.214" x1="37.159" x2="37.159"/>
   <rect  y="83.749" x="37.156" fill="#F2F2F2" width="2.477" height="4.505"/>
   <path  d="M37.157,87.541c0,0,0.467,-0.168,0.426,0.052c-0.041,0.218,0.148,0.54,0,0.676l-0.424,-0.015L37.157,87.541z" fill="#22B573" fill-opacity="0.7"/>
   <rect  y="85.574" x="37.979" fill="#FFFFFF" width="0.961" height="0.854"/>
   <rect  y="85.575" x="37.952" fill="#B3B3B3" width="0.051" height="0.854"/>
   <polygon  fill="#D1C690" points="37.581,87.305,37.477,88.268,38.208,88.268,38.104,87.305"/>
   <path  d="M37.78,87.593c0,-0.002,0,-0.005,0,-0.007c0.035,-0.269,0.105,-0.449,0.162,-0.598c0.08,-0.209,0.141,-0.361,0.055,-0.636c-0.012,-0.024,0.012,-0.059,0.043,-0.063c0.035,-0.008,0.068,0.009,0.078,0.039c0.094,0.303,0.025,0.478,-0.059,0.694c-0.062,0.148,-0.123,0.318,-0.156,0.572c-0.004,0.03,-0.033,0.054,-0.068,0.049C37.804,87.644,37.78,87.62,37.78,87.593z" fill="#D1C690"/>
   <polygon  fill="#D1C690" points="39.11,84.7,39.214,83.736,38.483,83.736,38.587,84.7"/>
   <path  d="M38.306,85.96c0,-0.025,0.02,-0.049,0.047,-0.055c0.291,-0.063,0.42,-0.949,0.436,-1.492c0,-0.033,0.027,-0.06,0.063,-0.06c0.035,0.002,0.063,0.025,0.063,0.06l0,0.002c-0.004,0.149,-0.053,1.498,-0.526,1.6c-0.035,0.007,-0.068,-0.012,-0.078,-0.042C38.306,85.969,38.306,85.965,38.306,85.96z" fill="#D1C690"/>
   <path  d="M38.29,86.43c0,0,0.002,-0.354,-0.311,-0.382c0,0.071,0,0.382,0,0.382L38.29,86.43z" fill="#D1C690"/>
   <path  d="M38.608,85.996c0,0,-0.305,0.158,-0.351,0.052c-0.049,-0.107,-0.053,-0.178,0.027,-0.24C38.37,85.747,38.608,85.996,38.608,85.996z" fill="#D1C690"/>
   <path  d="M37.94,86.355c0.084,0.271,0.022,0.426,-0.055,0.635c-0.062,0.146,-0.128,0.329,-0.162,0.598l0.057,0.001c0.035,-0.269,0.105,-0.449,0.162,-0.598c0.08,-0.209,0.141,-0.361,0.055,-0.636L37.94,86.355z" fill="#9D956C"/>
   <polygon  fill="#9D956C" points="38.532,84.7,38.429,83.736,38.483,83.736,38.587,84.7"/>
   <path  d="M38.296,85.904c0.291,-0.063,0.422,-0.947,0.437,-1.492l0.059,0c-0.016,0.545,-0.145,1.434,-0.436,1.494L38.296,85.904z" fill="#9D956C"/>
   <path  d="M37.922,86.047c0,0.071,0,0.382,0,0.382l0.06,0c0,0,0,-0.311,0,-0.382L37.922,86.047z" fill="#9D956C"/>
   <path  d="M38.233,85.807c-0.08,0.063,-0.076,0.131,-0.031,0.239l0.062,0.001c-0.052,-0.107,-0.054,-0.178,0.026,-0.24L38.233,85.807z" fill="#9D956C"/>
   <rect  y="84.271" opacity="0.5" x="39.58" fill="#FFFFFF" width="0.053" enable-background="new    " height="3.462"/>
   <path  d="M38.885,85.462c0.049,0,0.088,0.035,0.088,0.076l0,0.326c0,0.043,0.039,0.075,0.086,0.075l0.032,0c-0.051,0,-0.09,-0.032,-0.09,-0.075l0,-0.326c0,-0.043,-0.039,-0.078,-0.086,-0.078L38.885,85.462L38.885,85.462z" fill="#FFFFFF"/>
   <path  d="M39.212,87.452c0.052,0,0.09,-0.036,0.09,-0.077l0,-1.356c0,-0.043,-0.038,-0.075,-0.09,-0.075l0.033,0c0.049,0,0.088,0.031,0.088,0.075l0,1.356c0,0.041,-0.039,0.077,-0.088,0.077L39.212,87.452z" fill="#FFFFFF"/>
   <path  d="M37.739,87.733l0,-0.206c0,-0.041,0.039,-0.073,0.088,-0.073l0.031,0c-0.047,0,-0.086,0.032,-0.086,0.073l0,0.205L37.739,87.733L37.739,87.733z" fill="#FFFFFF"/>
   <path  d="M39.301,84.27l0,1.029c0,0.041,-0.039,0.078,-0.091,0.078l0.033,0c0.049,0,0.088,-0.035,0.088,-0.078L39.331,84.27L39.301,84.27z" fill="#FFFFFF"/>
   <path  opacity="0.5" d="M39.633,83.751l-2.477,0l0,4.505l2.477,0L39.633,83.751z" fill="#F2F2F2" enable-background="new    "/>
   <path  opacity="0.55" d="M38.979,83.802l0.27,0c0.152,0.017,0.271,-0.012,0.271,0.096c0,0.613,0,3.944,0,4.099c0,0.167,-0.066,0.175,-0.066,-0.015c0,-0.131,0,-3.133,0,-3.586c0,-0.457,-0.104,-0.518,-0.195,-0.518l-0.272,0.002C38.806,83.88,38.806,83.802,38.979,83.802z" fill="#FFFFFF" enable-background="new    "/>
   <path  opacity="0.03" d="M37.378,88.206c-0.065,0,-0.137,0.012,-0.137,-0.1c0,-0.609,0,-3.941,0,-4.095c0,-0.168,0.066,-0.176,0.066,0.008c0,0.138,0.002,3.14,0.002,3.594C37.309,88.206,37.378,88.206,37.378,88.206z" enable-background="new    "/>
   <path  d="M37.157,82.794l0,0.77l0.521,0c0.125,0,0.213,0.082,0.268,0.188l1.688,0l0,-1.009l-2.428,0l-0.049,0" fill="#D1C690"/>
   <rect  y="82.743" opacity="0.5" x="39.582" fill="#FFFFFF" width="0.051" enable-background="new    " height="1.006"/>
   <path  d="M37.157,89.263l0.049,0l2.428,0l0,-1.009l-2.104,0c-0.055,0.104,-0.146,0.188,-0.271,0.188l-0.1,0l0,0.771" fill="#D1C690"/>
   <rect  y="88.253" opacity="0.5" x="39.58" fill="#FFFFFF" width="0.053" enable-background="new    " height="1.01"/>
   <rect  y="31.626" x="21.614" fill="#DCDCDC" width="6.422" height="1.398"/>
   <line  fill="none" y1="31.663" y2="31.663" x1="28.036" x2="21.614"/>
   <rect  y="31.661" x="22.574" fill="#F2F2F2" width="4.505" height="2.475"/>
   <path  d="M23.287,31.661c0,0,0.168,0.467,-0.052,0.426c-0.218,-0.041,-0.54,0.146,-0.676,0l0.015,-0.424L23.287,31.661z" fill="#22B573" fill-opacity="0.7"/>
   <rect  y="32.481" x="24.4" fill="#FFFFFF" width="0.854" height="0.963"/>
   <rect  y="32.457" x="24.399" fill="#B3B3B3" width="0.854" height="0.05"/>
   <polygon  fill="#D1C690" points="23.523,32.085,22.56,31.981,22.56,32.712,23.523,32.608"/>
   <path  d="M23.235,32.284c0.002,0,0.005,0,0.007,0c0.267,0.033,0.449,0.104,0.598,0.162c0.209,0.077,0.361,0.141,0.633,0.055c0.027,-0.012,0.062,0.01,0.066,0.043c0.008,0.035,-0.009,0.068,-0.039,0.078c-0.303,0.094,-0.478,0.022,-0.697,-0.062c-0.146,-0.059,-0.315,-0.123,-0.569,-0.153c-0.03,-0.004,-0.057,-0.033,-0.05,-0.068C23.184,32.308,23.208,32.284,23.235,32.284z" fill="#D1C690"/>
   <polygon  fill="#D1C690" points="26.128,33.615,27.093,33.718,27.093,32.988,26.128,33.091"/>
   <path  d="M24.868,32.81c0.025,0,0.049,0.021,0.055,0.047c0.063,0.291,0.949,0.421,1.492,0.438c0.033,0,0.057,0.027,0.057,0.063c-0.002,0.035,-0.022,0.063,-0.057,0.063l-0.002,0c-0.152,-0.004,-1.498,-0.053,-1.6,-0.529c-0.01,-0.035,0.012,-0.065,0.042,-0.078C24.859,32.81,24.863,32.81,24.868,32.81z" fill="#D1C690"/>
   <path  d="M24.398,32.794c0,0,0.354,0.002,0.382,-0.313c-0.071,0,-0.382,0,-0.382,0L24.398,32.794z" fill="#D1C690"/>
   <path  d="M24.832,33.113c0,0,-0.158,-0.308,-0.052,-0.353c0.104,-0.047,0.178,-0.051,0.24,0.029C25.081,32.874,24.832,33.113,24.832,33.113z" fill="#D1C690"/>
   <path  d="M24.472,32.444c-0.271,0.086,-0.423,0.024,-0.632,-0.056c-0.146,-0.059,-0.331,-0.127,-0.598,-0.162l-0.001,0.06c0.267,0.033,0.449,0.104,0.598,0.162c0.209,0.077,0.361,0.141,0.633,0.055L24.472,32.444z" fill="#9D956C"/>
   <polygon  fill="#9D956C" points="26.128,33.036,27.093,32.933,27.093,32.988,26.128,33.091"/>
   <path  d="M24.925,32.8c0.063,0.291,0.947,0.42,1.492,0.435l0,0.061c-0.545,-0.018,-1.434,-0.146,-1.494,-0.438L24.925,32.8z" fill="#9D956C"/>
   <path  d="M24.781,32.427c-0.071,0,-0.382,0,-0.382,0l0,0.058c0,0,0.311,0,0.382,0L24.781,32.427z" fill="#9D956C"/>
   <path  d="M25.021,32.738c-0.063,-0.08,-0.134,-0.076,-0.239,-0.031l-0.001,0.059c0.104,-0.049,0.178,-0.051,0.24,0.029L25.021,32.738z" fill="#9D956C"/>
   <rect  y="34.085" opacity="0.5" x="23.094" fill="#FFFFFF" width="3.464" enable-background="new    " height="0.051"/>
   <path  d="M25.366,33.388c0,0.049,-0.035,0.088,-0.076,0.088l-0.326,0c-0.043,0,-0.078,0.039,-0.078,0.086l0,0.033c0,-0.049,0.035,-0.088,0.078,-0.088l0.326,0c0.043,0,0.078,-0.039,0.078,-0.086L25.366,33.388L25.366,33.388z" fill="#FFFFFF"/>
   <path  d="M23.376,33.716c0,0.049,0.036,0.088,0.077,0.088l1.356,0c0.043,0,0.073,-0.039,0.073,-0.088l0,0.033c0,0.049,-0.029,0.088,-0.073,0.088l-1.356,0c-0.041,0,-0.077,-0.039,-0.077,-0.088L23.376,33.716z" fill="#FFFFFF"/>
   <path  d="M23.094,32.243l0.207,0c0.041,0,0.075,0.039,0.075,0.088l0,0.031c0,-0.05,-0.034,-0.089,-0.075,-0.089l-0.206,0L23.094,32.243L23.094,32.243z" fill="#FFFFFF"/>
   <path  d="M26.557,33.804l-1.028,0c-0.041,0,-0.078,-0.039,-0.078,-0.088l0,0.033c0,0.049,0.035,0.088,0.078,0.088l1.028,0L26.557,33.804z" fill="#FFFFFF"/>
   <path  opacity="0.5" d="M27.077,34.136l0,-2.475l-4.505,0l0,2.475L27.077,34.136z" fill="#F2F2F2" enable-background="new    "/>
   <path  opacity="0.55" d="M27.026,33.483l0,0.271c-0.019,0.152,0.012,0.27,-0.099,0.27c-0.61,0,-3.941,0,-4.096,0c-0.167,0,-0.175,-0.063,0.012,-0.063c0.134,0,3.136,0,3.586,0c0.457,0,0.521,-0.105,0.521,-0.197l-0.002,-0.271C26.948,33.31,27.026,33.31,27.026,33.483z" fill="#FFFFFF" enable-background="new    "/>
   <path  opacity="0.03" d="M22.622,31.882c0,-0.068,-0.012,-0.137,0.097,-0.137c0.612,0,3.944,0,4.098,0c0.168,0,0.176,0.063,-0.011,0.063c-0.135,0,-3.137,0.002,-3.591,0.002C22.622,31.813,22.622,31.882,22.622,31.882z" enable-background="new    "/>
   <path  d="M28.034,31.661l-0.771,0l0,0.52c0,0.125,-0.082,0.213,-0.188,0.271l0,1.688l1.01,0l0,-2.426l0,-0.049" fill="#D1C690"/>
   <rect  y="34.085" opacity="0.5" x="27.079" fill="#FFFFFF" width="1.006" enable-background="new    " height="0.051"/>
   <path  d="M21.565,31.661l0,0.049l0,2.426l1.009,0l0,-2.104c-0.105,-0.058,-0.19,-0.146,-0.19,-0.271l0,-0.098l-0.769,0" fill="#D1C690"/>
   <rect  y="34.085" opacity="0.5" x="21.565" fill="#FFFFFF" width="1.009" enable-background="new    " height="0.051"/>
   <rect  y="84.207" x="11.83" fill="#333333" width="2.56" height="5.67"/>
   <rect  y="84.205" opacity="0.2" x="11.833" width="0.021" enable-background="new    " height="5.67"/>
   <path  d="M14.389,89.054L14.389,89.054L14.389,89.054l0,-0.065l0,0c-0.174,-0.061,-0.813,-0.102,-1.002,-0.102c-0.199,0,-1.383,0.033,-1.56,0.102l0,0.888l2.562,0L14.389,89.054z" fill="#CCCCCC"/>
   <path  d="M14.318,85.092l0.071,0l0,-0.888l-2.561,0l0,0.888c0.184,0.063,1.078,0.116,1.279,0.116C13.346,85.209,14.113,85.176,14.318,85.092z" fill="#CCCCCC"/>
   <rect  y="84.204" opacity="0.15" x="11.832" width="0.029" enable-background="new    " height="0.888"/>
   <rect  y="84.204" opacity="0.5" x="14.358" fill="#FFFFFF" width="0.03" enable-background="new    " height="0.888"/>
   <rect  y="88.988" opacity="0.15" x="11.832" width="0.03" enable-background="new    " height="0.888"/>
   <rect  y="88.989" opacity="0.5" x="14.359" fill="#FFFFFF" width="0.03" enable-background="new    " height="0.888"/>
   <line  fill="none" y1="84.747" y2="84.747" x1="11.831" x2="11.831"/>
   <rect  y="89.771" opacity="0.1" x="11.846" width="2.542" enable-background="new    " height="0.116"/>
   <rect  y="84.205" opacity="0.2" x="11.846" fill="#FFFFFF" width="2.542" enable-background="new    " height="0.116"/>
   <rect  y="76.24" x="37.018" fill="#333333" width="2.559" height="5.67"/>
   <rect  y="76.239" opacity="0.2" x="37.019" width="0.021" enable-background="new    " height="5.67"/>
   <path  d="M39.577,81.088L39.577,81.088L39.577,81.088l0,-0.066l0,0c-0.171,-0.06,-0.812,-0.101,-1.002,-0.101c-0.199,0,-1.38,0.034,-1.557,0.101l0,0.89l2.559,0L39.577,81.088z" fill="#CCCCCC"/>
   <path  d="M39.506,77.125l0.071,0l0,-0.89l-2.558,0l0,0.89c0.181,0.063,1.078,0.117,1.276,0.117C38.534,77.242,39.301,77.209,39.506,77.125z" fill="#CCCCCC"/>
   <rect  y="76.239" opacity="0.15" x="37.019" width="0.03" enable-background="new    " height="0.887"/>
   <rect  y="76.238" opacity="0.5" x="39.549" fill="#FFFFFF" width="0.028" enable-background="new    " height="0.89"/>
   <rect  y="81.021" opacity="0.15" x="37.02" width="0.029" enable-background="new    " height="0.888"/>
   <rect  y="81.022" opacity="0.5" x="39.548" fill="#FFFFFF" width="0.029" enable-background="new    " height="0.888"/>
   <line  fill="none" y1="76.781" y2="76.781" x1="37.019" x2="37.019"/>
   <rect  y="81.805" opacity="0.1" x="37.035" width="2.542" enable-background="new    " height="0.113"/>
   <rect  y="76.239" opacity="0.2" x="37.035" fill="#FFFFFF" width="2.542" enable-background="new    " height="0.116"/>
   <rect  y="16.634" x="22.491" fill="#333333" width="5.671" height="2.56"/>
   <rect  y="16.635" opacity="0.2" x="22.491" width="5.67" enable-background="new    " height="0.021"/>
   <path  d="M23.312,19.193L23.312,19.193L23.312,19.193l0.063,0l0,0c0.063,-0.171,0.104,-0.812,0.104,-1.002c0,-0.198,-0.035,-1.38,-0.104,-1.557l-0.888,0l0,2.559L23.312,19.193z" fill="#CCCCCC"/>
   <path  d="M27.275,19.122l0,0.068l0.887,0l0,-2.558l-0.887,0c-0.063,0.181,-0.117,1.078,-0.117,1.279C27.158,18.15,27.191,18.917,27.275,19.122z" fill="#CCCCCC"/>
   <rect  y="16.635" opacity="0.15" x="27.275" width="0.887" enable-background="new    " height="0.03"/>
   <rect  y="19.164" opacity="0.5" x="27.275" fill="#FFFFFF" width="0.887" enable-background="new    " height="0.028"/>
   <rect  y="16.636" opacity="0.15" x="22.491" width="0.888" enable-background="new    " height="0.03"/>
   <rect  y="19.165" opacity="0.5" x="22.49" fill="#FFFFFF" width="0.889" enable-background="new    " height="0.028"/>
   <line  fill="none" y1="16.635" y2="16.635" x1="27.619" x2="27.619"/>
   <rect  y="16.651" opacity="0.1" x="22.479" width="0.116" enable-background="new    " height="2.542"/>
   <rect  y="16.65" opacity="0.2" x="28.046" fill="#FFFFFF" width="0.114" enable-background="new    " height="2.542"/>
   <rect  y="26.868" x="26.384" fill="#999999" width="2.061" height="1.457"/>
   <rect  y="24.111" x="26.384" fill="#999999" width="2.061" height="1.454"/>
   <rect  y="21.351" x="26.383" fill="#999999" width="2.062" height="1.455"/>
   <rect  y="26.868" opacity="0.2" x="28.382" fill="#FFFFFF" width="0.063" enable-background="new    " height="1.457"/>
   <rect  y="24.111" opacity="0.2" x="28.382" fill="#FFFFFF" width="0.063" enable-background="new    " height="1.454"/>
   <rect  y="21.351" opacity="0.2" x="28.382" fill="#FFFFFF" width="0.063" enable-background="new    " height="1.455"/>
   <rect  y="22.688" x="19.973" fill="#999999" width="2.226" height="4.299"/>
   <rect  y="22.688" opacity="0.2" x="19.977" fill="#FFFFFF" width="0.064" enable-background="new    " height="4.299"/>
   <rect  y="20.807" x="22.197" fill="#303030" width="4.187" height="8.063"/>
   <polygon  fill="#1F1F1F" points="22.199,28.87,22.199,20.806,22.501,21.109,22.501,28.567"/>
   <polygon  fill="#1F1F1F" points="26.384,28.87,26.384,20.806,26.079,21.109,26.079,28.567"/>
   <polygon  points="22.199,28.87,26.384,28.87,26.079,28.567,22.501,28.567"/>
   <polygon  fill="#3D3D3D" points="22.199,20.806,26.384,20.806,26.079,21.109,22.501,21.109"/>
   <circle  fill="#1F1F1F" cy="27.96" cx="25.473" r="0.303"/>
   <polygon  fill="#7A7A7A" points="31.698,81.637,29.605,79.54,20.793,79.54,18.7,81.637,18.7,90.449,20.793,92.54,29.605,92.54,31.698,90.449"/>
   <rect  y="78.488" x="20.792" fill="#7A7A7A" width="8.813" height="15.104"/>
   <rect  y="81.636" x="17.647" fill="#7A7A7A" width="15.104" height="8.813"/>
   <polygon  fill="#999999" points="31.066,82.064,29.176,80.173,21.222,80.173,19.33,82.064,19.33,90.019,21.222,91.909,29.176,91.909,31.066,90.019"/>
   <polyline  opacity="0.2" fill="none" points="28.967,91.602,30.759,89.811,30.759,82.271,28.967,80.479,21.43,80.479" enable-background="new    " stroke-width="0.2183" stroke-miterlimit="10" stroke="#FFFFFF"/>
   <polyline  opacity="0.2" fill="none" points="21.428,80.479,19.636,82.27,19.636,89.81,21.428,91.602,28.967,91.602" enable-background="new    " stroke-width="0.2183" stroke-miterlimit="10" stroke="#606060"/>
   <path  d="M25.198,82.605c1.894,0,3.435,1.541,3.435,3.438c0,1.893,-1.541,3.435,-3.435,3.435s-3.436,-1.541,-3.436,-3.435C21.767,84.147,23.307,82.605,25.198,82.605z" fill="#BCA16A"/>
   <path  d="M25.198,89.243c-1.77,0,-3.204,-1.438,-3.204,-3.204c0,-1.771,1.438,-3.204,3.204,-3.204c1.77,0,3.204,1.435,3.204,3.204C28.402,87.811,26.967,89.243,25.198,89.243M25.198,89.704c2.021,0,3.665,-1.646,3.665,-3.664c0,-2.021,-1.646,-3.666,-3.665,-3.666s-3.665,1.645,-3.665,3.666C21.536,88.062,23.179,89.704,25.198,89.704L25.198,89.704z" fill="#808080"/>
   <path  opacity="0.2" d="M23.178,84.021c1.114,-1.116,2.929,-1.116,4.045,0c1.114,1.117,1.114,2.93,0,4.044" fill="#BCA16A" enable-background="new    " stroke-width="0.4887" stroke-miterlimit="10" stroke="#FFFFFF"/>
   <path  opacity="0.2" d="M27.222,88.064c-1.116,1.116,-2.931,1.116,-4.047,0c-1.114,-1.116,-1.114,-2.927,0,-4.044" fill="#BCA16A" enable-background="new    " stroke-width="0.4887" stroke-miterlimit="10" stroke="#606060"/>
   <rect  y="17.46" x="34.156" fill="#333333" width="5.243" height="11.202"/>
   <path  d="M39.383,19.212L39.383,17.46L34.16,17.46l0,1.752L39.383,19.212z" fill="#CCCCCC"/>
   <path  d="M39.383,30.413l0,-1.752L34.16,28.661l0,1.752L39.383,30.413z" fill="#CCCCCC"/>
   <path  d="M34.156,28.664L34.156,26.91" fill="#D1C690"/>
   <line  fill="none" y1="18.531" y2="18.531" x1="34.16" x2="34.16"/>
   <rect  y="17.46" opacity="0.1" x="34.172" width="0.105" enable-background="new    " height="12.954"/>
   <rect  y="17.46" opacity="0.2" x="39.276" fill="#FFFFFF" width="0.104" enable-background="new    " height="12.954"/>
  </g>
 </g>
 <g  id="connectors">
  <circle  fill="none" cy="10.8" id="connector48pin" cx="3.6" r="2.052" stroke-width="1.224" stroke="#9A916C"/>
  <circle  fill="none" cy="3.6" id="connector14pin" cx="43.2" r="2.052" stroke-width="1.224" stroke="#9A916C"/>
  <circle  fill="none" cy="3.6" id="connector15pin" cx="36" r="2.052" stroke-width="1.224" stroke="#9A916C"/>
  <circle  fill="none" cy="3.6" id="connector16pin" cx="28.8" r="2.052" stroke-width="1.224" stroke="#9A916C"/>
  <circle  fill="none" cy="3.6" id="connector17pin" cx="21.6" r="2.052" stroke-width="1.224" stroke="#9A916C"/>
  <circle  fill="none" cy="3.6" id="connector18pin" cx="14.4" r="2.052" stroke-width="1.224" stroke="#9A916C"/>
  <circle  fill="none" cy="3.6" id="connector19pin" cx="7.2" r="2.052" stroke-width="1.224" stroke="#9A916C"/>
  <circle  fill="none" cy="42.84" id="connector20pin" cx="38.52" r="2.052" stroke-width="1.224" stroke="#9A916C"/>
  <circle  fill="none" cy="35.64" id="connector21pin" cx="38.52" r="2.052" stroke-width="1.224" stroke="#9A916C"/>
  <circle  fill="none" cy="72.36" id="connector22pin" cx="38.52" r="2.052" stroke-width="1.224" stroke="#9A916C"/>
  <circle  fill="none" cy="65.16" id="connector23pin" cx="38.52" r="2.052" stroke-width="1.224" stroke="#9A916C"/>
  <circle  fill="none" cy="10.8" id="connector25pin" cx="46.8" r="2.052" stroke-width="1.224" stroke="#9A916C"/>
  <circle  fill="none" cy="18" id="connector26pin" cx="46.8" r="2.052" stroke-width="1.224" stroke="#9A916C"/>
  <circle  fill="none" cy="25.2" id="connector27pin" cx="46.8" r="2.052" stroke-width="1.224" stroke="#9A916C"/>
  <circle  fill="none" cy="32.4" id="connector28pin" cx="46.8" r="2.052" stroke-width="1.224" stroke="#9A916C"/>
  <circle  fill="none" cy="39.6" id="connector29pin" cx="46.8" r="2.052" stroke-width="1.224" stroke="#9A916C"/>
  <circle  fill="none" cy="46.8" id="connector30pin" cx="46.8" r="2.052" stroke-width="1.224" stroke="#9A916C"/>
  <circle  fill="none" cy="54" id="connector31pin" cx="46.8" r="2.052" stroke-width="1.224" stroke="#9A916C"/>
  <circle  fill="none" cy="61.2" id="connector32pin" cx="46.8" r="2.052" stroke-width="1.224" stroke="#9A916C"/>
  <circle  fill="none" cy="68.4" id="connector33pin" cx="46.8" r="2.052" stroke-width="1.224" stroke="#9A916C"/>
  <circle  fill="none" cy="75.6" id="connector34pin" cx="46.8" r="2.052" stroke-width="1.224" stroke="#9A916C"/>
  <circle  fill="none" cy="82.8" id="connector35pin" cx="46.8" r="2.052" stroke-width="1.224" stroke="#9A916C"/>
  <circle  fill="none" cy="90" id="connector36pin" cx="46.8" r="2.052" stroke-width="1.224" stroke="#9A916C"/>
  <circle  fill="none" cy="90" id="connector37pin" cx="3.6" r="2.052" stroke-width="1.224" stroke="#9A916C"/>
  <circle  fill="none" cy="82.8" id="connector38pin" cx="3.6" r="2.052" stroke-width="1.224" stroke="#9A916C"/>
  <circle  fill="none" cy="75.6" id="connector39pin" cx="3.6" r="2.052" stroke-width="1.224" stroke="#9A916C"/>
  <circle  fill="none" cy="68.4" id="connector40pin" cx="3.6" r="2.052" stroke-width="1.224" stroke="#9A916C"/>
  <circle  fill="none" cy="61.2" id="connector41pin" cx="3.6" r="2.052" stroke-width="1.224" stroke="#9A916C"/>
  <circle  fill="none" cy="54" id="connector42pin" cx="3.6" r="2.052" stroke-width="1.224" stroke="#9A916C"/>
  <circle  fill="none" cy="46.8" id="connector43pin" cx="3.6" r="2.052" stroke-width="1.224" stroke="#9A916C"/>
  <circle  fill="none" cy="39.6" id="connector44pin" cx="3.6" r="2.052" stroke-width="1.224" stroke="#9A916C"/>
  <circle  fill="none" cy="32.4" id="connector45pin" cx="3.6" r="2.052" stroke-width="1.224" stroke="#9A916C"/>
  <circle  fill="none" cy="25.2" id="connector46pin" cx="3.6" r="2.052" stroke-width="1.224" stroke="#9A916C"/>
  <circle  fill="none" cy="18" id="connector47pin" cx="3.6" r="2.052" stroke-width="1.224" stroke="#9A916C"/>
 </g>
</g>
</g></g></g><g partID='857163890'><g transform='translate(86.9976,40.09)' ><g transform='matrix(0,1,-1,0,0,0)'  ><g xmlns="http://www.w3.org/2000/svg" id="breadboard">
 <rect xmlns="http://www.w3.org/2000/svg" y="2.16" x="0" fill="#303030" id="middle" width="86.4" height="26.64"/>
 <rect xmlns="http://www.w3.org/2000/svg" y="2.16" x="0" fill="#3D3D3D" id="top" width="86.4" height="1.7712"/>
 <rect xmlns="http://www.w3.org/2000/svg" y="27.0288" x="0" fill="#000000" id="bottom" width="86.4" height="1.7712"/>
 <polygon xmlns="http://www.w3.org/2000/svg" fill="#141414" points="86.4,2.16,85.86,3.9312,85.86,27.0288,86.4,28.8" id="right"/>
 <polygon xmlns="http://www.w3.org/2000/svg" fill="#1F1F1F" points="0,2.16,0.54,3.9312,0.54,27.0288,0,28.8" id="left"/>
 <polygon xmlns="http://www.w3.org/2000/svg" fill="#1C1C1C" points="3.6,11.88,0.54,11.8512,0.4032,13.3776,0.4032,15.48,3.6,15.48" id="left-upper-rect"/>
 <polygon xmlns="http://www.w3.org/2000/svg" fill="#383838" points="0.54,19.116,3.6,19.116,3.6,15.48,0.4032,15.48,0.4032,17.5824" id="left-lower-rect"/>
 <path xmlns="http://www.w3.org/2000/svg" d="M0.4032,13.3776l0,4.1976c1.0584,-0.1224,1.8864,-1.008,1.8864,-2.1024C2.2896,14.3784,1.4688,13.5,0.4032,13.3776z" fill="#262626" id="slot"/>
 <path xmlns="http://www.w3.org/2000/svg" d="M0.54,3.9312L0.54,11.844c1.7136,0.324,3.0168,1.8216,3.0168,3.6288c0,1.8072,-1.296,3.312,-3.0168,3.636L0.54,19.116l3.6,0L4.14,3.9312L0.54,3.9312z" fill="#303030" id="cover"/>
 <circle xmlns="http://www.w3.org/2000/svg" fill="#212121" cy="24.0984" cx="4.68" r="1.4832"/>
 <text xmlns="http://www.w3.org/2000/svg" y="15.48" text-anchor="start" x="4.68" fill="#e6e6e6" id="label" font-family="OCRA" font-size="5.76" stroke="none">IC</text>
 <rect xmlns="http://www.w3.org/2000/svg" y="27.8352" x="2.52" fill="#8C8C8C" id="connector0pin" width="2.16" height="3.1248"/>
 <rect xmlns="http://www.w3.org/2000/svg" y="28.8" x="2.52" fill="#8C8C8C" id="connector0terminal" width="2.16" height="2.16"/>
 <polygon xmlns="http://www.w3.org/2000/svg" fill="#8C8C8C" points="2.52,27.8352,2.52,29.2752,4.68,29.2752,6.12,28.6128,6.12,27.8352"/>
 <rect xmlns="http://www.w3.org/2000/svg" x="2.52" fill="#8C8C8C" id="connector23pin" width="2.16" height="3.1248"/>
 <rect xmlns="http://www.w3.org/2000/svg" x="2.52" fill="#8C8C8C" id="connector23terminal" width="2.16" height="2.16"/>
 <polygon xmlns="http://www.w3.org/2000/svg" fill="#8C8C8C" points="6.12,3.1248,6.12,2.3472,4.68,1.6848,2.52,1.6848,2.52,3.1248"/>
 <rect xmlns="http://www.w3.org/2000/svg" y="27.8352" x="81.72" fill="#8C8C8C" id="connector11pin" width="2.16" height="3.1248"/>
 <rect xmlns="http://www.w3.org/2000/svg" y="28.8" x="81.72" fill="#8C8C8C" id="connector11terminal" width="2.16" height="2.16"/>
 <polygon xmlns="http://www.w3.org/2000/svg" fill="#8C8C8C" points="80.28,27.8352,80.28,28.6128,81.72,29.2752,83.88,29.2752,83.88,27.8352"/>
 <rect xmlns="http://www.w3.org/2000/svg" y="0" x="81.72" fill="#8C8C8C" id="connector12pin" width="2.16" height="3.1248"/>
 <rect xmlns="http://www.w3.org/2000/svg" y="0" x="81.72" fill="#8C8C8C" id="connector12terminal" width="2.16" height="2.16"/>
 <polygon xmlns="http://www.w3.org/2000/svg" fill="#8C8C8C" points="83.88,3.1248,83.88,1.6848,81.72,1.6848,80.28,2.3472,80.28,3.1248"/>
 <rect xmlns="http://www.w3.org/2000/svg" y="0" x="9.72" fill="#8C8C8C" id="connector22pin" width="2.16" height="3.1248"/>
 <rect xmlns="http://www.w3.org/2000/svg" x="9.72" fill="#8C8C8C" id="connector22terminal" width="2.16" height="2.16"/>
 <polygon xmlns="http://www.w3.org/2000/svg" fill="#8C8C8C" points="13.32,3.1248,13.32,2.3472,11.88,1.6848,9.72,1.6848,8.28,2.3472,8.28,3.1248"/>
 <rect xmlns="http://www.w3.org/2000/svg" y="0" x="16.92" fill="#8C8C8C" id="connector21pin" width="2.16" height="3.1248"/>
 <rect xmlns="http://www.w3.org/2000/svg" x="16.92" fill="#8C8C8C" id="connector21terminal" width="2.16" height="2.16"/>
 <polygon xmlns="http://www.w3.org/2000/svg" fill="#8C8C8C" points="20.52,3.1248,20.52,2.3472,19.08,1.6848,16.92,1.6848,15.48,2.3472,15.48,3.1248"/>
 <rect xmlns="http://www.w3.org/2000/svg" y="0" x="24.12" fill="#8C8C8C" id="connector20pin" width="2.16" height="3.1248"/>
 <rect xmlns="http://www.w3.org/2000/svg" x="24.12" fill="#8C8C8C" id="connector20terminal" width="2.16" height="2.16"/>
 <polygon xmlns="http://www.w3.org/2000/svg" fill="#8C8C8C" points="27.72,3.1248,27.72,2.3472,26.28,1.6848,24.12,1.6848,22.68,2.3472,22.68,3.1248"/>
 <rect xmlns="http://www.w3.org/2000/svg" y="0" x="31.32" fill="#8C8C8C" id="connector19pin" width="2.16" height="3.1248"/>
 <rect xmlns="http://www.w3.org/2000/svg" x="31.32" fill="#8C8C8C" id="connector19terminal" width="2.16" height="2.16"/>
 <polygon xmlns="http://www.w3.org/2000/svg" fill="#8C8C8C" points="34.92,3.1248,34.92,2.3472,33.48,1.6848,31.32,1.6848,29.88,2.3472,29.88,3.1248"/>
 <rect xmlns="http://www.w3.org/2000/svg" y="0" x="38.52" fill="#8C8C8C" id="connector18pin" width="2.16" height="3.1248"/>
 <rect xmlns="http://www.w3.org/2000/svg" x="38.52" fill="#8C8C8C" id="connector18terminal" width="2.16" height="2.16"/>
 <polygon xmlns="http://www.w3.org/2000/svg" fill="#8C8C8C" points="42.12,3.1248,42.12,2.3472,40.68,1.6848,38.52,1.6848,37.08,2.3472,37.08,3.1248"/>
 <rect xmlns="http://www.w3.org/2000/svg" y="0" x="45.72" fill="#8C8C8C" id="connector17pin" width="2.16" height="3.1248"/>
 <rect xmlns="http://www.w3.org/2000/svg" x="45.72" fill="#8C8C8C" id="connector17terminal" width="2.16" height="2.16"/>
 <polygon xmlns="http://www.w3.org/2000/svg" fill="#8C8C8C" points="49.32,3.1248,49.32,2.3472,47.88,1.6848,45.72,1.6848,44.28,2.3472,44.28,3.1248"/>
 <rect xmlns="http://www.w3.org/2000/svg" y="0" x="52.92" fill="#8C8C8C" id="connector16pin" width="2.16" height="3.1248"/>
 <rect xmlns="http://www.w3.org/2000/svg" x="52.92" fill="#8C8C8C" id="connector16terminal" width="2.16" height="2.16"/>
 <polygon xmlns="http://www.w3.org/2000/svg" fill="#8C8C8C" points="56.52,3.1248,56.52,2.3472,55.08,1.6848,52.92,1.6848,51.48,2.3472,51.48,3.1248"/>
 <rect xmlns="http://www.w3.org/2000/svg" y="0" x="60.12" fill="#8C8C8C" id="connector15pin" width="2.16" height="3.1248"/>
 <rect xmlns="http://www.w3.org/2000/svg" x="60.12" fill="#8C8C8C" id="connector15terminal" width="2.16" height="2.16"/>
 <polygon xmlns="http://www.w3.org/2000/svg" fill="#8C8C8C" points="63.72,3.1248,63.72,2.3472,62.28,1.6848,60.12,1.6848,58.68,2.3472,58.68,3.1248"/>
 <rect xmlns="http://www.w3.org/2000/svg" y="0" x="67.32" fill="#8C8C8C" id="connector14pin" width="2.16" height="3.1248"/>
 <rect xmlns="http://www.w3.org/2000/svg" x="67.32" fill="#8C8C8C" id="connector14terminal" width="2.16" height="2.16"/>
 <polygon xmlns="http://www.w3.org/2000/svg" fill="#8C8C8C" points="70.92,3.1248,70.92,2.3472,69.48,1.6848,67.32,1.6848,65.88,2.3472,65.88,3.1248"/>
 <rect xmlns="http://www.w3.org/2000/svg" y="0" x="74.52" fill="#8C8C8C" id="connector13pin" width="2.16" height="3.1248"/>
 <rect xmlns="http://www.w3.org/2000/svg" x="74.52" fill="#8C8C8C" id="connector13terminal" width="2.16" height="2.16"/>
 <polygon xmlns="http://www.w3.org/2000/svg" fill="#8C8C8C" points="78.12,3.1248,78.12,2.3472,76.68,1.6848,74.52,1.6848,73.08,2.3472,73.08,3.1248"/>
 <rect xmlns="http://www.w3.org/2000/svg" y="27.8352" x="9.72" fill="#8C8C8C" id="connector1pin" width="2.16" height="3.1248"/>
 <rect xmlns="http://www.w3.org/2000/svg" y="28.8" x="9.72" fill="#8C8C8C" id="connector1terminal" width="2.16" height="2.16"/>
 <polygon xmlns="http://www.w3.org/2000/svg" fill="#8C8C8C" points="8.28,27.8352,8.28,28.6128,9.72,29.2752,11.88,29.2752,13.32,28.6128,13.32,27.8352"/>
 <rect xmlns="http://www.w3.org/2000/svg" y="27.8352" x="16.92" fill="#8C8C8C" id="connector2pin" width="2.16" height="3.1248"/>
 <rect xmlns="http://www.w3.org/2000/svg" y="28.8" x="16.92" fill="#8C8C8C" id="connector2terminal" width="2.16" height="2.16"/>
 <polygon xmlns="http://www.w3.org/2000/svg" fill="#8C8C8C" points="15.48,27.8352,15.48,28.6128,16.92,29.2752,19.08,29.2752,20.52,28.6128,20.52,27.8352"/>
 <rect xmlns="http://www.w3.org/2000/svg" y="27.8352" x="24.12" fill="#8C8C8C" id="connector3pin" width="2.16" height="3.1248"/>
 <rect xmlns="http://www.w3.org/2000/svg" y="28.8" x="24.12" fill="#8C8C8C" id="connector3terminal" width="2.16" height="2.16"/>
 <polygon xmlns="http://www.w3.org/2000/svg" fill="#8C8C8C" points="22.68,27.8352,22.68,28.6128,24.12,29.2752,26.28,29.2752,27.72,28.6128,27.72,27.8352"/>
 <rect xmlns="http://www.w3.org/2000/svg" y="27.8352" x="31.32" fill="#8C8C8C" id="connector4pin" width="2.16" height="3.1248"/>
 <rect xmlns="http://www.w3.org/2000/svg" y="28.8" x="31.32" fill="#8C8C8C" id="connector4terminal" width="2.16" height="2.16"/>
 <polygon xmlns="http://www.w3.org/2000/svg" fill="#8C8C8C" points="29.88,27.8352,29.88,28.6128,31.32,29.2752,33.48,29.2752,34.92,28.6128,34.92,27.8352"/>
 <rect xmlns="http://www.w3.org/2000/svg" y="27.8352" x="38.52" fill="#8C8C8C" id="connector5pin" width="2.16" height="3.1248"/>
 <rect xmlns="http://www.w3.org/2000/svg" y="28.8" x="38.52" fill="#8C8C8C" id="connector5terminal" width="2.16" height="2.16"/>
 <polygon xmlns="http://www.w3.org/2000/svg" fill="#8C8C8C" points="37.08,27.8352,37.08,28.6128,38.52,29.2752,40.68,29.2752,42.12,28.6128,42.12,27.8352"/>
 <rect xmlns="http://www.w3.org/2000/svg" y="27.8352" x="45.72" fill="#8C8C8C" id="connector6pin" width="2.16" height="3.1248"/>
 <rect xmlns="http://www.w3.org/2000/svg" y="28.8" x="45.72" fill="#8C8C8C" id="connector6terminal" width="2.16" height="2.16"/>
 <polygon xmlns="http://www.w3.org/2000/svg" fill="#8C8C8C" points="44.28,27.8352,44.28,28.6128,45.72,29.2752,47.88,29.2752,49.32,28.6128,49.32,27.8352"/>
 <rect xmlns="http://www.w3.org/2000/svg" y="27.8352" x="52.92" fill="#8C8C8C" id="connector7pin" width="2.16" height="3.1248"/>
 <rect xmlns="http://www.w3.org/2000/svg" y="28.8" x="52.92" fill="#8C8C8C" id="connector7terminal" width="2.16" height="2.16"/>
 <polygon xmlns="http://www.w3.org/2000/svg" fill="#8C8C8C" points="51.48,27.8352,51.48,28.6128,52.92,29.2752,55.08,29.2752,56.52,28.6128,56.52,27.8352"/>
 <rect xmlns="http://www.w3.org/2000/svg" y="27.8352" x="60.12" fill="#8C8C8C" id="connector8pin" width="2.16" height="3.1248"/>
 <rect xmlns="http://www.w3.org/2000/svg" y="28.8" x="60.12" fill="#8C8C8C" id="connector8terminal" width="2.16" height="2.16"/>
 <polygon xmlns="http://www.w3.org/2000/svg" fill="#8C8C8C" points="58.68,27.8352,58.68,28.6128,60.12,29.2752,62.28,29.2752,63.72,28.6128,63.72,27.8352"/>
 <rect xmlns="http://www.w3.org/2000/svg" y="27.8352" x="67.32" fill="#8C8C8C" id="connector9pin" width="2.16" height="3.1248"/>
 <rect xmlns="http://www.w3.org/2000/svg" y="28.8" x="67.32" fill="#8C8C8C" id="connector9terminal" width="2.16" height="2.16"/>
 <polygon xmlns="http://www.w3.org/2000/svg" fill="#8C8C8C" points="65.88,27.8352,65.88,28.6128,67.32,29.2752,69.48,29.2752,70.92,28.6128,70.92,27.8352"/>
 <rect xmlns="http://www.w3.org/2000/svg" y="27.8352" x="74.52" fill="#8C8C8C" id="connector10pin" width="2.16" height="3.1248"/>
 <rect xmlns="http://www.w3.org/2000/svg" y="28.8" x="74.52" fill="#8C8C8C" id="connector10terminal" width="2.16" height="2.16"/>
 <polygon xmlns="http://www.w3.org/2000/svg" fill="#8C8C8C" points="73.08,27.8352,73.08,28.6128,74.52,29.2752,76.68,29.2752,78.12,28.6128,78.12,27.8352"/>
</g>
</g></g></g><g partID='857163920'><g transform='translate(187.798,40.09)' ><g transform='matrix(0,1,-1,0,0,0)'  ><g xmlns="http://www.w3.org/2000/svg" id="breadboard">
 <rect xmlns="http://www.w3.org/2000/svg" y="2.16" x="0" fill="#303030" id="middle" width="86.4" height="26.64"/>
 <rect xmlns="http://www.w3.org/2000/svg" y="2.16" x="0" fill="#3D3D3D" id="top" width="86.4" height="1.7712"/>
 <rect xmlns="http://www.w3.org/2000/svg" y="27.0288" x="0" fill="#000000" id="bottom" width="86.4" height="1.7712"/>
 <polygon xmlns="http://www.w3.org/2000/svg" fill="#141414" points="86.4,2.16,85.86,3.9312,85.86,27.0288,86.4,28.8" id="right"/>
 <polygon xmlns="http://www.w3.org/2000/svg" fill="#1F1F1F" points="0,2.16,0.54,3.9312,0.54,27.0288,0,28.8" id="left"/>
 <polygon xmlns="http://www.w3.org/2000/svg" fill="#1C1C1C" points="3.6,11.88,0.54,11.8512,0.4032,13.3776,0.4032,15.48,3.6,15.48" id="left-upper-rect"/>
 <polygon xmlns="http://www.w3.org/2000/svg" fill="#383838" points="0.54,19.116,3.6,19.116,3.6,15.48,0.4032,15.48,0.4032,17.5824" id="left-lower-rect"/>
 <path xmlns="http://www.w3.org/2000/svg" d="M0.4032,13.3776l0,4.1976c1.0584,-0.1224,1.8864,-1.008,1.8864,-2.1024C2.2896,14.3784,1.4688,13.5,0.4032,13.3776z" fill="#262626" id="slot"/>
 <path xmlns="http://www.w3.org/2000/svg" d="M0.54,3.9312L0.54,11.844c1.7136,0.324,3.0168,1.8216,3.0168,3.6288c0,1.8072,-1.296,3.312,-3.0168,3.636L0.54,19.116l3.6,0L4.14,3.9312L0.54,3.9312z" fill="#303030" id="cover"/>
 <circle xmlns="http://www.w3.org/2000/svg" fill="#212121" cy="24.0984" cx="4.68" r="1.4832"/>
 <text xmlns="http://www.w3.org/2000/svg" y="15.48" text-anchor="start" x="4.68" fill="#e6e6e6" id="label" font-family="OCRA" font-size="5.76" stroke="none">IC</text>
 <rect xmlns="http://www.w3.org/2000/svg" y="27.8352" x="2.52" fill="#8C8C8C" id="connector0pin" width="2.16" height="3.1248"/>
 <rect xmlns="http://www.w3.org/2000/svg" y="28.8" x="2.52" fill="#8C8C8C" id="connector0terminal" width="2.16" height="2.16"/>
 <polygon xmlns="http://www.w3.org/2000/svg" fill="#8C8C8C" points="2.52,27.8352,2.52,29.2752,4.68,29.2752,6.12,28.6128,6.12,27.8352"/>
 <rect xmlns="http://www.w3.org/2000/svg" x="2.52" fill="#8C8C8C" id="connector23pin" width="2.16" height="3.1248"/>
 <rect xmlns="http://www.w3.org/2000/svg" x="2.52" fill="#8C8C8C" id="connector23terminal" width="2.16" height="2.16"/>
 <polygon xmlns="http://www.w3.org/2000/svg" fill="#8C8C8C" points="6.12,3.1248,6.12,2.3472,4.68,1.6848,2.52,1.6848,2.52,3.1248"/>
 <rect xmlns="http://www.w3.org/2000/svg" y="27.8352" x="81.72" fill="#8C8C8C" id="connector11pin" width="2.16" height="3.1248"/>
 <rect xmlns="http://www.w3.org/2000/svg" y="28.8" x="81.72" fill="#8C8C8C" id="connector11terminal" width="2.16" height="2.16"/>
 <polygon xmlns="http://www.w3.org/2000/svg" fill="#8C8C8C" points="80.28,27.8352,80.28,28.6128,81.72,29.2752,83.88,29.2752,83.88,27.8352"/>
 <rect xmlns="http://www.w3.org/2000/svg" y="0" x="81.72" fill="#8C8C8C" id="connector12pin" width="2.16" height="3.1248"/>
 <rect xmlns="http://www.w3.org/2000/svg" y="0" x="81.72" fill="#8C8C8C" id="connector12terminal" width="2.16" height="2.16"/>
 <polygon xmlns="http://www.w3.org/2000/svg" fill="#8C8C8C" points="83.88,3.1248,83.88,1.6848,81.72,1.6848,80.28,2.3472,80.28,3.1248"/>
 <rect xmlns="http://www.w3.org/2000/svg" y="0" x="9.72" fill="#8C8C8C" id="connector22pin" width="2.16" height="3.1248"/>
 <rect xmlns="http://www.w3.org/2000/svg" x="9.72" fill="#8C8C8C" id="connector22terminal" width="2.16" height="2.16"/>
 <polygon xmlns="http://www.w3.org/2000/svg" fill="#8C8C8C" points="13.32,3.1248,13.32,2.3472,11.88,1.6848,9.72,1.6848,8.28,2.3472,8.28,3.1248"/>
 <rect xmlns="http://www.w3.org/2000/svg" y="0" x="16.92" fill="#8C8C8C" id="connector21pin" width="2.16" height="3.1248"/>
 <rect xmlns="http://www.w3.org/2000/svg" x="16.92" fill="#8C8C8C" id="connector21terminal" width="2.16" height="2.16"/>
 <polygon xmlns="http://www.w3.org/2000/svg" fill="#8C8C8C" points="20.52,3.1248,20.52,2.3472,19.08,1.6848,16.92,1.6848,15.48,2.3472,15.48,3.1248"/>
 <rect xmlns="http://www.w3.org/2000/svg" y="0" x="24.12" fill="#8C8C8C" id="connector20pin" width="2.16" height="3.1248"/>
 <rect xmlns="http://www.w3.org/2000/svg" x="24.12" fill="#8C8C8C" id="connector20terminal" width="2.16" height="2.16"/>
 <polygon xmlns="http://www.w3.org/2000/svg" fill="#8C8C8C" points="27.72,3.1248,27.72,2.3472,26.28,1.6848,24.12,1.6848,22.68,2.3472,22.68,3.1248"/>
 <rect xmlns="http://www.w3.org/2000/svg" y="0" x="31.32" fill="#8C8C8C" id="connector19pin" width="2.16" height="3.1248"/>
 <rect xmlns="http://www.w3.org/2000/svg" x="31.32" fill="#8C8C8C" id="connector19terminal" width="2.16" height="2.16"/>
 <polygon xmlns="http://www.w3.org/2000/svg" fill="#8C8C8C" points="34.92,3.1248,34.92,2.3472,33.48,1.6848,31.32,1.6848,29.88,2.3472,29.88,3.1248"/>
 <rect xmlns="http://www.w3.org/2000/svg" y="0" x="38.52" fill="#8C8C8C" id="connector18pin" width="2.16" height="3.1248"/>
 <rect xmlns="http://www.w3.org/2000/svg" x="38.52" fill="#8C8C8C" id="connector18terminal" width="2.16" height="2.16"/>
 <polygon xmlns="http://www.w3.org/2000/svg" fill="#8C8C8C" points="42.12,3.1248,42.12,2.3472,40.68,1.6848,38.52,1.6848,37.08,2.3472,37.08,3.1248"/>
 <rect xmlns="http://www.w3.org/2000/svg" y="0" x="45.72" fill="#8C8C8C" id="connector17pin" width="2.16" height="3.1248"/>
 <rect xmlns="http://www.w3.org/2000/svg" x="45.72" fill="#8C8C8C" id="connector17terminal" width="2.16" height="2.16"/>
 <polygon xmlns="http://www.w3.org/2000/svg" fill="#8C8C8C" points="49.32,3.1248,49.32,2.3472,47.88,1.6848,45.72,1.6848,44.28,2.3472,44.28,3.1248"/>
 <rect xmlns="http://www.w3.org/2000/svg" y="0" x="52.92" fill="#8C8C8C" id="connector16pin" width="2.16" height="3.1248"/>
 <rect xmlns="http://www.w3.org/2000/svg" x="52.92" fill="#8C8C8C" id="connector16terminal" width="2.16" height="2.16"/>
 <polygon xmlns="http://www.w3.org/2000/svg" fill="#8C8C8C" points="56.52,3.1248,56.52,2.3472,55.08,1.6848,52.92,1.6848,51.48,2.3472,51.48,3.1248"/>
 <rect xmlns="http://www.w3.org/2000/svg" y="0" x="60.12" fill="#8C8C8C" id="connector15pin" width="2.16" height="3.1248"/>
 <rect xmlns="http://www.w3.org/2000/svg" x="60.12" fill="#8C8C8C" id="connector15terminal" width="2.16" height="2.16"/>
 <polygon xmlns="http://www.w3.org/2000/svg" fill="#8C8C8C" points="63.72,3.1248,63.72,2.3472,62.28,1.6848,60.12,1.6848,58.68,2.3472,58.68,3.1248"/>
 <rect xmlns="http://www.w3.org/2000/svg" y="0" x="67.32" fill="#8C8C8C" id="connector14pin" width="2.16" height="3.1248"/>
 <rect xmlns="http://www.w3.org/2000/svg" x="67.32" fill="#8C8C8C" id="connector14terminal" width="2.16" height="2.16"/>
 <polygon xmlns="http://www.w3.org/2000/svg" fill="#8C8C8C" points="70.92,3.1248,70.92,2.3472,69.48,1.6848,67.32,1.6848,65.88,2.3472,65.88,3.1248"/>
 <rect xmlns="http://www.w3.org/2000/svg" y="0" x="74.52" fill="#8C8C8C" id="connector13pin" width="2.16" height="3.1248"/>
 <rect xmlns="http://www.w3.org/2000/svg" x="74.52" fill="#8C8C8C" id="connector13terminal" width="2.16" height="2.16"/>
 <polygon xmlns="http://www.w3.org/2000/svg" fill="#8C8C8C" points="78.12,3.1248,78.12,2.3472,76.68,1.6848,74.52,1.6848,73.08,2.3472,73.08,3.1248"/>
 <rect xmlns="http://www.w3.org/2000/svg" y="27.8352" x="9.72" fill="#8C8C8C" id="connector1pin" width="2.16" height="3.1248"/>
 <rect xmlns="http://www.w3.org/2000/svg" y="28.8" x="9.72" fill="#8C8C8C" id="connector1terminal" width="2.16" height="2.16"/>
 <polygon xmlns="http://www.w3.org/2000/svg" fill="#8C8C8C" points="8.28,27.8352,8.28,28.6128,9.72,29.2752,11.88,29.2752,13.32,28.6128,13.32,27.8352"/>
 <rect xmlns="http://www.w3.org/2000/svg" y="27.8352" x="16.92" fill="#8C8C8C" id="connector2pin" width="2.16" height="3.1248"/>
 <rect xmlns="http://www.w3.org/2000/svg" y="28.8" x="16.92" fill="#8C8C8C" id="connector2terminal" width="2.16" height="2.16"/>
 <polygon xmlns="http://www.w3.org/2000/svg" fill="#8C8C8C" points="15.48,27.8352,15.48,28.6128,16.92,29.2752,19.08,29.2752,20.52,28.6128,20.52,27.8352"/>
 <rect xmlns="http://www.w3.org/2000/svg" y="27.8352" x="24.12" fill="#8C8C8C" id="connector3pin" width="2.16" height="3.1248"/>
 <rect xmlns="http://www.w3.org/2000/svg" y="28.8" x="24.12" fill="#8C8C8C" id="connector3terminal" width="2.16" height="2.16"/>
 <polygon xmlns="http://www.w3.org/2000/svg" fill="#8C8C8C" points="22.68,27.8352,22.68,28.6128,24.12,29.2752,26.28,29.2752,27.72,28.6128,27.72,27.8352"/>
 <rect xmlns="http://www.w3.org/2000/svg" y="27.8352" x="31.32" fill="#8C8C8C" id="connector4pin" width="2.16" height="3.1248"/>
 <rect xmlns="http://www.w3.org/2000/svg" y="28.8" x="31.32" fill="#8C8C8C" id="connector4terminal" width="2.16" height="2.16"/>
 <polygon xmlns="http://www.w3.org/2000/svg" fill="#8C8C8C" points="29.88,27.8352,29.88,28.6128,31.32,29.2752,33.48,29.2752,34.92,28.6128,34.92,27.8352"/>
 <rect xmlns="http://www.w3.org/2000/svg" y="27.8352" x="38.52" fill="#8C8C8C" id="connector5pin" width="2.16" height="3.1248"/>
 <rect xmlns="http://www.w3.org/2000/svg" y="28.8" x="38.52" fill="#8C8C8C" id="connector5terminal" width="2.16" height="2.16"/>
 <polygon xmlns="http://www.w3.org/2000/svg" fill="#8C8C8C" points="37.08,27.8352,37.08,28.6128,38.52,29.2752,40.68,29.2752,42.12,28.6128,42.12,27.8352"/>
 <rect xmlns="http://www.w3.org/2000/svg" y="27.8352" x="45.72" fill="#8C8C8C" id="connector6pin" width="2.16" height="3.1248"/>
 <rect xmlns="http://www.w3.org/2000/svg" y="28.8" x="45.72" fill="#8C8C8C" id="connector6terminal" width="2.16" height="2.16"/>
 <polygon xmlns="http://www.w3.org/2000/svg" fill="#8C8C8C" points="44.28,27.8352,44.28,28.6128,45.72,29.2752,47.88,29.2752,49.32,28.6128,49.32,27.8352"/>
 <rect xmlns="http://www.w3.org/2000/svg" y="27.8352" x="52.92" fill="#8C8C8C" id="connector7pin" width="2.16" height="3.1248"/>
 <rect xmlns="http://www.w3.org/2000/svg" y="28.8" x="52.92" fill="#8C8C8C" id="connector7terminal" width="2.16" height="2.16"/>
 <polygon xmlns="http://www.w3.org/2000/svg" fill="#8C8C8C" points="51.48,27.8352,51.48,28.6128,52.92,29.2752,55.08,29.2752,56.52,28.6128,56.52,27.8352"/>
 <rect xmlns="http://www.w3.org/2000/svg" y="27.8352" x="60.12" fill="#8C8C8C" id="connector8pin" width="2.16" height="3.1248"/>
 <rect xmlns="http://www.w3.org/2000/svg" y="28.8" x="60.12" fill="#8C8C8C" id="connector8terminal" width="2.16" height="2.16"/>
 <polygon xmlns="http://www.w3.org/2000/svg" fill="#8C8C8C" points="58.68,27.8352,58.68,28.6128,60.12,29.2752,62.28,29.2752,63.72,28.6128,63.72,27.8352"/>
 <rect xmlns="http://www.w3.org/2000/svg" y="27.8352" x="67.32" fill="#8C8C8C" id="connector9pin" width="2.16" height="3.1248"/>
 <rect xmlns="http://www.w3.org/2000/svg" y="28.8" x="67.32" fill="#8C8C8C" id="connector9terminal" width="2.16" height="2.16"/>
 <polygon xmlns="http://www.w3.org/2000/svg" fill="#8C8C8C" points="65.88,27.8352,65.88,28.6128,67.32,29.2752,69.48,29.2752,70.92,28.6128,70.92,27.8352"/>
 <rect xmlns="http://www.w3.org/2000/svg" y="27.8352" x="74.52" fill="#8C8C8C" id="connector10pin" width="2.16" height="3.1248"/>
 <rect xmlns="http://www.w3.org/2000/svg" y="28.8" x="74.52" fill="#8C8C8C" id="connector10terminal" width="2.16" height="2.16"/>
 <polygon xmlns="http://www.w3.org/2000/svg" fill="#8C8C8C" points="73.08,27.8352,73.08,28.6128,74.52,29.2752,76.68,29.2752,78.12,28.6128,78.12,27.8352"/>
</g>
</g></g></g><g partID='857175270'><path stroke-linecap='round' fill='none' stroke-width='3.2' stroke='#000000' d='M158.4,65.29C157.273,66.8631, 126.28,40.6911 158.383,32.89' /><path stroke-linecap='round' fill='none' stroke-width='1.6' stroke='#404040' d='M158.4,65.29C157.273,66.8631, 126.28,40.6911 158.383,32.89' /></g><g partID='857175770'><path stroke-linecap='round' fill='none' stroke-width='3.2' stroke='#000000' d='M158.4,101.29C141.063,87.5619, 158.4,65.29 158.4,65.29' /><path stroke-linecap='round' fill='none' stroke-width='1.6' stroke='#404040' d='M158.4,101.29C141.063,87.5619, 158.4,65.29 158.4,65.29' /></g><g partID='857176450'><path stroke-linecap='round' fill='none' stroke-width='3.2' stroke='#000000' d='M57.6,101.29C40.3685,79.2522, 57.6,65.29 57.6,65.29' /><path stroke-linecap='round' fill='none' stroke-width='1.6' stroke='#404040' d='M57.6,101.29C40.3685,79.2522, 57.6,65.29 57.6,65.29' /></g><g partID='857177070'><path stroke-linecap='round' fill='none' stroke-width='3.2' stroke='#000000' d='M158.383,32.89C158.775,20.3796, 3.19578,-17.456 32.4,94.09' /><path stroke-linecap='round' fill='none' stroke-width='1.6' stroke='#404040' d='M158.383,32.89C158.775,20.3796, 3.19578,-17.456 32.4,94.09' /></g><g partID='857177950'><path stroke-linecap='round' fill='none' stroke-width='3.2' stroke='#000000' d='M18,158.89C14.9303,134.676, -16.2601,113.491 32.4,94.09' /><path stroke-linecap='round' fill='none' stroke-width='1.6' stroke='#404040' d='M18,158.89C14.9303,134.676, -16.2601,113.491 32.4,94.09' /></g><g partID='857178250'><line stroke-linecap='round' stroke='#8c0000' x1='104.4' y1='68.885' x2='85.4352' y2='79.69' stroke-width='3.2' /><line stroke-linecap='round' stroke='#cc1414' x1='104.4' y1='68.885' x2='85.4352' y2='79.69' stroke-width='1.6' /></g><g partID='857178870'><line stroke-linecap='round' stroke='#8c0000' x1='186.235' y1='79.69' x2='208.8' y2='68.885' stroke-width='3.2' /><line stroke-linecap='round' stroke='#cc1414' x1='186.235' y1='79.69' x2='208.8' y2='68.885' stroke-width='1.6' /></g><g partID='857179330'><path stroke-linecap='round' fill='none' stroke-width='3.2' stroke='#8c0000' d='M104.4,68.885C156.115,97.3791, 120.837,120.703 86.3646,133.663' /><path stroke-linecap='round' fill='none' stroke-width='1.6' stroke='#cc1414' d='M104.4,68.885C156.115,97.3791, 120.837,120.703 86.3646,133.663' /></g><g partID='857189530'><path stroke-linecap='round' fill='none' stroke-width='3.2' stroke='#8c0000' d='M86.3646,133.663C59.8881,143.576, 41.581,126.176 32.4,158.89' /><path stroke-linecap='round' fill='none' stroke-width='1.6' stroke='#cc1414' d='M86.3646,133.663C59.8881,143.576, 41.581,126.176 32.4,158.89' /></g><g partID='857180580'><path stroke-linecap='round' fill='none' stroke-width='3.2' stroke='#8c0000' d='M165.6,32.89C224.557,29.7497, 174.126,55.1067 208.8,68.885' /><path stroke-linecap='round' fill='none' stroke-width='1.6' stroke='#cc1414' d='M165.6,32.89C224.557,29.7497, 174.126,55.1067 208.8,68.885' /></g><g partID='857182230'><path stroke-linecap='round' fill='none' stroke-width='3.2' stroke='#d6d63a' d='M85.4352,122.89C106.102,145.02, 81.2807,141.044 82.8,158.89' /><path stroke-linecap='round' fill='none' stroke-width='1.6' stroke='#fff800' d='M85.4352,122.89C106.102,145.02, 81.2807,141.044 82.8,158.89' /></g><g partID='857182320'><path stroke-linecap='round' fill='none' stroke-width='3.2' stroke='#d6d63a' d='M85.4352,122.89C131.965,83.0824, 185.095,180.876 186.235,122.89' /><path stroke-linecap='round' fill='none' stroke-width='1.6' stroke='#fff800' d='M85.4352,122.89C131.965,83.0824, 185.095,180.876 186.235,122.89' /></g><g partID='857182390'><path stroke-linecap='round' fill='none' stroke-width='3.2' stroke='#00a527' d='M32.4,122.895C-54.9275,222.688, 130.557,169.594 90,158.89' /><path stroke-linecap='round' fill='none' stroke-width='1.6' stroke='#25cc35' d='M32.4,122.895C-54.9275,222.688, 130.557,169.594 90,158.89' /></g><g partID='857182520'><line stroke-linecap='round' stroke='#00a527' x1='32.4' y1='122.895' x2='57.6' y2='122.89' stroke-width='3.2' /><line stroke-linecap='round' stroke='#25cc35' x1='32.4' y1='122.895' x2='57.6' y2='122.89' stroke-width='1.6' /></g><g partID='857183940'><path stroke-linecap='round' fill='none' stroke-width='3.2' stroke='#1b5bb3' d='M39.5698,133.767C72.1152,131.681, 79.4171,144.92 75.6,158.89' /><path stroke-linecap='round' fill='none' stroke-width='1.6' stroke='#418dd9' d='M39.5698,133.767C72.1152,131.681, 79.4171,144.92 75.6,158.89' /></g><g partID='857182630'><path stroke-linecap='round' fill='none' stroke-width='3.2' stroke='#1b5bb3' d='M57.6,43.69C-10.119,47.8637, 2.87149,135.188 39.5698,133.767' /><path stroke-linecap='round' fill='none' stroke-width='1.6' stroke='#418dd9' d='M57.6,43.69C-10.119,47.8637, 2.87149,135.188 39.5698,133.767' /></g><g partID='857182680'><line stroke-linecap='round' stroke='#1b5bb3' x1='85.4352' y1='43.69' x2='158.4' y2='43.69' stroke-width='3.2' /><line stroke-linecap='round' stroke='#418dd9' x1='85.4352' y1='43.69' x2='158.4' y2='43.69' stroke-width='1.6' /></g><g partID='857182770'><path stroke-linecap='round' fill='none' stroke-width='3.2' stroke='#00a527' d='M32.4,122.895C39.5327,184.071, 112.61,112.851 158.4,122.89' /><path stroke-linecap='round' fill='none' stroke-width='1.6' stroke='#25cc35' d='M32.4,122.895C39.5327,184.071, 112.61,112.851 158.4,122.89' /></g><g partID='857182880'><line stroke-linecap='round' stroke='#ad6a38' x1='85.4352' y1='86.89' x2='104.4' y2='97.69' stroke-width='3.2' /><line stroke-linecap='round' stroke='#ef6100' x1='85.4352' y1='86.89' x2='104.4' y2='97.69' stroke-width='1.6' /></g><g partID='857183040'><line stroke-linecap='round' stroke='#ad6a38' x1='186.235' y1='86.89' x2='208.8' y2='97.69' stroke-width='3.2' /><line stroke-linecap='round' stroke='#ef6100' x1='186.235' y1='86.89' x2='208.8' y2='97.69' stroke-width='1.6' /></g><g partID='857183280'><line stroke-linecap='round' stroke='#000000' x1='57.6' y1='101.29' x2='32.4' y2='94.09' stroke-width='3.2' /><line stroke-linecap='round' stroke='#404040' x1='57.6' y1='101.29' x2='32.4' y2='94.09' stroke-width='1.6' /></g><g partID='857183700'><path stroke-linecap='round' fill='none' stroke-width='3.2' stroke='#8c0000' d='M104.4,68.885C76.4805,-14.8006, 207.782,-5.95597 165.6,32.89' /><path stroke-linecap='round' fill='none' stroke-width='1.6' stroke='#cc1414' d='M104.4,68.885C76.4805,-14.8006, 207.782,-5.95597 165.6,32.89' /></g></svg>