<?xml version='1.0' encoding='UTF-8' standalone='no'?>
<!-- Created with Fritzing (http://www.fritzing.org/) -->
<svg xmlns:svg='http://www.w3.org/2000/svg' xmlns='http://www.w3.org/2000/svg' version='1.2' baseProfile='tiny' x='0in' y='0in' width='3.04948in' height='2.10933in' viewBox='0 0 219.563 151.872' >
<g partID='857143330'><g transform='translate(120.82,50.3936)' ><g  id="breadboard">
 <g  id="icon">
  <path  d="M0,0l0,93.6l50.4,0L50.4,0L0,0M41.76,3.6c0,-0.795,0.646,-1.439,1.44,-1.439s1.44,0.645,1.44,1.439c0,0.796,-0.646,1.44,-1.44,1.44S41.76,4.396,41.76,3.6zM34.56,3.6c0,-0.795,0.645,-1.439,1.439,-1.439c0.796,0,1.44,0.645,1.44,1.439c0,0.796,-0.645,1.44,-1.44,1.44C35.205,5.04,34.56,4.396,34.56,3.6zM27.36,3.6c0,-0.795,0.645,-1.439,1.439,-1.439c0.796,0,1.44,0.645,1.44,1.439c0,0.796,-0.645,1.44,-1.44,1.44C28.005,5.04,27.36,4.396,27.36,3.6zM20.16,3.6c0,-0.795,0.645,-1.439,1.44,-1.439c0.795,0,1.439,0.645,1.439,1.439c0,0.796,-0.645,1.44,-1.439,1.44C20.804,5.04,20.16,4.396,20.16,3.6zM12.96,3.6c0,-0.795,0.645,-1.439,1.44,-1.439c0.795,0,1.439,0.645,1.439,1.439c0,0.796,-0.645,1.44,-1.439,1.44C13.604,5.04,12.96,4.396,12.96,3.6zM5.76,3.6c0,-0.795,0.646,-1.439,1.44,-1.439S8.64,2.805,8.64,3.6c0,0.796,-0.646,1.44,-1.44,1.44S5.76,4.396,5.76,3.6zM37.08,42.84c0,-0.795,0.645,-1.44,1.44,-1.44c0.795,0,1.439,0.646,1.439,1.44s-0.645,1.44,-1.439,1.44C37.724,44.281,37.08,43.635,37.08,42.84zM37.08,35.64c0,-0.795,0.645,-1.439,1.44,-1.439c0.795,0,1.439,0.645,1.439,1.439c0,0.796,-0.645,1.44,-1.439,1.44C37.724,37.08,37.08,36.436,37.08,35.64zM37.08,72.36c0,-0.795,0.645,-1.439,1.44,-1.439c0.795,0,1.439,0.645,1.439,1.439c0,0.796,-0.645,1.44,-1.439,1.44C37.724,73.8,37.08,73.156,37.08,72.36zM37.08,65.16c0,-0.796,0.645,-1.44,1.44,-1.44c0.795,0,1.439,0.645,1.439,1.44c0,0.795,-0.645,1.439,-1.439,1.439C37.724,66.6,37.08,65.955,37.08,65.16zM45.36,10.8c0,-0.795,0.645,-1.44,1.439,-1.44c0.796,0,1.44,0.646,1.44,1.44s-0.645,1.44,-1.44,1.44C46.005,12.24,45.36,11.595,45.36,10.8zM45.36,18c0,-0.796,0.645,-1.44,1.439,-1.44c0.796,0,1.44,0.645,1.44,1.44c0,0.795,-0.645,1.439,-1.44,1.439C46.005,19.44,45.36,18.795,45.36,18zM45.36,25.2c0,-0.796,0.645,-1.44,1.439,-1.44c0.796,0,1.44,0.645,1.44,1.44c0,0.795,-0.645,1.439,-1.44,1.439C46.005,26.64,45.36,25.995,45.36,25.2zM45.36,32.4c0,-0.795,0.645,-1.439,1.439,-1.439c0.796,0,1.44,0.645,1.44,1.439c0,0.796,-0.645,1.44,-1.44,1.44C46.005,33.84,45.36,33.196,45.36,32.4zM45.36,39.6c0,-0.795,0.645,-1.439,1.439,-1.439c0.796,0,1.44,0.645,1.44,1.439c0,0.796,-0.645,1.44,-1.44,1.44C46.005,41.04,45.36,40.396,45.36,39.6zM45.36,46.8c0,-0.795,0.645,-1.44,1.439,-1.44c0.796,0,1.44,0.646,1.44,1.44s-0.645,1.44,-1.44,1.44C46.005,48.24,45.36,47.595,45.36,46.8zM45.36,54c0,-0.796,0.645,-1.44,1.439,-1.44c0.796,0,1.44,0.645,1.44,1.44c0,0.795,-0.645,1.439,-1.44,1.439C46.005,55.44,45.36,54.795,45.36,54zM45.36,61.2c0,-0.796,0.645,-1.44,1.439,-1.44c0.796,0,1.44,0.645,1.44,1.44l0,0c0,0.795,-0.645,1.439,-1.44,1.439C46.005,62.64,45.36,61.995,45.36,61.2zM45.36,68.4c0,-0.795,0.645,-1.439,1.439,-1.439c0.796,0,1.44,0.645,1.44,1.439l0,0c0,0.796,-0.645,1.44,-1.44,1.44C46.005,69.84,45.36,69.196,45.36,68.4zM45.36,75.6c0,-0.795,0.645,-1.439,1.439,-1.439c0.796,0,1.44,0.645,1.44,1.439c0,0.796,-0.645,1.44,-1.44,1.44C46.005,77.04,45.36,76.396,45.36,75.6zM45.36,82.8c0,-0.795,0.645,-1.44,1.439,-1.44c0.796,0,1.44,0.646,1.44,1.44s-0.645,1.44,-1.44,1.44C46.005,84.24,45.36,83.595,45.36,82.8zM45.36,90c0,-0.796,0.645,-1.44,1.439,-1.44c0.796,0,1.44,0.645,1.44,1.44c0,0.795,-0.645,1.439,-1.44,1.439C46.005,91.44,45.36,90.795,45.36,90zM2.16,90c0,-0.796,0.645,-1.44,1.439,-1.44c0.796,-0.001,1.44,0.644,1.44,1.439c0,0,0,0,0,0.001c0,0.795,-0.645,1.439,-1.439,1.439C2.804,91.44,2.16,90.795,2.16,90zM2.16,82.8c0,-0.795,0.645,-1.44,1.439,-1.44c0.796,0,1.44,0.645,1.44,1.439L5.039,82.8c0,0.795,-0.645,1.44,-1.439,1.44C2.804,84.24,2.16,83.595,2.16,82.8zM2.16,75.6c0,-0.795,0.645,-1.44,1.439,-1.44c0.796,0,1.44,0.645,1.44,1.439c0,0.001,0,0.001,0,0.001c0,0.796,-0.645,1.44,-1.439,1.44C2.804,77.04,2.16,76.396,2.16,75.6zM2.16,68.4c0,-0.795,0.645,-1.439,1.439,-1.44c0.796,0,1.44,0.645,1.44,1.439c0,0.001,0,0.001,0,0.001c0,0.796,-0.645,1.44,-1.439,1.44C2.804,69.84,2.16,69.196,2.16,68.4zM2.16,61.2c0,-0.796,0.645,-1.44,1.439,-1.44c0.796,-0.001,1.44,0.644,1.44,1.439c0,0,0,0,0,0.001c0,0.795,-0.645,1.439,-1.439,1.439C2.804,62.64,2.16,61.995,2.16,61.2zM2.16,54c0,-0.796,0.645,-1.44,1.439,-1.44c0.796,-0.001,1.44,0.644,1.44,1.439c0,0,0,0,0,0.001c0,0.795,-0.645,1.439,-1.439,1.439C2.804,55.44,2.16,54.795,2.16,54zM2.16,46.8c0,-0.795,0.645,-1.44,1.439,-1.44c0.796,0,1.44,0.645,1.44,1.439L5.039,46.8c0,0.795,-0.645,1.44,-1.439,1.44C2.804,48.24,2.16,47.595,2.16,46.8zM2.16,39.6c0,-0.795,0.645,-1.44,1.439,-1.44c0.796,0,1.44,0.645,1.44,1.439c0,0.001,0,0.001,0,0.001c0,0.796,-0.645,1.44,-1.439,1.44C2.804,41.04,2.16,40.396,2.16,39.6zM2.16,32.4c0,-0.795,0.645,-1.439,1.439,-1.44c0.796,0,1.44,0.645,1.44,1.439c0,0.001,0,0.001,0,0.001c0,0.796,-0.645,1.44,-1.439,1.44C2.804,33.84,2.16,33.196,2.16,32.4zM2.16,25.2c0,-0.796,0.645,-1.44,1.439,-1.44c0.796,-0.001,1.44,0.644,1.44,1.439c0,0,0,0,0,0.001c0,0.795,-0.645,1.439,-1.439,1.439C2.804,26.64,2.16,25.995,2.16,25.2L2.16,25.2zM2.16,18c0,-0.796,0.645,-1.44,1.439,-1.44c0.796,-0.001,1.44,0.644,1.44,1.439c0,0,0,0,0,0.001c0,0.795,-0.645,1.439,-1.439,1.439C2.804,19.44,2.16,18.795,2.16,18zM2.16,10.8c0,-0.795,0.645,-1.44,1.439,-1.44c0.796,0,1.44,0.645,1.44,1.439L5.039,10.8c0,0.795,-0.645,1.44,-1.439,1.44C2.804,12.24,2.16,11.595,2.16,10.8z" fill="#0F7391"/>
  <g >
   <path  d="M15.075,46.233c0,0.312,-0.255,0.567,-0.567,0.567l-2.792,0c-0.312,0,-0.567,-0.255,-0.567,-0.567l0,-7.241c0,-0.312,0.255,-0.567,0.567,-0.567l2.792,0c0.312,0,0.567,0.255,0.567,0.567L15.075,46.233z" fill="#BFBFBF"/>
   <path  d="M14.731,45.386c0,0.374,-0.306,0.68,-0.68,0.68l-1.878,0c-0.374,0,-0.68,-0.306,-0.68,-0.68l0,-5.548c0,-0.374,0.306,-0.68,0.68,-0.68l1.878,0c0.374,0,0.68,0.306,0.68,0.68L14.731,45.386z" fill="#D6D6D6"/>
   <path  d="M11.149,39.138c0,-0.312,0.255,-0.567,0.567,-0.567l2.792,0c0.312,0,0.567,0.255,0.567,0.567l0,-0.146c0,-0.312,-0.255,-0.567,-0.567,-0.567l-2.792,0c-0.312,0,-0.567,0.255,-0.567,0.567L11.149,39.138z" fill="#CBCBCB"/>
   <path  d="M11.149,46.124c0,0.312,0.255,0.567,0.567,0.567l2.792,0c0.312,0,0.567,-0.255,0.567,-0.567l0,0.109c0,0.312,-0.255,0.567,-0.567,0.567l-2.792,0c-0.312,0,-0.567,-0.255,-0.567,-0.567L11.149,46.124z" fill="#ACACAC"/>
   <path  d="M11.493,39.839c0,-0.374,0.306,-0.68,0.68,-0.68l1.878,0c0.374,0,0.68,0.306,0.68,0.68l0,0.146c0,-0.374,-0.306,-0.68,-0.68,-0.68l-1.878,0c-0.374,0,-0.68,0.306,-0.68,0.68L11.493,39.839z" fill="#DDDDDD"/>
   <path  d="M14.731,45.277c0,0.374,-0.306,0.68,-0.68,0.68l-1.878,0c-0.374,0,-0.68,-0.306,-0.68,-0.68l0,0.109c0,0.374,0.306,0.68,0.68,0.68l1.878,0c0.374,0,0.68,-0.306,0.68,-0.68L14.731,45.277z" fill="#CCCCCC"/>
  </g>
  <g >
   <circle  fill="none" cy="68.4" cx="3.6" r="2.88" stroke-width="0.3" stroke="#FFFFFF"/>
   <circle  fill="none" cy="61.2" cx="3.6" r="2.88" stroke-width="0.3" stroke="#FFFFFF"/>
   <circle  fill="none" cy="46.8" cx="3.6" r="2.88" stroke-width="0.3" stroke="#FFFFFF"/>
   <circle  fill="none" cy="90" cx="3.6" r="2.88" stroke-width="0.3" stroke="#FFFFFF"/>
   <circle  fill="none" cy="90" cx="46.8" r="2.88" stroke-width="0.3" stroke="#FFFFFF"/>
   <circle  fill="none" cy="82.8" cx="46.8" r="2.88" stroke-width="0.3" stroke="#FFFFFF"/>
   <g transform="matrix(1, 0, 0, 1, 16.2292, 15.4822)">
    <text  fill="#FFFFFF" font-family="'OCRA'" font-size="3">Arduino Pro</text>
   </g>
   <g transform="matrix(1, 0, 0, 1, 22.0696, 12.2395)">
    <text  fill="#FFFFFF" font-family="'OCRA'" font-size="3">Mini</text>
   </g>
   <g transform="matrix(1, 0, 0, 1, 20.7917, 77.8323)">
    <text  fill="#FFFFFF" font-family="'OCRA'" font-size="2.5">Reset</text>
   </g>
   <g transform="matrix(-1.83697e-16, -1, 1, -1.83697e-16, 9.7195, 91.0803)">
    <text  fill="#FFFFFF" font-family="'OCRA'" font-size="2.5">9</text>
   </g>
   <g transform="matrix(-1.83697e-16, -1, 1, -1.83697e-16, 9.7195, 83.8792)">
    <text  fill="#FFFFFF" font-family="'OCRA'" font-size="2.5">8</text>
   </g>
   <g transform="matrix(-1.83697e-16, -1, 1, -1.83697e-16, 9.7195, 76.3196)">
    <text  fill="#FFFFFF" font-family="'OCRA'" font-size="2.5">7</text>
   </g>
   <g transform="matrix(-1.83697e-16, -1, 1, -1.83697e-16, 9.7195, 69.4797)">
    <text  fill="#FFFFFF" font-family="'OCRA'" font-size="2.5">6</text>
   </g>
   <g transform="matrix(-1.83697e-16, -1, 1, -1.83697e-16, 9.7195, 62.2795)">
    <text  fill="#FFFFFF" font-family="'OCRA'" font-size="2.5">5</text>
   </g>
   <g transform="matrix(-1.83697e-16, -1, 1, -1.83697e-16, 9.7195, 55.0803)">
    <text  fill="#FFFFFF" font-family="'OCRA'" font-size="2.5">4</text>
   </g>
   <g transform="matrix(-1.83697e-16, -1, 1, -1.83697e-16, 9.7195, 47.8792)">
    <text  fill="#FFFFFF" font-family="'OCRA'" font-size="2.5">3</text>
   </g>
   <g transform="matrix(-1.83697e-16, -1, 1, -1.83697e-16, 9.3591, 40.3196)">
    <text  fill="#FFFFFF" font-family="'OCRA'" font-size="2.5">2</text>
   </g>
   <g transform="matrix(-1.83697e-16, -1, 1, -1.83697e-16, 9.3591, 35.6399)">
    <text  fill="#FFFFFF" font-family="'OCRA'" font-size="2.5">GND</text>
   </g>
   <g transform="matrix(-1.83697e-16, -1, 1, -1.83697e-16, 9.3591, 28.0813)">
    <text  fill="#FFFFFF" font-family="'OCRA'" font-size="2.5">RST</text>
   </g>
   <g transform="matrix(-1.83697e-16, -1, 1, -1.83697e-16, 9.3591, 20.8792)">
    <text  fill="#FFFFFF" font-family="'OCRA'" font-size="2.5">RXI</text>
   </g>
   <g transform="matrix(-1.83697e-16, -1, 1, -1.83697e-16, 9.3591, 13.6799)">
    <text  fill="#FFFFFF" font-family="'OCRA'" font-size="2.5">TXO</text>
   </g>
   <g transform="matrix(1, 0, 0, 1, 33.1199, 8.7483)">
    <text  fill="#FFFFFF" font-family="'OCRA'" font-size="2.5">TXO</text>
   </g>
   <g transform="matrix(1, 0, 0, 1, 26.28, 8.7483)">
    <text  fill="#FFFFFF" font-family="'OCRA'" font-size="2.5">RXI</text>
   </g>
   <g transform="matrix(-1.83697e-16, -1, 1, -1.83697e-16, 43.5593, 13.6799)">
    <text  fill="#FFFFFF" font-family="'OCRA'" font-size="2.5">RAW</text>
   </g>
   <g transform="matrix(-1.83697e-16, -1, 1, -1.83697e-16, 43.5593, 20.8792)">
    <text  fill="#FFFFFF" font-family="'OCRA'" font-size="2.5">GND</text>
   </g>
   <g transform="matrix(-1.83697e-16, -1, 1, -1.83697e-16, 43.5593, 28.0813)">
    <text  fill="#FFFFFF" font-family="'OCRA'" font-size="2.5">RST</text>
   </g>
   <g transform="matrix(-1.83697e-16, -1, 1, -1.83697e-16, 43.5593, 35.2795)">
    <text  fill="#FFFFFF" font-family="'OCRA'" font-size="2.5">VCC</text>
   </g>
   <g transform="matrix(-1.83697e-16, -1, 1, -1.83697e-16, 43.5593, 41.3997)">
    <text  fill="#FFFFFF" font-family="'OCRA'" font-size="2.5">A3</text>
   </g>
   <g transform="matrix(-1.83697e-16, -1, 1, -1.83697e-16, 43.5593, 48.5999)">
    <text  fill="#FFFFFF" font-family="'OCRA'" font-size="2.5">A2</text>
   </g>
   <g transform="matrix(-1.83697e-16, -1, 1, -1.83697e-16, 43.5593, 56.1604)">
    <text  fill="#FFFFFF" font-family="'OCRA'" font-size="2.5">A1</text>
   </g>
   <g transform="matrix(-1.83697e-16, -1, 1, -1.83697e-16, 35.2263, 37.0081)">
    <text  fill="#FFFFFF" font-family="'OCRA'" font-size="2.5">A5</text>
   </g>
   <g transform="matrix(-1.83697e-16, -1, 1, -1.83697e-16, 35.2263, 44.5686)">
    <text  fill="#FFFFFF" font-family="'OCRA'" font-size="2.5">A4</text>
   </g>
   <g transform="matrix(-1.83697e-16, -1, 1, -1.83697e-16, 35.2263, 66.7795)">
    <text  fill="#FFFFFF" font-family="'OCRA'" font-size="2.5">A7</text>
   </g>
   <g transform="matrix(-1.83697e-16, -1, 1, -1.83697e-16, 35.2263, 74.3401)">
    <text  fill="#FFFFFF" font-family="'OCRA'" font-size="2.5">A6</text>
   </g>
   <g transform="matrix(-1.83697e-16, -1, 1, -1.83697e-16, 43.5593, 63.3596)">
    <text  fill="#FFFFFF" font-family="'OCRA'" font-size="2.5">A0</text>
   </g>
   <g transform="matrix(-1.83697e-16, -1, 1, -1.83697e-16, 43.5593, 70.5598)">
    <text  fill="#FFFFFF" font-family="'OCRA'" font-size="2.5">13</text>
   </g>
   <g transform="matrix(-1.83697e-16, -1, 1, -1.83697e-16, 43.5593, 77.76)">
    <text  fill="#FFFFFF" font-family="'OCRA'" font-size="2.5">12</text>
   </g>
   <g transform="matrix(-1.83697e-16, -1, 1, -1.83697e-16, 43.5593, 84.9592)">
    <text  fill="#FFFFFF" font-family="'OCRA'" font-size="2.5">11</text>
   </g>
   <g transform="matrix(-1.83697e-16, -1, 1, -1.83697e-16, 43.5593, 92.1604)">
    <text  fill="#FFFFFF" font-family="'OCRA'" font-size="2.5">10</text>
   </g>
   <g transform="matrix(1, 0, 0, 1, 18.7195, 8.7483)">
    <text  fill="#FFFFFF" font-family="'OCRA'" font-size="2.5">VCC</text>
   </g>
   <g transform="matrix(1, 0, 0, 1, 11.5198, 8.7483)">
    <text  fill="#FFFFFF" font-family="'OCRA'" font-size="2.5">GND</text>
   </g>
   <g transform="matrix(-1.83697e-16, -1, 1, -1.83697e-16, 3.5994, 6.4797)">
    <text  fill="#FFFFFF" font-family="'OCRA'" font-size="2.5">BLK</text>
   </g>
   <g transform="matrix(-1.83697e-16, -1, 1, -1.83697e-16, 48.9597, 6.4797)">
    <text  fill="#FFFFFF" font-family="'OCRA'" font-size="2.5">GRN</text>
   </g>
   <path  d="M13.068,68.421L12.931,68.4M12.931,68.4l-0.269,-0.021M12.665,68.379L12.398,68.4M12.398,68.4L12.2,68.452M12.2,68.452l-0.184,0.091M12.016,68.543l-0.161,0.126M11.855,68.669l-0.134,0.154M11.721,68.823l-0.113,0.208M11.608,69.031l-0.068,0.228M11.54,69.259l-0.02,0.235M11.52,69.494l0,4.299M11.52,73.793l1.382,-1.558M12.902,72.238l0.246,-0.226M13.148,72.012l0.287,-0.171M13.435,71.841l0.104,-0.038M13.541,71.803l0.11,-0.019M13.651,71.784L14.3,71.784M14.3,71.784l0.388,-0.035M14.685,71.749l0.374,-0.104M15.059,71.645l0.349,-0.17M15.408,71.475l0.328,-0.23M15.736,71.242l0.293,-0.275M16.029,70.967l0.25,-0.313M16.279,70.654l0.269,-0.477M16.548,70.177l0.18,-0.517M16.725,69.66l0.082,-0.541M16.807,69.119l-0.019,-0.549M16.791,68.573l-0.059,-0.295M16.732,68.279l-0.104,-0.281M16.631,67.995l-0.143,-0.267M16.488,67.731l-0.257,-0.32M16.231,67.408l-0.319,-0.264M15.912,67.147l0,0.252M15.912,67.399l-0.005,0.041M15.907,67.44l-0.017,0.039M15.89,67.479l-0.084,0.104M15.806,67.582l-0.11,0.076M15.696,67.658l-0.058,0.021M15.638,67.68l-0.162,0.019M15.476,67.698l-0.16,-0.028M15.316,67.668l-0.146,-0.075M15.171,67.593l-0.26,-0.188M14.911,67.406l-0.119,-0.104M14.792,67.303l-0.104,-0.12M14.688,67.183l-0.083,-0.135M14.605,67.048l-0.063,-0.146M14.545,66.903l-0.019,-0.093M14.526,66.81l0.004,-0.095M14.53,66.715l0.047,-0.156M14.577,66.559l0.086,-0.139M14.663,66.42l0.119,-0.11M14.782,66.31l0.144,-0.077M14.926,66.233l0.146,-0.041M15.071,66.192l0.149,-0.017M15.22,66.175l0.173,0M15.393,66.175L15.393,66.175M15.393,66.175l-0.007,-0.007M15.386,66.168l-0.123,-0.098M15.263,66.073l-0.146,-0.063M15.12,66.009l-0.101,-0.043M15.019,65.966l-0.064,-0.028M14.955,65.938l-0.249,-0.063M14.706,65.875l-0.255,-0.024M14.451,65.851l-0.247,0.021M14.204,65.869l-0.237,0.064M13.967,65.936l-0.222,0.109M13.745,66.045l-0.221,0.159M13.524,66.204l-0.197,0.187M13.327,66.391l-0.122,0.171M13.205,66.562l-0.075,0.196M13.13,66.758l-0.022,0.209M13.105,66.967l0.025,0.209M13.133,67.176l0.08,0.194M13.213,67.37l0.336,0.498M13.549,67.868l0.412,0.438M13.961,68.307l0.108,0.127M14.069,68.434l0.072,0.151M14.141,68.585l0.029,0.164M14.173,68.749l-0.014,0.167M14.159,68.916l-0.056,0.157M14.103,69.073l-0.097,0.139M14.009,69.212l-0.127,0.107M13.882,69.323l-0.158,0.087M13.721,69.406l-0.174,0.06M13.55,69.466l-0.179,0.028M13.371,69.494l-0.21,-0.013M13.161,69.484l-0.201,-0.061M12.96,69.423l-0.18,-0.108M12.78,69.315l-0.095,-0.101M12.685,69.214l-0.063,-0.123M12.622,69.091l-0.026,-0.126M12.594,68.965l0,-0.13M12.594,68.835l0.026,-0.126M12.622,68.709l0.025,-0.048M12.647,68.661l0.039,-0.038M12.686,68.623l0.236,-0.173M12.925,68.45l0.046,-0.023M12.969,68.427l0.05,-0.011M13.018,68.416l0.05,0.005M11.52,73.728l0.058,0M11.52,73.656l0.122,0M11.52,73.584l0.186,0M11.52,73.512l0.25,0M11.52,73.44l0.313,0M11.52,73.368l0.378,0M11.52,73.296l0.439,0M11.52,73.224l0.506,0M11.52,73.152l0.567,0M11.52,73.08l0.634,0M11.52,73.008l0.695,0M11.52,72.936l0.762,0M11.52,72.865l0.825,0M11.52,72.792l0.89,0M11.52,72.72l0.953,0M11.52,72.648l1.018,0M11.52,72.576l1.081,0M11.52,72.504l1.146,0M11.52,72.432l1.209,0M11.52,72.36l1.271,0M11.52,72.288l1.337,0M11.52,72.216l1.403,0M11.52,72.144l1.482,0M11.52,72.073l1.563,0M11.52,72l1.646,0M11.52,71.928l1.77,0M11.52,71.856l1.891,0M11.52,71.784L14.3,71.784M11.52,71.712l3.298,0M11.52,71.64l3.549,0M11.52,71.568l3.694,0M11.52,71.496l3.844,0M11.52,71.424l3.959,0M11.52,71.352l4.062,0M11.52,71.281l4.163,0M11.52,71.208l4.253,0M11.52,71.136l4.329,0M11.52,71.064l4.404,0M11.52,70.992l4.48,0M11.52,70.92l4.546,0M11.52,70.848l4.604,0M11.52,70.776l4.661,0M11.52,70.704l4.719,0M11.52,70.632l4.771,0M11.52,70.56l4.812,0M11.52,70.488l4.853,0M11.52,70.416l4.893,0M11.52,70.344l4.934,0M11.52,70.272l4.974,0M11.52,70.2l5.015,0M11.52,70.128l5.044,0M11.52,70.056l5.067,0M11.52,69.984l5.094,0M11.52,69.912l5.119,0M11.52,69.84l5.144,0M11.52,69.768l5.168,0M11.52,69.696l5.191,0M11.52,69.624l5.211,0M11.52,69.552l5.222,0M11.521,69.48l1.626,0M13.462,69.48l3.291,0M11.527,69.408l1.408,0M13.721,69.408l3.042,0M11.534,69.336l1.282,0M13.855,69.336l2.92,0M11.54,69.264l1.192,0M13.949,69.264l2.837,0M11.56,69.192l1.111,0M14.023,69.192l2.771,0M11.582,69.12l1.057,0M14.072,69.12l2.735,0M11.603,69.048l1.009,0M14.113,69.048l2.692,0M11.639,68.976l0.957,0M14.138,68.976l2.665,0M11.678,68.904l0.913,0M14.16,68.904l2.641,0M11.717,68.832l0.879,0M14.166,68.832l2.633,0M11.777,68.76l0.833,0M14.172,68.76l2.625,0M11.839,68.688l0.795,0M14.161,68.688l2.633,0M11.923,68.615l0.773,0M14.147,68.615l2.645,0M12.015,68.544l0.778,0M14.122,68.544l2.663,0M12.16,68.472l0.734,0M14.088,68.472l2.685,0M12.398,68.4l0.533,0M14.041,68.4l2.715,0M13.979,68.328l2.763,0M13.914,68.256l2.812,0M13.845,68.184l2.853,0M13.777,68.112l2.896,0M13.71,68.04l2.938,0M13.642,67.968l2.974,0M13.574,67.896l3.003,0M13.518,67.823l3.021,0M13.469,67.752l3.028,0M13.421,67.68l1.961,0M15.638,67.68l0.81,0M13.373,67.608l1.826,0M15.769,67.608l0.621,0M13.324,67.536l1.767,0M15.844,67.536l0.488,0M13.275,67.464l1.716,0M15.896,67.464l0.38,0M13.226,67.392l1.668,0M15.912,67.392l0.3,0M13.192,67.32l1.618,0M15.912,67.32l0.212,0M13.163,67.248l1.581,0M15.912,67.248l0.124,0M13.134,67.176l1.553,0M15.912,67.176l0.036,0M13.123,67.104l1.519,0M13.114,67.031l1.484,0M13.105,66.96l1.463,0M13.114,66.888l1.428,0M13.123,66.816l1.404,0M13.134,66.744l1.396,0M13.163,66.672l1.38,0M13.19,66.6l1.374,0M13.229,66.528l1.367,0M13.281,66.456l1.359,0M13.335,66.384l1.367,0M13.411,66.312l1.368,0M13.487,66.24l1.426,0M13.575,66.168l1.813,0M13.675,66.096l1.619,0M13.788,66.024l1.365,0M13.933,65.952l1.054,0M14.168,65.88l0.559,0" fill="none" stroke-width="0.072" stroke-linecap="round" stroke="#FFFFFF"/>
   <polygon  fill="#333333" points="39.251,54,25.2,68.051,11.149,54,24.488,40.66,25.912,40.66"/>
   <polygon  fill="#1F1F1F" points="39.251,54,25.2,68.051,11.149,54,11.149,54.344,25.2,68.395,39.251,54.344"/>
   <rect  y="12.603" x="10.397" fill="#333333" width="5.243" height="11.202"/>
   <path  d="M15.623,14.355l0,-1.752l-5.223,0l0,1.752L15.623,14.355z" fill="#CCCCCC"/>
   <path  d="M15.623,25.557l0,-1.752l-5.223,0l0,1.752L15.623,25.557z" fill="#CCCCCC"/>
   <path  d="M10.397,23.807l0,-1.753" fill="#D1C690"/>
   <line  fill="none" y1="13.675" y2="13.675" x1="10.401" x2="10.401"/>
   <rect  y="12.603" opacity="0.1" x="10.413" width="0.105" enable-background="new    " height="12.954"/>
   <rect  y="12.603" opacity="0.2" x="15.517" fill="#FFFFFF" width="0.105" enable-background="new    " height="12.954"/>
   <g transform="matrix(0.7071, 0.7071, -0.7071, 0.7071, 13.5364, 53.3733)">
    <text  fill="#CCCCCC" font-family="'OCRA'" font-size="2.6726">ATmega328</text>
   </g>
   <rect  y="76.367" x="11.863" fill="#534741" width="2.559" height="5.67"/>
   <rect  y="76.369" opacity="0.2" x="14.399" width="0.021" enable-background="new    " height="5.67"/>
   <rect  y="76.368" opacity="0.2" x="11.862" fill="#FFFFFF" width="0.031" enable-background="new    " height="5.671"/>
   <path  d="M11.862,77.189L11.862,77.189L11.862,77.189l0,0.065l0,0c0.171,0.06,0.813,0.1,1.002,0.1c0.199,0,1.379,-0.035,1.56,-0.1l0,-0.891l-2.562,0L11.862,77.189z" fill="#DCDCDC"/>
   <path  d="M11.933,81.151l-0.071,0l0,0.887l2.561,0l0,-0.887c-0.184,-0.063,-1.354,-0.139,-1.559,-0.139C12.63,81.013,12.138,81.067,11.933,81.151z" fill="#DCDCDC"/>
   <rect  y="81.151" opacity="0.15" x="14.39" width="0.029" enable-background="new    " height="0.887"/>
   <rect  y="81.151" opacity="0.5" x="11.863" fill="#FFFFFF" width="0.031" enable-background="new    " height="0.887"/>
   <path  d="M14.422,76.366l0,0.891" fill="#D1C690"/>
   <rect  y="76.367" opacity="0.15" x="14.39" width="0.029" enable-background="new    " height="0.888"/>
   <rect  y="76.366" opacity="0.5" x="11.863" fill="#FFFFFF" width="0.03" enable-background="new    " height="0.89"/>
   <line  fill="none" y1="81.495" y2="81.495" x1="14.421" x2="14.421"/>
   <rect  y="76.355" opacity="0.1" x="11.871" width="2.542" enable-background="new    " height="0.116"/>
   <rect  y="81.921" opacity="0.2" x="11.871" fill="#FFFFFF" width="2.542" enable-background="new    " height="0.116"/>
   <rect  y="35.043" x="18.257" fill="#534741" width="5.67" height="2.56"/>
   <rect  y="35.045" opacity="0.2" x="18.257" width="5.671" enable-background="new    " height="0.021"/>
   <rect  y="37.573" opacity="0.2" x="18.256" fill="#FFFFFF" width="5.67" enable-background="new    " height="0.03"/>
   <path  d="M19.078,37.603L19.078,37.603L19.078,37.603l0.063,0l0,0c0.063,-0.171,0.103,-0.812,0.103,-1.002c0,-0.199,-0.035,-1.379,-0.103,-1.557l-0.888,0l0,2.559L19.078,37.603z" fill="#DCDCDC"/>
   <path  d="M23.04,37.531l0,0.071l0.887,0l0,-2.558L23.04,35.044c-0.063,0.181,-0.142,1.354,-0.142,1.556C22.902,36.836,22.956,37.327,23.04,37.531z" fill="#DCDCDC"/>
   <rect  y="35.046" opacity="0.15" x="23.04" width="0.887" enable-background="new    " height="0.029"/>
   <rect  y="37.573" opacity="0.5" x="23.039" fill="#FFFFFF" width="0.888" enable-background="new    " height="0.03"/>
   <path  d="M18.256,35.044l0.888,0" fill="#D1C690"/>
   <rect  y="35.047" opacity="0.15" x="18.255" width="0.89" enable-background="new    " height="0.029"/>
   <rect  y="37.574" opacity="0.5" x="18.256" fill="#FFFFFF" width="0.888" enable-background="new    " height="0.03"/>
   <line  fill="none" y1="35.045" y2="35.045" x1="23.384" x2="23.384"/>
   <rect  y="35.051" opacity="0.1" x="18.244" width="0.116" enable-background="new    " height="2.542"/>
   <rect  y="35.051" opacity="0.2" x="23.813" fill="#FFFFFF" width="0.113" enable-background="new    " height="2.542"/>
   <rect  y="9.678" x="33.17" fill="#534741" width="5.67" height="2.56"/>
   <rect  y="9.68" opacity="0.2" x="33.17" width="5.672" enable-background="new    " height="0.021"/>
   <rect  y="12.207" opacity="0.2" x="33.17" fill="#FFFFFF" width="5.67" enable-background="new    " height="0.03"/>
   <path  d="M33.992,12.238L33.992,12.238L33.992,12.238l0.063,0l0,0c0.063,-0.171,0.102,-0.812,0.102,-1.002c0,-0.199,-0.035,-1.379,-0.102,-1.557l-0.889,0l0,2.559L33.992,12.238z" fill="#DCDCDC"/>
   <path  d="M37.953,12.165l0,0.071l0.887,0L38.84,9.679l-0.887,0c-0.063,0.181,-0.141,1.354,-0.141,1.556C37.814,11.471,37.869,11.962,37.953,12.165z" fill="#DCDCDC"/>
   <rect  y="9.681" opacity="0.15" x="37.953" width="0.887" enable-background="new    " height="0.029"/>
   <rect  y="12.207" opacity="0.5" x="37.953" fill="#FFFFFF" width="0.887" enable-background="new    " height="0.03"/>
   <path  d="M33.17,9.679l0.887,0" fill="#D1C690"/>
   <rect  y="9.682" opacity="0.15" x="33.168" width="0.891" enable-background="new    " height="0.029"/>
   <rect  y="12.209" opacity="0.5" x="33.17" fill="#FFFFFF" width="0.887" enable-background="new    " height="0.03"/>
   <line  fill="none" y1="9.68" y2="9.68" x1="38.297" x2="38.297"/>
   <rect  y="9.686" opacity="0.1" x="33.158" width="0.115" enable-background="new    " height="2.542"/>
   <rect  y="9.686" opacity="0.2" x="38.726" fill="#FFFFFF" width="0.113" enable-background="new    " height="2.542"/>
   <rect  y="82.791" x="37.122" fill="#DCDCDC" width="1.398" height="6.422"/>
   <line  fill="none" y1="82.792" y2="89.214" x1="37.159" x2="37.159"/>
   <rect  y="83.749" x="37.156" fill="#F2F2F2" width="2.477" height="4.505"/>
   <path  d="M37.157,87.541c0,0,0.467,-0.168,0.426,0.052c-0.041,0.218,0.148,0.54,0,0.676l-0.424,-0.015L37.157,87.541z" fill="#22B573" fill-opacity="0.7"/>
   <rect  y="85.574" x="37.979" fill="#FFFFFF" width="0.961" height="0.854"/>
   <rect  y="85.575" x="37.952" fill="#B3B3B3" width="0.051" height="0.854"/>
   <polygon  fill="#D1C690" points="37.581,87.305,37.477,88.268,38.208,88.268,38.104,87.305"/>
   <path  d="M37.78,87.593c0,-0.002,0,-0.005,0,-0.007c0.035,-0.269,0.105,-0.449,0.162,-0.598c0.08,-0.209,0.141,-0.361,0.055,-0.636c-0.012,-0.024,0.012,-0.059,0.043,-0.063c0.035,-0.008,0.068,0.009,0.078,0.039c0.094,0.303,0.025,0.478,-0.059,0.694c-0.062,0.148,-0.123,0.318,-0.156,0.572c-0.004,0.03,-0.033,0.054,-0.068,0.049C37.804,87.644,37.78,87.62,37.78,87.593z" fill="#D1C690"/>
   <polygon  fill="#D1C690" points="39.11,84.7,39.214,83.736,38.483,83.736,38.587,84.7"/>
   <path  d="M38.306,85.96c0,-0.025,0.02,-0.049,0.047,-0.055c0.291,-0.063,0.42,-0.949,0.436,-1.492c0,-0.033,0.027,-0.06,0.063,-0.06c0.035,0.002,0.063,0.025,0.063,0.06l0,0.002c-0.004,0.149,-0.053,1.498,-0.526,1.6c-0.035,0.007,-0.068,-0.012,-0.078,-0.042C38.306,85.969,38.306,85.965,38.306,85.96z" fill="#D1C690"/>
   <path  d="M38.29,86.43c0,0,0.002,-0.354,-0.311,-0.382c0,0.071,0,0.382,0,0.382L38.29,86.43z" fill="#D1C690"/>
   <path  d="M38.608,85.996c0,0,-0.305,0.158,-0.351,0.052c-0.049,-0.107,-0.053,-0.178,0.027,-0.24C38.37,85.747,38.608,85.996,38.608,85.996z" fill="#D1C690"/>
   <path  d="M37.94,86.355c0.084,0.271,0.022,0.426,-0.055,0.635c-0.062,0.146,-0.128,0.329,-0.162,0.598l0.057,0.001c0.035,-0.269,0.105,-0.449,0.162,-0.598c0.08,-0.209,0.141,-0.361,0.055,-0.636L37.94,86.355z" fill="#9D956C"/>
   <polygon  fill="#9D956C" points="38.532,84.7,38.429,83.736,38.483,83.736,38.587,84.7"/>
   <path  d="M38.296,85.904c0.291,-0.063,0.422,-0.947,0.437,-1.492l0.059,0c-0.016,0.545,-0.145,1.434,-0.436,1.494L38.296,85.904z" fill="#9D956C"/>
   <path  d="M37.922,86.047c0,0.071,0,0.382,0,0.382l0.06,0c0,0,0,-0.311,0,-0.382L37.922,86.047z" fill="#9D956C"/>
   <path  d="M38.233,85.807c-0.08,0.063,-0.076,0.131,-0.031,0.239l0.062,0.001c-0.052,-0.107,-0.054,-0.178,0.026,-0.24L38.233,85.807z" fill="#9D956C"/>
   <rect  y="84.271" opacity="0.5" x="39.58" fill="#FFFFFF" width="0.053" enable-background="new    " height="3.462"/>
   <path  d="M38.885,85.462c0.049,0,0.088,0.035,0.088,0.076l0,0.326c0,0.043,0.039,0.075,0.086,0.075l0.032,0c-0.051,0,-0.09,-0.032,-0.09,-0.075l0,-0.326c0,-0.043,-0.039,-0.078,-0.086,-0.078L38.885,85.462L38.885,85.462z" fill="#FFFFFF"/>
   <path  d="M39.212,87.452c0.052,0,0.09,-0.036,0.09,-0.077l0,-1.356c0,-0.043,-0.038,-0.075,-0.09,-0.075l0.033,0c0.049,0,0.088,0.031,0.088,0.075l0,1.356c0,0.041,-0.039,0.077,-0.088,0.077L39.212,87.452z" fill="#FFFFFF"/>
   <path  d="M37.739,87.733l0,-0.206c0,-0.041,0.039,-0.073,0.088,-0.073l0.031,0c-0.047,0,-0.086,0.032,-0.086,0.073l0,0.205L37.739,87.733L37.739,87.733z" fill="#FFFFFF"/>
   <path  d="M39.301,84.27l0,1.029c0,0.041,-0.039,0.078,-0.091,0.078l0.033,0c0.049,0,0.088,-0.035,0.088,-0.078L39.331,84.27L39.301,84.27z" fill="#FFFFFF"/>
   <path  opacity="0.5" d="M39.633,83.751l-2.477,0l0,4.505l2.477,0L39.633,83.751z" fill="#F2F2F2" enable-background="new    "/>
   <path  opacity="0.55" d="M38.979,83.802l0.27,0c0.152,0.017,0.271,-0.012,0.271,0.096c0,0.613,0,3.944,0,4.099c0,0.167,-0.066,0.175,-0.066,-0.015c0,-0.131,0,-3.133,0,-3.586c0,-0.457,-0.104,-0.518,-0.195,-0.518l-0.272,0.002C38.806,83.88,38.806,83.802,38.979,83.802z" fill="#FFFFFF" enable-background="new    "/>
   <path  opacity="0.03" d="M37.378,88.206c-0.065,0,-0.137,0.012,-0.137,-0.1c0,-0.609,0,-3.941,0,-4.095c0,-0.168,0.066,-0.176,0.066,0.008c0,0.138,0.002,3.14,0.002,3.594C37.309,88.206,37.378,88.206,37.378,88.206z" enable-background="new    "/>
   <path  d="M37.157,82.794l0,0.77l0.521,0c0.125,0,0.213,0.082,0.268,0.188l1.688,0l0,-1.009l-2.428,0l-0.049,0" fill="#D1C690"/>
   <rect  y="82.743" opacity="0.5" x="39.582" fill="#FFFFFF" width="0.051" enable-background="new    " height="1.006"/>
   <path  d="M37.157,89.263l0.049,0l2.428,0l0,-1.009l-2.104,0c-0.055,0.104,-0.146,0.188,-0.271,0.188l-0.1,0l0,0.771" fill="#D1C690"/>
   <rect  y="88.253" opacity="0.5" x="39.58" fill="#FFFFFF" width="0.053" enable-background="new    " height="1.01"/>
   <rect  y="31.626" x="21.614" fill="#DCDCDC" width="6.422" height="1.398"/>
   <line  fill="none" y1="31.663" y2="31.663" x1="28.036" x2="21.614"/>
   <rect  y="31.661" x="22.574" fill="#F2F2F2" width="4.505" height="2.475"/>
   <path  d="M23.287,31.661c0,0,0.168,0.467,-0.052,0.426c-0.218,-0.041,-0.54,0.146,-0.676,0l0.015,-0.424L23.287,31.661z" fill="#22B573" fill-opacity="0.7"/>
   <rect  y="32.481" x="24.4" fill="#FFFFFF" width="0.854" height="0.963"/>
   <rect  y="32.457" x="24.399" fill="#B3B3B3" width="0.854" height="0.05"/>
   <polygon  fill="#D1C690" points="23.523,32.085,22.56,31.981,22.56,32.712,23.523,32.608"/>
   <path  d="M23.235,32.284c0.002,0,0.005,0,0.007,0c0.267,0.033,0.449,0.104,0.598,0.162c0.209,0.077,0.361,0.141,0.633,0.055c0.027,-0.012,0.062,0.01,0.066,0.043c0.008,0.035,-0.009,0.068,-0.039,0.078c-0.303,0.094,-0.478,0.022,-0.697,-0.062c-0.146,-0.059,-0.315,-0.123,-0.569,-0.153c-0.03,-0.004,-0.057,-0.033,-0.05,-0.068C23.184,32.308,23.208,32.284,23.235,32.284z" fill="#D1C690"/>
   <polygon  fill="#D1C690" points="26.128,33.615,27.093,33.718,27.093,32.988,26.128,33.091"/>
   <path  d="M24.868,32.81c0.025,0,0.049,0.021,0.055,0.047c0.063,0.291,0.949,0.421,1.492,0.438c0.033,0,0.057,0.027,0.057,0.063c-0.002,0.035,-0.022,0.063,-0.057,0.063l-0.002,0c-0.152,-0.004,-1.498,-0.053,-1.6,-0.529c-0.01,-0.035,0.012,-0.065,0.042,-0.078C24.859,32.81,24.863,32.81,24.868,32.81z" fill="#D1C690"/>
   <path  d="M24.398,32.794c0,0,0.354,0.002,0.382,-0.313c-0.071,0,-0.382,0,-0.382,0L24.398,32.794z" fill="#D1C690"/>
   <path  d="M24.832,33.113c0,0,-0.158,-0.308,-0.052,-0.353c0.104,-0.047,0.178,-0.051,0.24,0.029C25.081,32.874,24.832,33.113,24.832,33.113z" fill="#D1C690"/>
   <path  d="M24.472,32.444c-0.271,0.086,-0.423,0.024,-0.632,-0.056c-0.146,-0.059,-0.331,-0.127,-0.598,-0.162l-0.001,0.06c0.267,0.033,0.449,0.104,0.598,0.162c0.209,0.077,0.361,0.141,0.633,0.055L24.472,32.444z" fill="#9D956C"/>
   <polygon  fill="#9D956C" points="26.128,33.036,27.093,32.933,27.093,32.988,26.128,33.091"/>
   <path  d="M24.925,32.8c0.063,0.291,0.947,0.42,1.492,0.435l0,0.061c-0.545,-0.018,-1.434,-0.146,-1.494,-0.438L24.925,32.8z" fill="#9D956C"/>
   <path  d="M24.781,32.427c-0.071,0,-0.382,0,-0.382,0l0,0.058c0,0,0.311,0,0.382,0L24.781,32.427z" fill="#9D956C"/>
   <path  d="M25.021,32.738c-0.063,-0.08,-0.134,-0.076,-0.239,-0.031l-0.001,0.059c0.104,-0.049,0.178,-0.051,0.24,0.029L25.021,32.738z" fill="#9D956C"/>
   <rect  y="34.085" opacity="0.5" x="23.094" fill="#FFFFFF" width="3.464" enable-background="new    " height="0.051"/>
   <path  d="M25.366,33.388c0,0.049,-0.035,0.088,-0.076,0.088l-0.326,0c-0.043,0,-0.078,0.039,-0.078,0.086l0,0.033c0,-0.049,0.035,-0.088,0.078,-0.088l0.326,0c0.043,0,0.078,-0.039,0.078,-0.086L25.366,33.388L25.366,33.388z" fill="#FFFFFF"/>
   <path  d="M23.376,33.716c0,0.049,0.036,0.088,0.077,0.088l1.356,0c0.043,0,0.073,-0.039,0.073,-0.088l0,0.033c0,0.049,-0.029,0.088,-0.073,0.088l-1.356,0c-0.041,0,-0.077,-0.039,-0.077,-0.088L23.376,33.716z" fill="#FFFFFF"/>
   <path  d="M23.094,32.243l0.207,0c0.041,0,0.075,0.039,0.075,0.088l0,0.031c0,-0.05,-0.034,-0.089,-0.075,-0.089l-0.206,0L23.094,32.243L23.094,32.243z" fill="#FFFFFF"/>
   <path  d="M26.557,33.804l-1.028,0c-0.041,0,-0.078,-0.039,-0.078,-0.088l0,0.033c0,0.049,0.035,0.088,0.078,0.088l1.028,0L26.557,33.804z" fill="#FFFFFF"/>
   <path  opacity="0.5" d="M27.077,34.136l0,-2.475l-4.505,0l0,2.475L27.077,34.136z" fill="#F2F2F2" enable-background="new    "/>
   <path  opacity="0.55" d="M27.026,33.483l0,0.271c-0.019,0.152,0.012,0.27,-0.099,0.27c-0.61,0,-3.941,0,-4.096,0c-0.167,0,-0.175,-0.063,0.012,-0.063c0.134,0,3.136,0,3.586,0c0.457,0,0.521,-0.105,0.521,-0.197l-0.002,-0.271C26.948,33.31,27.026,33.31,27.026,33.483z" fill="#FFFFFF" enable-background="new    "/>
   <path  opacity="0.03" d="M22.622,31.882c0,-0.068,-0.012,-0.137,0.097,-0.137c0.612,0,3.944,0,4.098,0c0.168,0,0.176,0.063,-0.011,0.063c-0.135,0,-3.137,0.002,-3.591,0.002C22.622,31.813,22.622,31.882,22.622,31.882z" enable-background="new    "/>
   <path  d="M28.034,31.661l-0.771,0l0,0.52c0,0.125,-0.082,0.213,-0.188,0.271l0,1.688l1.01,0l0,-2.426l0,-0.049" fill="#D1C690"/>
   <rect  y="34.085" opacity="0.5" x="27.079" fill="#FFFFFF" width="1.006" enable-background="new    " height="0.051"/>
   <path  d="M21.565,31.661l0,0.049l0,2.426l1.009,0l0,-2.104c-0.105,-0.058,-0.19,-0.146,-0.19,-0.271l0,-0.098l-0.769,0" fill="#D1C690"/>
   <rect  y="34.085" opacity="0.5" x="21.565" fill="#FFFFFF" width="1.009" enable-background="new    " height="0.051"/>
   <rect  y="84.207" x="11.83" fill="#333333" width="2.56" height="5.67"/>
   <rect  y="84.205" opacity="0.2" x="11.833" width="0.021" enable-background="new    " height="5.67"/>
   <path  d="M14.389,89.054L14.389,89.054L14.389,89.054l0,-0.065l0,0c-0.174,-0.061,-0.813,-0.102,-1.002,-0.102c-0.199,0,-1.383,0.033,-1.56,0.102l0,0.888l2.562,0L14.389,89.054z" fill="#CCCCCC"/>
   <path  d="M14.318,85.092l0.071,0l0,-0.888l-2.561,0l0,0.888c0.184,0.063,1.078,0.116,1.279,0.116C13.346,85.209,14.113,85.176,14.318,85.092z" fill="#CCCCCC"/>
   <rect  y="84.204" opacity="0.15" x="11.832" width="0.029" enable-background="new    " height="0.888"/>
   <rect  y="84.204" opacity="0.5" x="14.358" fill="#FFFFFF" width="0.03" enable-background="new    " height="0.888"/>
   <rect  y="88.988" opacity="0.15" x="11.832" width="0.03" enable-background="new    " height="0.888"/>
   <rect  y="88.989" opacity="0.5" x="14.359" fill="#FFFFFF" width="0.03" enable-background="new    " height="0.888"/>
   <line  fill="none" y1="84.747" y2="84.747" x1="11.831" x2="11.831"/>
   <rect  y="89.771" opacity="0.1" x="11.846" width="2.542" enable-background="new    " height="0.116"/>
   <rect  y="84.205" opacity="0.2" x="11.846" fill="#FFFFFF" width="2.542" enable-background="new    " height="0.116"/>
   <rect  y="76.24" x="37.018" fill="#333333" width="2.559" height="5.67"/>
   <rect  y="76.239" opacity="0.2" x="37.019" width="0.021" enable-background="new    " height="5.67"/>
   <path  d="M39.577,81.088L39.577,81.088L39.577,81.088l0,-0.066l0,0c-0.171,-0.06,-0.812,-0.101,-1.002,-0.101c-0.199,0,-1.38,0.034,-1.557,0.101l0,0.89l2.559,0L39.577,81.088z" fill="#CCCCCC"/>
   <path  d="M39.506,77.125l0.071,0l0,-0.89l-2.558,0l0,0.89c0.181,0.063,1.078,0.117,1.276,0.117C38.534,77.242,39.301,77.209,39.506,77.125z" fill="#CCCCCC"/>
   <rect  y="76.239" opacity="0.15" x="37.019" width="0.03" enable-background="new    " height="0.887"/>
   <rect  y="76.238" opacity="0.5" x="39.549" fill="#FFFFFF" width="0.028" enable-background="new    " height="0.89"/>
   <rect  y="81.021" opacity="0.15" x="37.02" width="0.029" enable-background="new    " height="0.888"/>
   <rect  y="81.022" opacity="0.5" x="39.548" fill="#FFFFFF" width="0.029" enable-background="new    " height="0.888"/>
   <line  fill="none" y1="76.781" y2="76.781" x1="37.019" x2="37.019"/>
   <rect  y="81.805" opacity="0.1" x="37.035" width="2.542" enable-background="new    " height="0.113"/>
   <rect  y="76.239" opacity="0.2" x="37.035" fill="#FFFFFF" width="2.542" enable-background="new    " height="0.116"/>
   <rect  y="16.634" x="22.491" fill="#333333" width="5.671" height="2.56"/>
   <rect  y="16.635" opacity="0.2" x="22.491" width="5.67" enable-background="new    " height="0.021"/>
   <path  d="M23.312,19.193L23.312,19.193L23.312,19.193l0.063,0l0,0c0.063,-0.171,0.104,-0.812,0.104,-1.002c0,-0.198,-0.035,-1.38,-0.104,-1.557l-0.888,0l0,2.559L23.312,19.193z" fill="#CCCCCC"/>
   <path  d="M27.275,19.122l0,0.068l0.887,0l0,-2.558l-0.887,0c-0.063,0.181,-0.117,1.078,-0.117,1.279C27.158,18.15,27.191,18.917,27.275,19.122z" fill="#CCCCCC"/>
   <rect  y="16.635" opacity="0.15" x="27.275" width="0.887" enable-background="new    " height="0.03"/>
   <rect  y="19.164" opacity="0.5" x="27.275" fill="#FFFFFF" width="0.887" enable-background="new    " height="0.028"/>
   <rect  y="16.636" opacity="0.15" x="22.491" width="0.888" enable-background="new    " height="0.03"/>
   <rect  y="19.165" opacity="0.5" x="22.49" fill="#FFFFFF" width="0.889" enable-background="new    " height="0.028"/>
   <line  fill="none" y1="16.635" y2="16.635" x1="27.619" x2="27.619"/>
   <rect  y="16.651" opacity="0.1" x="22.479" width="0.116" enable-background="new    " height="2.542"/>
   <rect  y="16.65" opacity="0.2" x="28.046" fill="#FFFFFF" width="0.114" enable-background="new    " height="2.542"/>
   <rect  y="26.868" x="26.384" fill="#999999" width="2.061" height="1.457"/>
   <rect  y="24.111" x="26.384" fill="#999999" width="2.061" height="1.454"/>
   <rect  y="21.351" x="26.383" fill="#999999" width="2.062" height="1.455"/>
   <rect  y="26.868" opacity="0.2" x="28.382" fill="#FFFFFF" width="0.063" enable-background="new    " height="1.457"/>
   <rect  y="24.111" opacity="0.2" x="28.382" fill="#FFFFFF" width="0.063" enable-background="new    " height="1.454"/>
   <rect  y="21.351" opacity="0.2" x="28.382" fill="#FFFFFF" width="0.063" enable-background="new    " height="1.455"/>
   <rect  y="22.688" x="19.973" fill="#999999" width="2.226" height="4.299"/>
   <rect  y="22.688" opacity="0.2" x="19.977" fill="#FFFFFF" width="0.064" enable-background="new    " height="4.299"/>
   <rect  y="20.807" x="22.197" fill="#303030" width="4.187" height="8.063"/>
   <polygon  fill="#1F1F1F" points="22.199,28.87,22.199,20.806,22.501,21.109,22.501,28.567"/>
   <polygon  fill="#1F1F1F" points="26.384,28.87,26.384,20.806,26.079,21.109,26.079,28.567"/>
   <polygon  points="22.199,28.87,26.384,28.87,26.079,28.567,22.501,28.567"/>
   <polygon  fill="#3D3D3D" points="22.199,20.806,26.384,20.806,26.079,21.109,22.501,21.109"/>
   <circle  fill="#1F1F1F" cy="27.96" cx="25.473" r="0.303"/>
   <polygon  fill="#7A7A7A" points="31.698,81.637,29.605,79.54,20.793,79.54,18.7,81.637,18.7,90.449,20.793,92.54,29.605,92.54,31.698,90.449"/>
   <rect  y="78.488" x="20.792" fill="#7A7A7A" width="8.813" height="15.104"/>
   <rect  y="81.636" x="17.647" fill="#7A7A7A" width="15.104" height="8.813"/>
   <polygon  fill="#999999" points="31.066,82.064,29.176,80.173,21.222,80.173,19.33,82.064,19.33,90.019,21.222,91.909,29.176,91.909,31.066,90.019"/>
   <polyline  opacity="0.2" fill="none" points="28.967,91.602,30.759,89.811,30.759,82.271,28.967,80.479,21.43,80.479" enable-background="new    " stroke-width="0.2183" stroke-miterlimit="10" stroke="#FFFFFF"/>
   <polyline  opacity="0.2" fill="none" points="21.428,80.479,19.636,82.27,19.636,89.81,21.428,91.602,28.967,91.602" enable-background="new    " stroke-width="0.2183" stroke-miterlimit="10" stroke="#606060"/>
   <path  d="M25.198,82.605c1.894,0,3.435,1.541,3.435,3.438c0,1.893,-1.541,3.435,-3.435,3.435s-3.436,-1.541,-3.436,-3.435C21.767,84.147,23.307,82.605,25.198,82.605z" fill="#BCA16A"/>
   <path  d="M25.198,89.243c-1.77,0,-3.204,-1.438,-3.204,-3.204c0,-1.771,1.438,-3.204,3.204,-3.204c1.77,0,3.204,1.435,3.204,3.204C28.402,87.811,26.967,89.243,25.198,89.243M25.198,89.704c2.021,0,3.665,-1.646,3.665,-3.664c0,-2.021,-1.646,-3.666,-3.665,-3.666s-3.665,1.645,-3.665,3.666C21.536,88.062,23.179,89.704,25.198,89.704L25.198,89.704z" fill="#808080"/>
   <path  opacity="0.2" d="M23.178,84.021c1.114,-1.116,2.929,-1.116,4.045,0c1.114,1.117,1.114,2.93,0,4.044" fill="#BCA16A" enable-background="new    " stroke-width="0.4887" stroke-miterlimit="10" stroke="#FFFFFF"/>
   <path  opacity="0.2" d="M27.222,88.064c-1.116,1.116,-2.931,1.116,-4.047,0c-1.114,-1.116,-1.114,-2.927,0,-4.044" fill="#BCA16A" enable-background="new    " stroke-width="0.4887" stroke-miterlimit="10" stroke="#606060"/>
   <rect  y="17.46" x="34.156" fill="#333333" width="5.243" height="11.202"/>
   <path  d="M39.383,19.212L39.383,17.46L34.16,17.46l0,1.752L39.383,19.212z" fill="#CCCCCC"/>
   <path  d="M39.383,30.413l0,-1.752L34.16,28.661l0,1.752L39.383,30.413z" fill="#CCCCCC"/>
   <path  d="M34.156,28.664L34.156,26.91" fill="#D1C690"/>
   <line  fill="none" y1="18.531" y2="18.531" x1="34.16" x2="34.16"/>
   <rect  y="17.46" opacity="0.1" x="34.172" width="0.105" enable-background="new    " height="12.954"/>
   <rect  y="17.46" opacity="0.2" x="39.276" fill="#FFFFFF" width="0.104" enable-background="new    " height="12.954"/>
  </g>
 </g>
 <g  id="connectors">
  <circle  fill="none" cy="10.8" id="connector48pin" cx="3.6" r="2.052" stroke-width="1.224" stroke="#9A916C"/>
  <circle  fill="none" cy="3.6" id="connector14pin" cx="43.2" r="2.052" stroke-width="1.224" stroke="#9A916C"/>
  <circle  fill="none" cy="3.6" id="connector15pin" cx="36" r="2.052" stroke-width="1.224" stroke="#9A916C"/>
  <circle  fill="none" cy="3.6" id="connector16pin" cx="28.8" r="2.052" stroke-width="1.224" stroke="#9A916C"/>
  <circle  fill="none" cy="3.6" id="connector17pin" cx="21.6" r="2.052" stroke-width="1.224" stroke="#9A916C"/>
  <circle  fill="none" cy="3.6" id="connector18pin" cx="14.4" r="2.052" stroke-width="1.224" stroke="#9A916C"/>
  <circle  fill="none" cy="3.6" id="connector19pin" cx="7.2" r="2.052" stroke-width="1.224" stroke="#9A916C"/>
  <circle  fill="none" cy="42.84" id="connector20pin" cx="38.52" r="2.052" stroke-width="1.224" stroke="#9A916C"/>
  <circle  fill="none" cy="35.64" id="connector21pin" cx="38.52" r="2.052" stroke-width="1.224" stroke="#9A916C"/>
  <circle  fill="none" cy="72.36" id="connector22pin" cx="38.52" r="2.052" stroke-width="1.224" stroke="#9A916C"/>
  <circle  fill="none" cy="65.16" id="connector23pin" cx="38.52" r="2.052" stroke-width="1.224" stroke="#9A916C"/>
  <circle  fill="none" cy="10.8" id="connector25pin" cx="46.8" r="2.052" stroke-width="1.224" stroke="#9A916C"/>
  <circle  fill="none" cy="18" id="connector26pin" cx="46.8" r="2.052" stroke-width="1.224" stroke="#9A916C"/>
  <circle  fill="none" cy="25.2" id="connector27pin" cx="46.8" r="2.052" stroke-width="1.224" stroke="#9A916C"/>
  <circle  fill="none" cy="32.4" id="connector28pin" cx="46.8" r="2.052" stroke-width="1.224" stroke="#9A916C"/>
  <circle  fill="none" cy="39.6" id="connector29pin" cx="46.8" r="2.052" stroke-width="1.224" stroke="#9A916C"/>
  <circle  fill="none" cy="46.8" id="connector30pin" cx="46.8" r="2.052" stroke-width="1.224" stroke="#9A916C"/>
  <circle  fill="none" cy="54" id="connector31pin" cx="46.8" r="2.052" stroke-width="1.224" stroke="#9A916C"/>
  <circle  fill="none" cy="61.2" id="connector32pin" cx="46.8" r="2.052" stroke-width="1.224" stroke="#9A916C"/>
  <circle  fill="none" cy="68.4" id="connector33pin" cx="46.8" r="2.052" stroke-width="1.224" stroke="#9A916C"/>
  <circle  fill="none" cy="75.6" id="connector34pin" cx="46.8" r="2.052" stroke-width="1.224" stroke="#9A916C"/>
  <circle  fill="none" cy="82.8" id="connector35pin" cx="46.8" r="2.052" stroke-width="1.224" stroke="#9A916C"/>
  <circle  fill="none" cy="90" id="connector36pin" cx="46.8" r="2.052" stroke-width="1.224" stroke="#9A916C"/>
  <circle  fill="none" cy="90" id="connector37pin" cx="3.6" r="2.052" stroke-width="1.224" stroke="#9A916C"/>
  <circle  fill="none" cy="82.8" id="connector38pin" cx="3.6" r="2.052" stroke-width="1.224" stroke="#9A916C"/>
  <circle  fill="none" cy="75.6" id="connector39pin" cx="3.6" r="2.052" stroke-width="1.224" stroke="#9A916C"/>
  <circle  fill="none" cy="68.4" id="connector40pin" cx="3.6" r="2.052" stroke-width="1.224" stroke="#9A916C"/>
  <circle  fill="none" cy="61.2" id="connector41pin" cx="3.6" r="2.052" stroke-width="1.224" stroke="#9A916C"/>
  <circle  fill="none" cy="54" id="connector42pin" cx="3.6" r="2.052" stroke-width="1.224" stroke="#9A916C"/>
  <circle  fill="none" cy="46.8" id="connector43pin" cx="3.6" r="2.052" stroke-width="1.224" stroke="#9A916C"/>
  <circle  fill="none" cy="39.6" id="connector44pin" cx="3.6" r="2.052" stroke-width="1.224" stroke="#9A916C"/>
  <circle  fill="none" cy="32.4" id="connector45pin" cx="3.6" r="2.052" stroke-width="1.224" stroke="#9A916C"/>
  <circle  fill="none" cy="25.2" id="connector46pin" cx="3.6" r="2.052" stroke-width="1.224" stroke="#9A916C"/>
  <circle  fill="none" cy="18" id="connector47pin" cx="3.6" r="2.052" stroke-width="1.224" stroke="#9A916C"/>
 </g>
</g>
</g></g><path stroke='#ff0000' stroke-width='3' stroke-linecap='round' stroke-linejoin='round' fill='none' d='M95.269,10.47C201.413,11.9943 109.603,39.2667 196.353,39.689' />
<path stroke='#000000' stroke-width='3' stroke-linecap='round' stroke-linejoin='round' fill='none' d='M95.269,17.65C165.237,17.592 55.5796,82.5479 124.42,82.7936' />
<g partID='857143450'><g  id="breadboard">
 <rect  y="16.158" x="95" fill="none" width="1.256" id="connector0pin" height="2.998"/>
 <rect  y="8.95799" x="95" fill="none" width="1.256" id="connector1pin" height="3"/>
 <g  fill="none" y1="17.65" id="connector0leg" y2="17.65" stroke-width="3" stroke-linecap="round" x1="95.269" stroke="#000000" x2="100.269"/>
 <g  fill="none" y1="10.47" id="connector1leg" y2="10.47" stroke-width="3" stroke-linecap="round" x1="95.269" stroke="#FF0000" x2="100.269"/>
 <g >
  <g >
   <path  d="M9.572,13.877l14.457,0c0.312,0,0.566,-0.255,0.566,-0.566999L24.595,5.09099c0,-0.312,-0.255,-0.566999,-0.566,-0.566999l-7.229,0L9.572,4.52399c-0.312,0,-0.566,0.255,-0.566,0.566999l0,8.21899C9.006,13.623,9.261,13.877,9.572,13.877zM9.876,5.18799c0,-0.304,0.248,-0.551999,0.552,-0.551999l6.373,0l6.373,0c0.304,0,0.552,0.248,0.552,0.551999l0,8.02499c0,0.304,-0.248,0.551999,-0.552,0.551999L10.428,13.765c-0.304,0,-0.552,-0.248,-0.552,-0.551999L9.876,5.18799z" fill="#939393"/>
   <path  d="M10.428,13.765l6.373,0l6.373,0c0.304,0,0.552,-0.248,0.552,-0.551999L23.726,5.18799c0,-0.304,-0.248,-0.551999,-0.552,-0.551999l-6.373,0l-6.373,0c-0.304,0,-0.552,0.248,-0.552,0.551999l0,8.02499C9.876,13.517,10.124,13.765,10.428,13.765z" fill="#B2B2B2"/>
   <path  d="M11.673,13.676l5.128,0l5.128,0c0.28,0,0.51,-0.229,0.51,-0.509999l0,-7.61999c0,-0.281,-0.229,-0.509999,-0.51,-0.509999l-3.981,0c0.109,0.0939999,0.186,0.232,0.186,0.395999l0,6.86499c0,0.281,-0.21,0.509999,-0.466,0.509999l-0.866,0l-2.474,0c-0.256,0,-0.466,-0.229,-0.466,-0.509999L13.862,5.43299c0,-0.164,0.076,-0.303,0.186,-0.395999l-2.374,0c-0.28,0,-0.51,0.229,-0.51,0.509999l0,7.61999C11.163,13.448,11.393,13.676,11.673,13.676z" fill="#E6E6E6"/>
   <path  opacity="0.9" d="M19.241,5.75899c0,-0.299,-0.199,-0.541999,-0.442,-0.541999l2.173,0c0.244,0,0.443,0.243,0.443,0.541999l0,7.27699c0,0.299,-0.199,0.541999,-0.443,0.541999l-2.173,0c0.243,0,0.442,-0.243,0.442,-0.541999L19.241,5.75899z" fill="#FFFFFF"/>
  </g>
  <rect  y="4.56399" opacity="0.1" x="9.017" width="15.547" height="1.547"/>
 </g>
 <g >
  <path  d="M27.12,7.77799c-0.384,-0.017,-1.126,0.672999,-1.126,0.672999s-0.365,-0.742999,-1.012,-0.791999c-2.887,-0.216,-4.328,-0.119,-7.214,-0.119c-0.39,0,-0.813,-0.014,-0.996,0.490999C16.592,7.52599,16.17,7.53999,15.779,7.53999c-2.945,0,-4.413,-0.0859999,-7.36,0.137C7.704,7.72999,7.402,8.46699,7.402,8.46699S6.98,7.74899,6.55,7.76799c-0.519,0.00999998,-1.007,-0.029,-1.046,0.417999c-0.152,1.734,-0.295,2.528,-0.371,4.08299c-0.065,1.324,0.391,1.901,0.391,3.37799c0,1.017,0.904,2.17,1.673,2.17c2.716,0,4.074,-0.0619999,6.79,0.143c1.206,0.0909999,2.451,-0.142,2.786,-1.229c0.336,1.088,1.585,1.323,2.791,1.232c2.715,-0.204,4.072,-0.146,6.788,-0.146c0.768,0,1.538,-1.234,1.538,-2.171c0,0,0.683,-2.106,0.574,-3.67499S27.908,8.16999,27.908,8.16999C27.854,7.53099,27.305,7.78599,27.12,7.77799z" fill="#919191"/>
  <g >
   <path  d="M5.615,10.111c0.849,-0.252,1.446,-0.491999,1.446,-0.491999c-0.174,1.797,-0.276,2.646,0.001,4.16299c-0.52,-0.0919999,-1.006,-0.175,-1.477,-0.25C5.308,12.232,5.519,11.617,5.615,10.111z" fill="#F4F4F4"/>
   <path  d="M5.865,8.17699c0.747,0.0389999,1.273,0.641999,1.196,1.441c0,0,-0.598,0.24,-1.446,0.491999C5.665,9.33699,5.797,8.95099,5.865,8.17699z" fill="#B7B7B7"/>
   <path  d="M6.958,12.878c0.015,0.598999,0.095,0.821999,0.188,1.341c0.121,0.679999,-0.505,1.354,-1.258,1.407c0,-0.925999,-0.131,-1.295,-0.302,-2.095C6.145,13.532,6.971,13.42,6.958,12.878z" fill="#999999"/>
  </g>
  <g >
   <path  d="M7.822,9.56798c0.062,-0.834999,0.548,-1.543,1.064,-1.58c2.619,-0.189,3.907,-0.101,6.508,-0.101c0.515,0,0.932,0.674999,0.932,1.51c0,0,-0.187,1.416,-0.187,2.246s0.187,2.157,0.187,2.157c0,1.239,-0.417,2.104,-0.932,2.075c-2.601,-0.147,-3.902,-0.24,-6.503,-0.24c-0.513,0,-0.903,-0.706999,-1.001,-1.416C7.657,12.519,7.672,11.573,7.822,9.56798z" fill="#F4F4F4"/>
   <g >
    <path  d="M8.887,7.98799c2.619,-0.189,3.907,-0.101,6.508,-0.101c0.515,0,0.932,0.674999,0.932,1.51c0,0,-2.748,0.12,-4.409,0.12c-1.786,0,-4.095,0.0509999,-4.095,0.0509999C7.885,8.73299,8.37,8.02499,8.887,7.98799z" fill="#B7B7B7"/>
   </g>
   <g >
    <path  d="M8.892,15.635c2.601,0,3.902,0.0929999,6.503,0.24c0.515,0.029,0.932,-0.640999,0.932,-1.472c0,-0.245,0,-0.367999,0,-0.612999c-1.22,-0.395999,-2.746,-0.641999,-4.407,-0.642999c-1.797,-0.000999998,-3.009,0.598999,-4.171,-0.354999c-0.002,0.644999,0.067,0.878999,0.143,1.427C7.988,14.928,8.379,15.635,8.892,15.635z" fill="#999999"/>
   </g>
  </g>
  <g >
   <path  d="M27.931,10.108c-0.851,-0.254,-1.449,-0.493999,-1.449,-0.493999c0.171,1.797,0.272,2.65,0,4.16799c0.52,-0.0919999,1.004,-0.175,1.476,-0.25C28.232,12.232,28.028,11.614,27.931,10.108z" fill="#F4F4F4"/>
   <path  d="M27.683,8.17399c-0.747,0.0369999,-1.277,0.639999,-1.201,1.439c0,0,0.599,0.24,1.449,0.493999C27.881,9.33399,27.751,8.94799,27.683,8.17399z" fill="#B7B7B7"/>
   <path  d="M26.584,12.547c0.006,0.714999,-0.072,1.037,-0.184,1.672c-0.119,0.679999,0.506,1.354,1.259,1.407c0,-0.925999,0.129,-1.295,0.298,-2.095C27.535,13.532,26.589,13.198,26.584,12.547z" fill="#999999"/>
  </g>
  <g >
   <path  d="M25.722,9.56198c-0.062,-0.834999,-0.546,-1.541,-1.062,-1.578c-2.617,-0.187,-3.907,-0.0969998,-6.507,-0.0969998c-0.515,0,-0.928,0.674999,-0.928,1.51c0,0,0.169,1.522,0.169,2.435s-0.169,1.968,-0.169,1.968c0,0.831999,0.413,2.108,0.928,2.08c2.6,-0.144,3.901,-0.244,6.501,-0.244c0.513,0,0.904,-0.706999,0.999,-1.416C25.882,12.519,25.868,11.567,25.722,9.56198z" fill="#F4F4F4"/>
   <g >
    <path  d="M24.66,7.98399c-2.617,-0.187,-3.907,-0.0969998,-6.507,-0.0969998c-0.515,0,-0.928,0.674999,-0.928,1.51c0,0,2.744,0.12,4.405,0.12c1.786,0,4.091,0.0449999,4.091,0.0449999C25.66,8.72699,25.176,8.02099,24.66,7.98399z" fill="#B7B7B7"/>
   </g>
   <g >
    <path  d="M24.654,15.635c-2.6,0,-3.901,0.101,-6.501,0.244c-0.515,0.028,-0.928,-0.641999,-0.928,-1.474c0,-0.245,0,-0.367999,0,-0.613999c1.219,-0.394999,2.745,-0.641999,4.405,-0.643999c1.796,-0.002,3.2,0.333999,4.164,-0.566999c0.001,0.710999,-0.059,1.019,-0.142,1.639C25.559,14.928,25.167,15.635,24.654,15.635z" fill="#999999"/>
   </g>
  </g>
 </g>
 <g >
  <path  d="M60.123,7.34199L45.666,7.34199c-0.312,0,-0.566,0.255,-0.566,0.566999l0,8.21899c0,0.312,0.255,0.566999,0.566,0.566999l7.229,0l7.229,0c0.312,0,0.566,-0.255,0.566,-0.566999L60.69,7.90999C60.689,7.59699,60.435,7.34199,60.123,7.34199zM59.819,16.032c0,0.304,-0.248,0.551999,-0.552,0.551999l-6.373,0l-6.373,0c-0.304,0,-0.552,-0.248,-0.552,-0.551999L45.969,8.00599c0,-0.304,0.248,-0.551999,0.552,-0.551999l12.746,0c0.304,0,0.552,0.248,0.552,0.551999L59.819,16.032z" fill="#939393"/>
  <path  d="M59.268,7.45499l-6.373,0l-6.373,0c-0.304,0,-0.552,0.248,-0.552,0.551999l0,8.02499c0,0.304,0.248,0.551999,0.552,0.551999l6.373,0l6.373,0c0.304,0,0.552,-0.248,0.552,-0.551999L59.82,8.00599C59.819,7.70299,59.571,7.45499,59.268,7.45499z" fill="#B2B2B2"/>
  <path  d="M58.022,7.54299l-5.128,0l-5.128,0c-0.28,0,-0.51,0.229,-0.51,0.509999l0,7.61999c0,0.281,0.229,0.509999,0.51,0.509999l3.981,0c-0.109,-0.0939999,-0.186,-0.232,-0.186,-0.395999L51.561,8.92099c0,-0.281,0.21,-0.509999,0.466,-0.509999l0.866,0l2.474,0c0.256,0,0.466,0.229,0.466,0.509999l0,6.86499c0,0.164,-0.076,0.303,-0.186,0.395999l2.374,0c0.28,0,0.51,-0.229,0.51,-0.509999l0,-7.61999C58.532,7.77199,58.303,7.54299,58.022,7.54299z" fill="#E6E6E6"/>
  <path  opacity="0.9" d="M50.454,15.46c0,0.299,0.199,0.541999,0.442,0.541999l-2.173,0c-0.244,0,-0.443,-0.243,-0.443,-0.541999L48.28,8.18299c0,-0.299,0.199,-0.541999,0.443,-0.541999l2.173,0c-0.243,0,-0.442,0.243,-0.442,0.541999L50.454,15.46z" fill="#FFFFFF"/>
 </g>
 <rect  y="15.109" x="45.132" fill="none" width="15.547" height="1.547"/>
 <rect  y="15.109" opacity="0.1" x="5.382" width="22.592" height="1.547"/>
 <path  d="M5.67,151.871l0.06,0c-0.099,0,-0.195,-0.00699999,-0.293,-0.00999998C5.515,151.864,5.591,151.871,5.67,151.871z" fill="#353535"/>
 <path  d="M5.111,151.847c-0.021,-0.000999998,-0.041,-0.00399999,-0.062,-0.00599999C5.07,151.843,5.091,151.846,5.111,151.847z" fill="#353535"/>
 <path  opacity="0.35" d="M5.437,151.861c-0.108,-0.00399999,-0.219,-0.00499999,-0.325,-0.014C5.218,151.855,5.327,151.857,5.437,151.861z"/>
 <path  d="M70.727,148.251c-0.606,0.895999,-2.843,1.566,-5.498,1.566L5.729,149.817c-3.117,0,-5.666,-0.923999,-5.666,-2.052l0,0.124c0.36,2.076,2.42,3.72099,4.986,3.95099c0.021,0.002,0.041,0.00499999,0.062,0.00599999c0.106,0.00899999,0.217,0.00999998,0.325,0.014c0.098,0.003,0.194,0.00999998,0.293,0.00999998l59.469,0C67.893,151.871,70.159,150.315,70.727,148.251z" fill="#353535"/>
 <path  opacity="0.35" d="M70.727,148.251c-0.606,0.895999,-2.843,1.566,-5.498,1.566L5.729,149.817c-3.117,0,-5.666,-0.923999,-5.666,-2.052l0,0.124c0.36,2.076,2.42,3.72099,4.986,3.95099c0.021,0.002,0.041,0.00499999,0.062,0.00599999c0.106,0.00899999,0.217,0.00999998,0.325,0.014c0.098,0.003,0.194,0.00999998,0.293,0.00999998l59.469,0C67.893,151.871,70.159,150.315,70.727,148.251z"/>
 <g >
  <g >
   <path  d="M66.331,15.798c1.985,0,4.536,1.702,4.536,3.78299l0,127.662c0,2.545,-2.551,4.62699,-5.669,4.62699L5.67,151.87c-3.118,0,-5.669,-2.082,-5.669,-4.62699L0.001,19.582c0,-2.081,2.551,-3.78299,6.802,-3.78299L66.331,15.799z" fill="#353535"/>
   <path  d="M70.867,49.3939L0.001,49.3939L0.001,19.582c0,-2.08,2.551,-3.78299,6.802,-3.78299l59.528,0c1.985,0,4.536,1.703,4.536,3.78299L70.867,49.3939z" fill="#D18D52"/>
  </g>
  <path  opacity="0.15" d="M69.604,147.766c0,0.574999,-1.594,1.067,-3.783,1.237L65.821,17.89c2.189,0.139,3.783,0.540999,3.783,1.012L69.604,147.766z" fill="#FFFFFF"/>
  <path  opacity="0.15" d="M1.145,147.766c0,0.574999,1.594,1.067,3.783,1.237L4.928,17.89c-2.189,0.139,-3.783,0.540999,-3.783,1.012L1.145,147.766z" fill="#FFFFFF"/>
  <path  opacity="0.35" d="M1.145,18.89c0,-0.585999,2.464,-1.065,5.477,-1.065l57.507,0c3.013,0,5.477,0.478999,5.477,1.065l0,-0.218c0,-1.052,-2.464,-1.913,-5.477,-1.913L6.621,16.759c-3.013,0,-5.477,0.860999,-5.477,1.913L1.144,18.89z" fill="#FFFFFF"/>
  <g  opacity="0.2">
   <path  d="M69.604,18.521c0,0,0,128.894,0,130.529c0.628,-0.297,0.628,-0.297,1,-0.645999c0,-0.624999,0,-126.22,0,-126.681C70.604,20.658,69.897,19.162,69.604,18.521z"/>
  </g>
  <g  opacity="0.2">
   <path  d="M1.145,18.521c0,0,0,128.894,0,130.529c-0.628,-0.297,-0.628,-0.297,-1,-0.645999c0,-0.624999,0,-126.22,0,-126.681C0.145,20.658,0.852,19.162,1.145,18.521z"/>
  </g>
 </g>
 <path  d="M67.713,4.41499c14.469,0,13.856,13.249,27.556,13.249" fill="none" stroke-width="3" stroke="#000000"/>
 <path  d="M67.713,4.41699c17.259,0,16.104,6.03499,27.556,6.03499" fill="none" stroke-width="3" stroke="#FF0000"/>
 <g >
  <path  d="M42.569,14.396c0.384,0.017,1.126,-0.672999,1.126,-0.672999s0.365,0.742999,1.012,0.791999c2.887,0.216,4.328,0.119,7.214,0.119c0.39,0,0.813,0.014,0.996,-0.490999c0.181,0.504999,0.603,0.490999,0.993,0.490999c2.945,0,4.413,0.0859999,7.36,-0.137c0.715,-0.0539999,1.017,-0.790999,1.017,-0.790999s0.422,0.718999,0.853,0.698999c0.519,-0.00999998,1.007,0.029,1.046,-0.417999c0.152,-1.734,0.295,-2.528,0.371,-4.08299c0.065,-1.324,-0.391,-1.901,-0.391,-3.37799c0,-1.017,-0.904,-2.17,-1.673,-2.17c-2.716,0,-4.074,0.0619999,-6.79,-0.143c-1.206,-0.0909999,-2.451,0.142,-2.786,1.229c-0.336,-1.088,-1.585,-1.323,-2.791,-1.232c-2.715,0.204,-4.072,0.146,-6.788,0.146c-0.768,0,-1.538,1.234,-1.538,2.171c0,0,-0.683,2.106,-0.574,3.67499s0.556,3.80199,0.556,3.80199C41.836,14.643,42.385,14.388,42.569,14.396z" fill="#919191"/>
  <g >
   <path  d="M64.074,12.063c-0.849,0.252,-1.446,0.491999,-1.446,0.491999c0.174,-1.797,0.276,-2.646,-0.001,-4.16299c0.52,0.0919999,1.006,0.175,1.477,0.25C64.382,9.94198,64.171,10.557,64.074,12.063z" fill="#F4F4F4"/>
   <path  d="M63.824,13.997c-0.747,-0.0389999,-1.273,-0.641999,-1.196,-1.441c0,0,0.598,-0.24,1.446,-0.491999C64.024,12.836,63.893,13.223,63.824,13.997z" fill="#B7B7B7"/>
   <path  d="M62.731,9.29499c-0.015,-0.598999,-0.095,-0.821999,-0.188,-1.341c-0.121,-0.679999,0.505,-1.354,1.258,-1.407c0,0.925999,0.131,1.295,0.302,2.095C63.545,8.64199,62.719,8.75299,62.731,9.29499z" fill="#999999"/>
  </g>
  <g >
   <path  d="M61.867,12.606c-0.062,0.834999,-0.548,1.543,-1.064,1.58c-2.619,0.189,-3.907,0.101,-6.508,0.101c-0.515,0,-0.932,-0.674999,-0.932,-1.51c0,0,0.187,-1.416,0.187,-2.246s-0.187,-2.157,-0.187,-2.157c0,-1.239,0.417,-2.104,0.932,-2.075c2.601,0.147,3.902,0.24,6.503,0.24c0.513,0,0.903,0.706999,1.001,1.416C62.032,9.65498,62.018,10.601,61.867,12.606z" fill="#F4F4F4"/>
   <g >
    <path  d="M60.803,14.186c-2.619,0.189,-3.907,0.101,-6.508,0.101c-0.515,0,-0.932,-0.674999,-0.932,-1.51c0,0,2.748,-0.12,4.409,-0.12c1.786,0,4.095,-0.0509999,4.095,-0.0509999C61.805,13.441,61.319,14.149,60.803,14.186z" fill="#B7B7B7"/>
   </g>
   <g >
    <path  d="M60.798,6.53899c-2.601,0,-3.902,-0.0929999,-6.503,-0.24c-0.515,-0.029,-0.932,0.640999,-0.932,1.472c0,0.245,0,0.367999,0,0.612999c1.22,0.395999,2.746,0.641999,4.407,0.642999c1.797,0.000999998,3.009,-0.598999,4.171,0.354999c0.002,-0.644999,-0.067,-0.878999,-0.143,-1.427C61.701,7.24599,61.311,6.53899,60.798,6.53899z" fill="#999999"/>
   </g>
  </g>
  <g >
   <path  d="M41.759,12.066c0.851,0.254,1.449,0.493999,1.449,0.493999c-0.171,-1.797,-0.272,-2.65,0,-4.16799c-0.52,0.0919999,-1.004,0.175,-1.476,0.25C41.457,9.94198,41.661,10.56,41.759,12.066z" fill="#F4F4F4"/>
   <path  d="M42.007,14c0.747,-0.0369999,1.277,-0.639999,1.201,-1.439c0,0,-0.599,-0.24,-1.449,-0.493999C41.809,12.839,41.938,13.226,42.007,14z" fill="#B7B7B7"/>
   <path  d="M43.105,9.62598c-0.006,-0.714999,0.072,-1.037,0.184,-1.672c0.119,-0.679999,-0.506,-1.354,-1.259,-1.407c0,0.925999,-0.129,1.295,-0.298,2.095C42.154,8.64199,43.101,8.97599,43.105,9.62598z" fill="#999999"/>
  </g>
  <g >
   <path  d="M43.968,12.612c0.062,0.834999,0.546,1.541,1.062,1.578c2.617,0.187,3.907,0.0969998,6.507,0.0969998c0.515,0,0.928,-0.674999,0.928,-1.51c0,0,-0.169,-1.522,-0.169,-2.435s0.169,-1.968,0.169,-1.968c0,-0.831999,-0.413,-2.108,-0.928,-2.08c-2.6,0.144,-3.901,0.244,-6.501,0.244c-0.513,0,-0.904,0.706999,-0.999,1.416C43.808,9.65498,43.821,10.607,43.968,12.612z" fill="#F4F4F4"/>
   <g >
    <path  d="M45.029,14.19c2.617,0.187,3.907,0.0969998,6.507,0.0969998c0.515,0,0.928,-0.674999,0.928,-1.51c0,0,-2.744,-0.12,-4.405,-0.12c-1.786,0,-4.091,-0.0449999,-4.091,-0.0449999C44.029,13.447,44.514,14.153,45.029,14.19z" fill="#B7B7B7"/>
   </g>
   <g >
    <path  d="M45.035,6.53899c2.6,0,3.901,-0.101,6.501,-0.244c0.515,-0.028,0.928,0.641999,0.928,1.474c0,0.245,0,0.367999,0,0.613999c-1.219,0.394999,-2.745,0.641999,-4.405,0.643999c-1.796,0.002,-3.2,-0.333999,-4.164,0.566999c-0.001,-0.710999,0.059,-1.019,0.142,-1.639C44.131,7.24599,44.522,6.53899,45.035,6.53899z" fill="#999999"/>
   </g>
  </g>
 </g>
 <path  d="M67.753,6.91699c0,0,0,-3.56299,0,-4.47999C67.753,0.737999,66.587,0,61.496,0L9.354,0C4.263,0,3.097,0.737999,3.097,2.437c0,0.916999,0,4.47999,0,4.47999L67.753,6.91699z" fill="#262626"/>
 <path  opacity="0.35" d="M62.767,0.565999c3.609,0,4.257,0.860999,4.257,1.913l0,0.218c0,-0.585999,-1.447,-1.065,-4.257,-1.065L8.082,1.632c-2.81,0,-4.257,0.478999,-4.257,1.065L3.825,2.479c0,-1.052,0.647,-1.913,4.257,-1.913L62.767,0.565999z" fill="#FFFFFF"/>
 <path  opacity="0.15" d="M5.586,1.815c-1.152,0.188,-1.761,0.509999,-1.761,0.881999l0,3.81699l1.761,0L5.586,1.815z" fill="#FFFFFF"/>
 <path  opacity="0.15" d="M65.263,1.815c1.152,0.188,1.761,0.509999,1.761,0.881999l0,3.81699l-1.761,0L65.263,1.815z" fill="#FFFFFF"/>
 <g >
  <g transform="matrix(1, 0, 0, 1, 22.6406, 75.9354)">
   <text  fill="#FFFFFF" font-family="Droid Sans" font-size="22">9</text>
  </g>
  <g transform="matrix(1, 0, 0, 1, 36.5776, 75.9359)">
   <text  fill="#FFFFFF" font-family="Droid Sans" font-size="22">v</text>
  </g>
 </g>
</g>
</g><path stroke='#8c8c8c' stroke-width='2.16' stroke-linecap='round' stroke-linejoin='round' fill='none' d='M181.569,78.9256C173.683,84.0707 167.424,82.8446 167.62,82.7936' />
<path stroke='#8c8c8c' stroke-width='2.16' stroke-linecap='round' stroke-linejoin='round' fill='none' d='M181.569,71.7256C175.797,67.1372 167.62,68.3936 167.62,68.3936' />
<g partID='857143480'><g transform='translate(216.32,68.2048)' ><g transform='matrix(0,1,-1,0,0,0)'  ><g xmlns="http://www.w3.org/2000/svg" id="breadboard">
 <g xmlns="http://www.w3.org/2000/svg">
  <rect xmlns="http://www.w3.org/2000/svg" y="32.5368" x="9.6408" fill="none" id="connector1pin" width="2.16" height="0.72"/>
  <rect xmlns="http://www.w3.org/2000/svg" y="32.5368" x="2.4408" fill="none" id="connector0pin" width="2.16" height="0.72"/>
  <g xmlns="http://www.w3.org/2000/svg" fill="none" y1="48.266" id="connector0leg" y2="62.266" stroke-width="2.16" stroke-linecap="round" x1="4.89" stroke="#8C8C8C" x2="4.89"/>
  <g xmlns="http://www.w3.org/2000/svg" fill="none" y1="48.266" id="connector1leg" y2="62.266" stroke-width="2.16" stroke-linecap="round" x1="14.89" stroke="#8C8C8C" x2="14.89"/>
  <rect xmlns="http://www.w3.org/2000/svg" y="26.8315" x="2.4408" fill="#8C8C8C" width="2.16" height="7.92"/>
  <rect xmlns="http://www.w3.org/2000/svg" y="26.8315" x="9.6408" fill="#8C8C8C" width="2.16" height="7.92"/>
  <ellipse xmlns="http://www.w3.org/2000/svg" ry="4.96008" fill="#0D0033" cy="26.8315" cx="7.08768" rx="7.08624"/>
  <rect xmlns="http://www.w3.org/2000/svg" y="25.8199" fill="#0D0033" width="14.1689" height="1.01088"/>
  <ellipse xmlns="http://www.w3.org/2000/svg" ry="4.96152" fill="#100040" cy="26.028" cx="7.08768" rx="7.08624"/>
  <ellipse xmlns="http://www.w3.org/2000/svg" ry="4.96152" fill="#0D0033" cy="22.5799" cx="7.08768" rx="7.08624"/>
  <rect xmlns="http://www.w3.org/2000/svg" y="5.03568" fill="#0D0033" width="14.1739" height="17.5442"/>
  <ellipse xmlns="http://www.w3.org/2000/svg" ry="4.96152" fill="#0D0033" cy="5.03496" cx="7.08768" rx="7.08624"/>
  <ellipse xmlns="http://www.w3.org/2000/svg" ry="4.59576" fill="#100040" cy="4.59576" cx="7.08768" rx="6.56352"/>
  <ellipse xmlns="http://www.w3.org/2000/svg" ry="3.36816" fill="#B2B2B2" cy="4.33008" cx="7.08768" rx="4.81104"/>
  <path xmlns="http://www.w3.org/2000/svg" d="M1.38384,2.09016C0.51552,2.91384,0,3.93336,0,5.03568L0,7.776l0.94824,0l0,-0.26352l0.0108,-0.10008c0,0,0,0.05112,0,-0.13392c0,-0.33192,0.15768,-0.54504,0.42408,-0.65088c0.25704,-0.10224,0.23832,-1.91592,0.23832,-1.91592L1.38384,2.09016z" fill="#D2EEFF"/>
  <path xmlns="http://www.w3.org/2000/svg" d="M2.27736,4.33008c0,-0.59832,0.2232,-1.15704,0.612,-1.64304L1.38384,2.08728C0.83808,2.7576,0.52344,3.53088,0.52344,4.35672c0,0.82584,0.31536,1.60056,0.8604,2.27016l1.54152,-0.61344C2.51568,5.5188,2.27736,4.94352,2.27736,4.33008z" fill="#D2EEFF"/>
  <rect xmlns="http://www.w3.org/2000/svg" y="7.4124" fill="#D2EEFF" width="0.95904" height="15.1668"/>
  <rect xmlns="http://www.w3.org/2000/svg" y="19.265" fill="#D2EEFF" width="0.95904" height="1.63152"/>
  <path xmlns="http://www.w3.org/2000/svg" d="M0,26.0273l0,0.80208c0,0.90792,0.34992,1.75752,0.95904,2.48976l0,-0.80136l0,-4.18032l0,-0.80136C0.34992,24.2712,0,25.1201,0,26.0273z" fill="#D2EEFF"/>
  <path xmlns="http://www.w3.org/2000/svg" d="M0.95904,20.0887C0.34992,20.821,0,21.6713,0,22.5799s0.34992,1.7568,0.95904,2.48976L0.95904,20.0887z" fill="#D2EEFF"/>
  <path xmlns="http://www.w3.org/2000/svg" d="M0.95904,28.9354c0,0,0,-0.18432,0,-0.41688c0,-0.23328,0.04968,-1.0404,0.1296,-1.39968c0.1296,-0.594,0.40464,-1.00296,0.40464,-1.6308c0,-0.21168,-0.12024,-0.50976,-0.30024,-0.68976c-0.17784,-0.17784,-0.23832,-0.4572,-0.23832,-0.74808c0,-0.2916,0,-0.66384,0,-0.66384l-0.4104,0.01368l0.04464,5.11344L0.95904,28.9354z" fill="#D2EEFF"/>
  <path xmlns="http://www.w3.org/2000/svg" opacity="0.35" d="M7.08768,1.12104c2.61936,0,4.74408,1.46592,4.80528,3.28896c0.00072,-0.02736,0.00792,-0.05328,0.00792,-0.07992c0,-1.86048,-2.15496,-3.36816,-4.81176,-3.36816c-2.65536,0,-4.81032,1.50768,-4.81032,3.36816c0,0.02664,0.00504,0.05256,0.00648,0.07992C2.34288,2.58696,4.46832,1.12104,7.08768,1.12104z"/>
  <path xmlns="http://www.w3.org/2000/svg" opacity="0.35" d="M9.15768,10.0498l0,7.78464l0,5.96376c0,0,0,3.05712,0,3.17952c0,0.12096,-0.04032,0.22248,-0.08928,0.3168c-0.05832,0.10944,-0.1908,0.28152,-0.1908,0.28152c1.88784,-0.40464,3.54744,-1.49544,4.40352,-2.718c0.05904,-0.0756,0.12096,-0.23616,0.14184,-0.30528c0.02088,-0.07128,0.02952,-0.1404,0.02952,-0.1404l0,-0.61416l0,-3.39696L13.4525,7.4844C12.5978,8.7084,11.0441,9.64656,9.15768,10.0498z"/>
  <path xmlns="http://www.w3.org/2000/svg" opacity="0.35" d="M13.343,27.7474c-0.06624,-0.17712,-0.25632,-0.40032,-0.25632,-0.40032c-0.85536,1.22256,-2.34792,1.87488,-4.23504,2.27664c0,0,0.1692,0.288,0.24408,0.53424c0.072,0.2448,0.06336,0.61488,0.06336,0.61488l0,0.8028c1.88712,-0.40248,3.4416,-1.3428,4.29552,-2.56464c0,0,0,-0.55872,0,-0.7056C13.4546,28.139,13.3992,27.8928,13.343,27.7474z"/>
  <path xmlns="http://www.w3.org/2000/svg" opacity="0.2" d="M6.76944,29.2529c-0.01296,-0.17064,-0.04464,-0.3204,-0.08928,-0.45072c-3.01104,-0.13248,-5.4576,-1.70568,-5.95512,-3.74616c-0.09576,0.0756,-0.2052,0.17928,-0.27144,0.29592c-0.05256,0.09792,-0.1008,0.23904,-0.1404,0.3744c0.48096,2.2356,3.16008,3.96288,6.44976,4.07016C6.77736,29.646,6.78384,29.4653,6.76944,29.2529z" fill="#FFFFFF"/>
  <path xmlns="http://www.w3.org/2000/svg" opacity="0.2" d="M9.72864,8.62128c0.00504,-0.10872,-0.07992,-0.18432,-0.14904,-0.21384c-0.07344,-0.0324,-0.1944,-0.08064,-0.42336,-0.02016l-0.01944,0c-0.64296,0.15912,-1.32984,0.25128,-2.05056,0.25128c-3.39768,0,-6.1524,-1.92888,-6.1524,-4.30776c0,-0.06696,0.00936,-0.1332,0.01368,-0.19872c0,-0.00576,-0.00576,-0.00936,-0.00576,-0.01656c0,-0.10584,-0.04248,-0.24408,-0.13248,-0.25776C0.70632,3.8376,0.65592,3.92256,0.60552,4.03056C0.58032,4.08312,0.56088,4.15872,0.5472,4.24656C0.54504,4.25736,0.5436,4.27032,0.54216,4.28112C0.54,4.29264,0.54,4.30776,0.53856,4.32C0.52776,4.41072,0.52272,4.50288,0.52272,4.59504c0,2.53728,2.93904,4.59576,6.56352,4.59576c0.9108,0,1.76904,-0.13968,2.55456,-0.3744C9.7164,8.77824,9.72432,8.7156,9.72864,8.62128z" fill="#FFFFFF"/>
  <path xmlns="http://www.w3.org/2000/svg" d="M0.45432,25.3519c-0.05256,0.09792,-0.1008,0.23904,-0.1404,0.3744c0.11952,0.55584,0.37512,1.08144,0.74376,1.55808c0.01008,-0.06264,0.01944,-0.11808,0.03096,-0.16632c0.06408,-0.29232,0.162,-0.53712,0.2448,-0.78552c-0.28656,-0.396,-0.49824,-0.82512,-0.60696,-1.27584C0.62928,25.1309,0.52128,25.236,0.45432,25.3519z" fill="#FFFFFF"/>
  <path xmlns="http://www.w3.org/2000/svg" d="M0.93456,4.33008c0,-0.06696,0.01008,-0.1332,0.0144,-0.19872C0.94608,4.12488,0.94032,4.122,0.94032,4.11408c0,-0.10584,-0.04176,-0.24408,-0.13104,-0.25776C0.70632,3.8376,0.65592,3.92256,0.60552,4.03056C0.5796,4.08312,0.56088,4.15872,0.5472,4.24656C0.54504,4.25736,0.54216,4.27032,0.54144,4.28112C0.54,4.29264,0.53928,4.30776,0.53856,4.32C0.52776,4.41072,0.52272,4.50288,0.52272,4.59504c0,0.75888,0.26784,1.47312,0.73296,2.10456c0.04032,-0.02664,0.08064,-0.05256,0.12816,-0.072l0.37512,-0.14976C1.23696,5.84568,0.93456,5.11416,0.93456,4.33008z" fill="#FFFFFF"/>
 </g>
</g>
</g></g></g><g partID='857146120'><g transform='translate(219.563,25.8181)' ><g transform='matrix(0,1,-1,0,0,0)'  ><g xmlns="http://www.w3.org/2000/svg" id="breadboard">
 <rect xmlns="http://www.w3.org/2000/svg" y="23.588" x="5.671" fill="#8C8C8C" id="connector4terminal" width="1.813" height="1.188"/>
 <rect xmlns="http://www.w3.org/2000/svg" y="23.588" x="12.871" fill="#8C8C8C" id="connector5terminal" width="1.815" height="1.188"/>
 <rect xmlns="http://www.w3.org/2000/svg" y="23.588" x="20.069" fill="#8C8C8C" id="connector6terminal" width="1.813" height="1.188"/>
 <rect xmlns="http://www.w3.org/2000/svg" y="21.506" x="5.671" fill="#8C8C8C" id="connector4pin" width="1.813" height="3.273"/>
 <rect xmlns="http://www.w3.org/2000/svg" y="21.506" x="12.871" fill="#8C8C8C" id="connector5pin" width="1.815" height="3.273"/>
 <rect xmlns="http://www.w3.org/2000/svg" y="21.506" x="20.069" fill="#8C8C8C" id="connector6pin" width="1.813" height="3.273"/>
 <g xmlns="http://www.w3.org/2000/svg">
  <g xmlns="http://www.w3.org/2000/svg">
   <rect xmlns="http://www.w3.org/2000/svg" y="14.818" x="5.668" fill="#8C8C8C" id="rect4_1_" width="1.813" height="9.936"/>
   <rect xmlns="http://www.w3.org/2000/svg" y="14.818" x="12.868" fill="#8C8C8C" id="rect6_1_" width="1.814" height="9.936"/>
   <rect xmlns="http://www.w3.org/2000/svg" y="14.818" x="20.067" fill="#8C8C8C" id="rect8_1_" width="1.813" height="9.936"/>
   <polygon xmlns="http://www.w3.org/2000/svg" fill="#8C8C8C" points="9.097,19.174,7.483,19.895,5.669,19.895,4.056,19.174,4.056,13.354,9.097,13.354" id="polygon21_1_"/>
   <polygon xmlns="http://www.w3.org/2000/svg" fill="#8C8C8C" points="16.296,19.174,14.683,19.895,12.869,19.895,11.256,19.174,11.256,13.354,16.296,13.354" id="polygon23_1_"/>
   <polygon xmlns="http://www.w3.org/2000/svg" fill="#8C8C8C" points="23.495,19.174,21.88,19.895,20.068,19.895,18.456,19.174,18.456,13.354,23.495,13.354" id="polygon25_1_"/>
   <rect xmlns="http://www.w3.org/2000/svg" y="17.066" x="4.061" fill="#808080" width="5.037" height="0.492"/>
   <rect xmlns="http://www.w3.org/2000/svg" y="17.066" x="11.267" fill="#808080" width="5.037" height="0.492"/>
   <rect xmlns="http://www.w3.org/2000/svg" y="17.066" x="18.463" fill="#808080" width="5.037" height="0.492"/>
  </g>
  <rect xmlns="http://www.w3.org/2000/svg" y="3.969" x="-0.001" fill="#B3B3B3" id="rect27_3_" width="27.558" height="13.095"/>
  <rect xmlns="http://www.w3.org/2000/svg" y="9.308" x="-0.001" fill="#E6E6E6" id="rect49_3_" width="27.558" height="3.347"/>
  <rect xmlns="http://www.w3.org/2000/svg" y="3.865" x="-0.001" fill="#F2F2F2" id="rect51_3_" width="27.558" height="6.881"/>
  <rect xmlns="http://www.w3.org/2000/svg" y="4.269" x="8.174" id="rect49_2_" width="11.205" height="6.089"/>
  <rect xmlns="http://www.w3.org/2000/svg" y="3.865" x="14.432" fill="#333333" id="rect27_2_" width="4.798" height="6.375"/>
  <rect xmlns="http://www.w3.org/2000/svg" y="0.025" x="14.432" fill="#666666" id="rect51_2_" width="4.798" height="3.84"/>
  <rect xmlns="http://www.w3.org/2000/svg" y="4.214" x="0.232" fill="#FFFFFF" width="7.083" height="0.279" fill-opacity="0.2"/>
  <rect xmlns="http://www.w3.org/2000/svg" y="10.114" x="19.815" width="7.271" height="0.279" fill-opacity="0.1"/>
  <rect xmlns="http://www.w3.org/2000/svg" y="16.275" x="0.565" width="26.521" height="0.277" fill-opacity="0.1"/>
 </g>
 <path xmlns="http://www.w3.org/2000/svg" d="M19.091,9.405c0,0.39,-0.112,0.708,-0.25,0.708s-0.25,-0.319,-0.25,-0.708L18.591,4.781c0,-0.39,0.112,-0.708,0.25,-0.708s0.25,0.319,0.25,0.708L19.091,9.405z" fill-opacity="0.25"/>
 <g xmlns="http://www.w3.org/2000/svg">
  <g xmlns="http://www.w3.org/2000/svg">
   <rect xmlns="http://www.w3.org/2000/svg" y="0.241" x="18.898" fill="#CCCCCC" width="0.086" height="3.407" fill-opacity="0.36"/>
  </g>
  <g xmlns="http://www.w3.org/2000/svg">
   <rect xmlns="http://www.w3.org/2000/svg" y="0.241" x="18.544" fill="#CCCCCC" width="0.086" height="3.407" fill-opacity="0.36"/>
  </g>
  <g xmlns="http://www.w3.org/2000/svg">
   <rect xmlns="http://www.w3.org/2000/svg" y="0.241" x="18.189" fill="#CCCCCC" width="0.086" height="3.407" fill-opacity="0.36"/>
  </g>
  <g xmlns="http://www.w3.org/2000/svg">
   <rect xmlns="http://www.w3.org/2000/svg" y="0.241" x="17.835" fill="#CCCCCC" width="0.086" height="3.407" fill-opacity="0.36"/>
  </g>
  <g xmlns="http://www.w3.org/2000/svg">
   <rect xmlns="http://www.w3.org/2000/svg" y="0.241" x="17.48" fill="#CCCCCC" width="0.086" height="3.407" fill-opacity="0.36"/>
  </g>
  <g xmlns="http://www.w3.org/2000/svg">
   <rect xmlns="http://www.w3.org/2000/svg" y="0.241" x="17.126" fill="#CCCCCC" width="0.086" height="3.407" fill-opacity="0.36"/>
  </g>
  <g xmlns="http://www.w3.org/2000/svg">
   <rect xmlns="http://www.w3.org/2000/svg" y="0.241" x="16.771" fill="#CCCCCC" width="0.086" height="3.407" fill-opacity="0.36"/>
  </g>
  <g xmlns="http://www.w3.org/2000/svg">
   <rect xmlns="http://www.w3.org/2000/svg" y="0.241" x="16.417" fill="#CCCCCC" width="0.086" height="3.407" fill-opacity="0.36"/>
  </g>
  <g xmlns="http://www.w3.org/2000/svg">
   <rect xmlns="http://www.w3.org/2000/svg" y="0.241" x="16.062" fill="#CCCCCC" width="0.086" height="3.407" fill-opacity="0.36"/>
  </g>
  <g xmlns="http://www.w3.org/2000/svg">
   <rect xmlns="http://www.w3.org/2000/svg" y="0.241" x="15.708" fill="#CCCCCC" width="0.086" height="3.407" fill-opacity="0.36"/>
  </g>
  <g xmlns="http://www.w3.org/2000/svg">
   <rect xmlns="http://www.w3.org/2000/svg" y="0.241" x="15.353" fill="#CCCCCC" width="0.086" height="3.407" fill-opacity="0.36"/>
  </g>
  <g xmlns="http://www.w3.org/2000/svg">
   <rect xmlns="http://www.w3.org/2000/svg" y="0.241" x="14.999" fill="#CCCCCC" width="0.086" height="3.407" fill-opacity="0.36"/>
  </g>
  <g xmlns="http://www.w3.org/2000/svg">
   <rect xmlns="http://www.w3.org/2000/svg" y="0.241" x="14.644" fill="#CCCCCC" width="0.086" height="3.407" fill-opacity="0.36"/>
  </g>
 </g>
</g>
</g></g></g><g partID='857152390'><g transform='translate(164.021,143.991)' ><g transform='matrix(0,-1,1,0,0,0)'  ><g xmlns="http://www.w3.org/2000/svg" id="breadboard">
<rect xmlns="http://www.w3.org/2000/svg" fill="#404040" width="21.6" height="7.2"/>
<rect xmlns="http://www.w3.org/2000/svg" y="2.20843" x="2.20843" fill="none" id="connector0pin" width="2.78312" height="2.78312"/>
<g xmlns="http://www.w3.org/2000/svg" y="2.47054" x="2.51834" fill="none" id="connector0terminal" width="2.15829" height="2.25658"/>
<rect xmlns="http://www.w3.org/2000/svg" y="2.20843" x="2.20843" width="2.78312" height="2.78312"/>
<polygon xmlns="http://www.w3.org/2000/svg" fill="#2A2A29" points="1.18445,1.18445,2.20843,2.20843,4.99156,2.20843,6.01654,1.18445"/>
<polygon xmlns="http://www.w3.org/2000/svg" fill="#474747" points="6.01654,1.18445,4.99156,2.20843,4.99156,4.99156,6.01654,6.01654"/>
<polygon xmlns="http://www.w3.org/2000/svg" fill="#595959" points="6.01654,6.01654,4.99156,4.99156,2.20843,4.99156,1.18445,6.01654"/>
<polygon xmlns="http://www.w3.org/2000/svg" fill="#373737" points="1.18445,6.01654,2.20843,4.99156,2.20843,2.20843,1.18445,1.18445"/>
<rect xmlns="http://www.w3.org/2000/svg" y="2.20843" x="9.40846" fill="none" id="connector1pin" width="2.78312" height="2.78312"/>
<g xmlns="http://www.w3.org/2000/svg" y="2.47054" x="9.71834" fill="none" id="connector1terminal" width="2.15829" height="2.25658"/>
<rect xmlns="http://www.w3.org/2000/svg" y="2.20843" x="9.40846" width="2.78312" height="2.78312"/>
<polygon xmlns="http://www.w3.org/2000/svg" fill="#2A2A29" points="8.38447,1.18445,9.40846,2.20843,12.1915,2.20843,13.2165,1.18445"/>
<polygon xmlns="http://www.w3.org/2000/svg" fill="#474747" points="13.2165,1.18445,12.1915,2.20843,12.1915,4.99156,13.2165,6.01654"/>
<polygon xmlns="http://www.w3.org/2000/svg" fill="#595959" points="13.2165,6.01654,12.1915,4.99156,9.40846,4.99156,8.38447,6.01654"/>
<polygon xmlns="http://www.w3.org/2000/svg" fill="#373737" points="8.38447,6.01654,9.40846,4.99156,9.40846,2.20843,8.38447,1.18445"/>
<rect xmlns="http://www.w3.org/2000/svg" y="2.20843" x="16.6085" fill="none" id="connector2pin" width="2.78312" height="2.78312"/>
<g xmlns="http://www.w3.org/2000/svg" y="2.47054" x="16.9183" fill="none" id="connector2terminal" width="2.15829" height="2.25658"/>
<rect xmlns="http://www.w3.org/2000/svg" y="2.20843" x="16.6085" width="2.78312" height="2.78312"/>
<polygon xmlns="http://www.w3.org/2000/svg" fill="#2A2A29" points="15.5845,1.18445,16.6085,2.20843,19.3915,2.20843,20.4165,1.18445"/>
<polygon xmlns="http://www.w3.org/2000/svg" fill="#474747" points="20.4165,1.18445,19.3915,2.20843,19.3915,4.99156,20.4165,6.01654"/>
<polygon xmlns="http://www.w3.org/2000/svg" fill="#595959" points="20.4165,6.01654,19.3915,4.99156,16.6085,4.99156,15.5845,6.01654"/>
<polygon xmlns="http://www.w3.org/2000/svg" fill="#373737" points="15.5845,6.01654,16.6085,4.99156,16.6085,2.20843,15.5845,1.18445"/>
</g>
</g></g></g><g partID='857147370'><path stroke-linecap='round' fill='none' stroke-width='3.2' stroke='#8c0000' d='M167.62,61.1936C185.004,62.2696, 167.903,42.0909 196.42,46.7936' /><path stroke-linecap='round' fill='none' stroke-width='1.6' stroke='#cc1414' d='M167.62,61.1936C185.004,62.2696, 167.903,42.0909 196.42,46.7936' /></g></svg>